%TF.GenerationSoftware,KiCad,Pcbnew,7.0.10*%
%TF.CreationDate,2024-02-20T20:24:08-05:00*%
%TF.ProjectId,GBoyGcPlus,47426f79-4763-4506-9c75-732e6b696361,rev?*%
%TF.SameCoordinates,Original*%
%TF.FileFunction,Soldermask,Bot*%
%TF.FilePolarity,Negative*%
%FSLAX46Y46*%
G04 Gerber Fmt 4.6, Leading zero omitted, Abs format (unit mm)*
G04 Created by KiCad (PCBNEW 7.0.10) date 2024-02-20 20:24:08*
%MOMM*%
%LPD*%
G01*
G04 APERTURE LIST*
%ADD10C,2.200000*%
%ADD11R,1.000000X1.000000*%
%ADD12O,1.000000X1.000000*%
%ADD13R,2.300000X2.300000*%
%ADD14R,2.300000X5.000000*%
%ADD15R,1.092200X0.558800*%
G04 APERTURE END LIST*
D10*
%TO.C,H7*%
X2475000Y-2475000D03*
%TD*%
%TO.C,H1*%
X123110000Y-77310000D03*
%TD*%
D11*
%TO.C,J1*%
X144526000Y-74168000D03*
D12*
X145796000Y-74168000D03*
X147066000Y-74168000D03*
X148336000Y-74168000D03*
X149606000Y-74168000D03*
X150876000Y-74168000D03*
%TD*%
D10*
%TO.C,H4*%
X179150000Y-101320000D03*
%TD*%
%TO.C,H5*%
X141224000Y-77216000D03*
%TD*%
%TO.C,H6*%
X159130000Y-121350000D03*
%TD*%
D11*
%TO.C,J2*%
X180590000Y-108640000D03*
D12*
X180590000Y-109910000D03*
X180590000Y-111180000D03*
X180590000Y-112450000D03*
X180590000Y-113720000D03*
X180590000Y-114990000D03*
%TD*%
D10*
%TO.C,H8*%
X179130000Y-121390000D03*
%TD*%
%TO.C,H2*%
X141130000Y-95330000D03*
%TD*%
%TO.C,H3*%
X123140000Y-95440000D03*
%TD*%
D13*
%TO.C,SW4*%
X141130000Y-85000000D03*
X138430000Y-87700000D03*
X138430000Y-85000000D03*
X141130000Y-87700000D03*
%TD*%
D14*
%TO.C,SW8*%
X170434000Y-106142000D03*
X167734000Y-106142000D03*
%TD*%
%TO.C,SW6*%
X176600000Y-112360000D03*
X173900000Y-112360000D03*
%TD*%
D13*
%TO.C,SW2*%
X133360000Y-92430000D03*
X130660000Y-95130000D03*
X130660000Y-92430000D03*
X133360000Y-95130000D03*
%TD*%
D15*
%TO.C,SW9*%
X153771600Y-88317000D03*
X158140400Y-88317000D03*
X153771600Y-84811800D03*
X158140400Y-84811800D03*
%TD*%
D14*
%TO.C,SW5*%
X164450000Y-112140000D03*
X161750000Y-112140000D03*
%TD*%
D13*
%TO.C,SW1*%
X125740000Y-87630000D03*
X123040000Y-84930000D03*
X125740000Y-84930000D03*
X123040000Y-87630000D03*
%TD*%
D14*
%TO.C,SW7*%
X167980000Y-118700000D03*
X170680000Y-118700000D03*
%TD*%
D13*
%TO.C,SW3*%
X130640000Y-77170000D03*
X133340000Y-79870000D03*
X130640000Y-79870000D03*
X133340000Y-77170000D03*
%TD*%
M02*
