%TF.GenerationSoftware,KiCad,Pcbnew,7.0.10*%
%TF.CreationDate,2024-02-20T20:24:08-05:00*%
%TF.ProjectId,GBoyGcPlus,47426f79-4763-4506-9c75-732e6b696361,rev?*%
%TF.SameCoordinates,Original*%
%TF.FileFunction,Legend,Top*%
%TF.FilePolarity,Positive*%
%FSLAX46Y46*%
G04 Gerber Fmt 4.6, Leading zero omitted, Abs format (unit mm)*
G04 Created by KiCad (PCBNEW 7.0.10) date 2024-02-20 20:24:08*
%MOMM*%
%LPD*%
G01*
G04 APERTURE LIST*
%ADD10C,0.150000*%
%ADD11C,0.152400*%
%ADD12C,0.120000*%
G04 APERTURE END LIST*
D10*
X1713095Y270180D02*
X1713095Y1270180D01*
X1713095Y793990D02*
X2284523Y793990D01*
X2284523Y270180D02*
X2284523Y1270180D01*
X2665476Y1270180D02*
X3332142Y1270180D01*
X3332142Y1270180D02*
X2903571Y270180D01*
X131948333Y-89429580D02*
X131900714Y-89477200D01*
X131900714Y-89477200D02*
X131757857Y-89524819D01*
X131757857Y-89524819D02*
X131662619Y-89524819D01*
X131662619Y-89524819D02*
X131519762Y-89477200D01*
X131519762Y-89477200D02*
X131424524Y-89381961D01*
X131424524Y-89381961D02*
X131376905Y-89286723D01*
X131376905Y-89286723D02*
X131329286Y-89096247D01*
X131329286Y-89096247D02*
X131329286Y-88953390D01*
X131329286Y-88953390D02*
X131376905Y-88762914D01*
X131376905Y-88762914D02*
X131424524Y-88667676D01*
X131424524Y-88667676D02*
X131519762Y-88572438D01*
X131519762Y-88572438D02*
X131662619Y-88524819D01*
X131662619Y-88524819D02*
X131757857Y-88524819D01*
X131757857Y-88524819D02*
X131900714Y-88572438D01*
X131900714Y-88572438D02*
X131948333Y-88620057D01*
X132900714Y-89524819D02*
X132329286Y-89524819D01*
X132615000Y-89524819D02*
X132615000Y-88524819D01*
X132615000Y-88524819D02*
X132519762Y-88667676D01*
X132519762Y-88667676D02*
X132424524Y-88762914D01*
X132424524Y-88762914D02*
X132329286Y-88810533D01*
X131754294Y-81089820D02*
X131754294Y-81899343D01*
X131754294Y-81899343D02*
X131801913Y-81994581D01*
X131801913Y-81994581D02*
X131849532Y-82042201D01*
X131849532Y-82042201D02*
X131944770Y-82089820D01*
X131944770Y-82089820D02*
X132135246Y-82089820D01*
X132135246Y-82089820D02*
X132230484Y-82042201D01*
X132230484Y-82042201D02*
X132278103Y-81994581D01*
X132278103Y-81994581D02*
X132325722Y-81899343D01*
X132325722Y-81899343D02*
X132325722Y-81089820D01*
X133325722Y-82089820D02*
X132754294Y-82089820D01*
X133040008Y-82089820D02*
X133040008Y-81089820D01*
X133040008Y-81089820D02*
X132944770Y-81232677D01*
X132944770Y-81232677D02*
X132849532Y-81327915D01*
X132849532Y-81327915D02*
X132754294Y-81375534D01*
X130340000Y-76714819D02*
X130340000Y-76952914D01*
X130101905Y-76857676D02*
X130340000Y-76952914D01*
X130340000Y-76952914D02*
X130578095Y-76857676D01*
X130197143Y-77143390D02*
X130340000Y-76952914D01*
X130340000Y-76952914D02*
X130482857Y-77143390D01*
X142073333Y-81226819D02*
X141740000Y-80750628D01*
X141501905Y-81226819D02*
X141501905Y-80226819D01*
X141501905Y-80226819D02*
X141882857Y-80226819D01*
X141882857Y-80226819D02*
X141978095Y-80274438D01*
X141978095Y-80274438D02*
X142025714Y-80322057D01*
X142025714Y-80322057D02*
X142073333Y-80417295D01*
X142073333Y-80417295D02*
X142073333Y-80560152D01*
X142073333Y-80560152D02*
X142025714Y-80655390D01*
X142025714Y-80655390D02*
X141978095Y-80703009D01*
X141978095Y-80703009D02*
X141882857Y-80750628D01*
X141882857Y-80750628D02*
X141501905Y-80750628D01*
X143025714Y-81226819D02*
X142454286Y-81226819D01*
X142740000Y-81226819D02*
X142740000Y-80226819D01*
X142740000Y-80226819D02*
X142644762Y-80369676D01*
X142644762Y-80369676D02*
X142549524Y-80464914D01*
X142549524Y-80464914D02*
X142454286Y-80512533D01*
X142105142Y-86560819D02*
X141771809Y-86084628D01*
X141533714Y-86560819D02*
X141533714Y-85560819D01*
X141533714Y-85560819D02*
X141914666Y-85560819D01*
X141914666Y-85560819D02*
X142009904Y-85608438D01*
X142009904Y-85608438D02*
X142057523Y-85656057D01*
X142057523Y-85656057D02*
X142105142Y-85751295D01*
X142105142Y-85751295D02*
X142105142Y-85894152D01*
X142105142Y-85894152D02*
X142057523Y-85989390D01*
X142057523Y-85989390D02*
X142009904Y-86037009D01*
X142009904Y-86037009D02*
X141914666Y-86084628D01*
X141914666Y-86084628D02*
X141533714Y-86084628D01*
X143057523Y-86560819D02*
X142486095Y-86560819D01*
X142771809Y-86560819D02*
X142771809Y-85560819D01*
X142771809Y-85560819D02*
X142676571Y-85703676D01*
X142676571Y-85703676D02*
X142581333Y-85798914D01*
X142581333Y-85798914D02*
X142486095Y-85846533D01*
X143438476Y-85656057D02*
X143486095Y-85608438D01*
X143486095Y-85608438D02*
X143581333Y-85560819D01*
X143581333Y-85560819D02*
X143819428Y-85560819D01*
X143819428Y-85560819D02*
X143914666Y-85608438D01*
X143914666Y-85608438D02*
X143962285Y-85656057D01*
X143962285Y-85656057D02*
X144009904Y-85751295D01*
X144009904Y-85751295D02*
X144009904Y-85846533D01*
X144009904Y-85846533D02*
X143962285Y-85989390D01*
X143962285Y-85989390D02*
X143390857Y-86560819D01*
X143390857Y-86560819D02*
X144009904Y-86560819D01*
X142105142Y-83004819D02*
X141771809Y-82528628D01*
X141533714Y-83004819D02*
X141533714Y-82004819D01*
X141533714Y-82004819D02*
X141914666Y-82004819D01*
X141914666Y-82004819D02*
X142009904Y-82052438D01*
X142009904Y-82052438D02*
X142057523Y-82100057D01*
X142057523Y-82100057D02*
X142105142Y-82195295D01*
X142105142Y-82195295D02*
X142105142Y-82338152D01*
X142105142Y-82338152D02*
X142057523Y-82433390D01*
X142057523Y-82433390D02*
X142009904Y-82481009D01*
X142009904Y-82481009D02*
X141914666Y-82528628D01*
X141914666Y-82528628D02*
X141533714Y-82528628D01*
X143057523Y-83004819D02*
X142486095Y-83004819D01*
X142771809Y-83004819D02*
X142771809Y-82004819D01*
X142771809Y-82004819D02*
X142676571Y-82147676D01*
X142676571Y-82147676D02*
X142581333Y-82242914D01*
X142581333Y-82242914D02*
X142486095Y-82290533D01*
X143914666Y-82338152D02*
X143914666Y-83004819D01*
X143676571Y-81957200D02*
X143438476Y-82671485D01*
X143438476Y-82671485D02*
X144057523Y-82671485D01*
X127764819Y-90412857D02*
X127288628Y-90746190D01*
X127764819Y-90984285D02*
X126764819Y-90984285D01*
X126764819Y-90984285D02*
X126764819Y-90603333D01*
X126764819Y-90603333D02*
X126812438Y-90508095D01*
X126812438Y-90508095D02*
X126860057Y-90460476D01*
X126860057Y-90460476D02*
X126955295Y-90412857D01*
X126955295Y-90412857D02*
X127098152Y-90412857D01*
X127098152Y-90412857D02*
X127193390Y-90460476D01*
X127193390Y-90460476D02*
X127241009Y-90508095D01*
X127241009Y-90508095D02*
X127288628Y-90603333D01*
X127288628Y-90603333D02*
X127288628Y-90984285D01*
X127764819Y-89460476D02*
X127764819Y-90031904D01*
X127764819Y-89746190D02*
X126764819Y-89746190D01*
X126764819Y-89746190D02*
X126907676Y-89841428D01*
X126907676Y-89841428D02*
X127002914Y-89936666D01*
X127002914Y-89936666D02*
X127050533Y-90031904D01*
X126764819Y-88555714D02*
X126764819Y-89031904D01*
X126764819Y-89031904D02*
X127241009Y-89079523D01*
X127241009Y-89079523D02*
X127193390Y-89031904D01*
X127193390Y-89031904D02*
X127145771Y-88936666D01*
X127145771Y-88936666D02*
X127145771Y-88698571D01*
X127145771Y-88698571D02*
X127193390Y-88603333D01*
X127193390Y-88603333D02*
X127241009Y-88555714D01*
X127241009Y-88555714D02*
X127336247Y-88508095D01*
X127336247Y-88508095D02*
X127574342Y-88508095D01*
X127574342Y-88508095D02*
X127669580Y-88555714D01*
X127669580Y-88555714D02*
X127717200Y-88603333D01*
X127717200Y-88603333D02*
X127764819Y-88698571D01*
X127764819Y-88698571D02*
X127764819Y-88936666D01*
X127764819Y-88936666D02*
X127717200Y-89031904D01*
X127717200Y-89031904D02*
X127669580Y-89079523D01*
X120071333Y-92418819D02*
X119738000Y-91942628D01*
X119499905Y-92418819D02*
X119499905Y-91418819D01*
X119499905Y-91418819D02*
X119880857Y-91418819D01*
X119880857Y-91418819D02*
X119976095Y-91466438D01*
X119976095Y-91466438D02*
X120023714Y-91514057D01*
X120023714Y-91514057D02*
X120071333Y-91609295D01*
X120071333Y-91609295D02*
X120071333Y-91752152D01*
X120071333Y-91752152D02*
X120023714Y-91847390D01*
X120023714Y-91847390D02*
X119976095Y-91895009D01*
X119976095Y-91895009D02*
X119880857Y-91942628D01*
X119880857Y-91942628D02*
X119499905Y-91942628D01*
X120642762Y-91847390D02*
X120547524Y-91799771D01*
X120547524Y-91799771D02*
X120499905Y-91752152D01*
X120499905Y-91752152D02*
X120452286Y-91656914D01*
X120452286Y-91656914D02*
X120452286Y-91609295D01*
X120452286Y-91609295D02*
X120499905Y-91514057D01*
X120499905Y-91514057D02*
X120547524Y-91466438D01*
X120547524Y-91466438D02*
X120642762Y-91418819D01*
X120642762Y-91418819D02*
X120833238Y-91418819D01*
X120833238Y-91418819D02*
X120928476Y-91466438D01*
X120928476Y-91466438D02*
X120976095Y-91514057D01*
X120976095Y-91514057D02*
X121023714Y-91609295D01*
X121023714Y-91609295D02*
X121023714Y-91656914D01*
X121023714Y-91656914D02*
X120976095Y-91752152D01*
X120976095Y-91752152D02*
X120928476Y-91799771D01*
X120928476Y-91799771D02*
X120833238Y-91847390D01*
X120833238Y-91847390D02*
X120642762Y-91847390D01*
X120642762Y-91847390D02*
X120547524Y-91895009D01*
X120547524Y-91895009D02*
X120499905Y-91942628D01*
X120499905Y-91942628D02*
X120452286Y-92037866D01*
X120452286Y-92037866D02*
X120452286Y-92228342D01*
X120452286Y-92228342D02*
X120499905Y-92323580D01*
X120499905Y-92323580D02*
X120547524Y-92371200D01*
X120547524Y-92371200D02*
X120642762Y-92418819D01*
X120642762Y-92418819D02*
X120833238Y-92418819D01*
X120833238Y-92418819D02*
X120928476Y-92371200D01*
X120928476Y-92371200D02*
X120976095Y-92323580D01*
X120976095Y-92323580D02*
X121023714Y-92228342D01*
X121023714Y-92228342D02*
X121023714Y-92037866D01*
X121023714Y-92037866D02*
X120976095Y-91942628D01*
X120976095Y-91942628D02*
X120928476Y-91895009D01*
X120928476Y-91895009D02*
X120833238Y-91847390D01*
X129263333Y-74464819D02*
X128930000Y-73988628D01*
X128691905Y-74464819D02*
X128691905Y-73464819D01*
X128691905Y-73464819D02*
X129072857Y-73464819D01*
X129072857Y-73464819D02*
X129168095Y-73512438D01*
X129168095Y-73512438D02*
X129215714Y-73560057D01*
X129215714Y-73560057D02*
X129263333Y-73655295D01*
X129263333Y-73655295D02*
X129263333Y-73798152D01*
X129263333Y-73798152D02*
X129215714Y-73893390D01*
X129215714Y-73893390D02*
X129168095Y-73941009D01*
X129168095Y-73941009D02*
X129072857Y-73988628D01*
X129072857Y-73988628D02*
X128691905Y-73988628D01*
X129739524Y-74464819D02*
X129930000Y-74464819D01*
X129930000Y-74464819D02*
X130025238Y-74417200D01*
X130025238Y-74417200D02*
X130072857Y-74369580D01*
X130072857Y-74369580D02*
X130168095Y-74226723D01*
X130168095Y-74226723D02*
X130215714Y-74036247D01*
X130215714Y-74036247D02*
X130215714Y-73655295D01*
X130215714Y-73655295D02*
X130168095Y-73560057D01*
X130168095Y-73560057D02*
X130120476Y-73512438D01*
X130120476Y-73512438D02*
X130025238Y-73464819D01*
X130025238Y-73464819D02*
X129834762Y-73464819D01*
X129834762Y-73464819D02*
X129739524Y-73512438D01*
X129739524Y-73512438D02*
X129691905Y-73560057D01*
X129691905Y-73560057D02*
X129644286Y-73655295D01*
X129644286Y-73655295D02*
X129644286Y-73893390D01*
X129644286Y-73893390D02*
X129691905Y-73988628D01*
X129691905Y-73988628D02*
X129739524Y-74036247D01*
X129739524Y-74036247D02*
X129834762Y-74083866D01*
X129834762Y-74083866D02*
X130025238Y-74083866D01*
X130025238Y-74083866D02*
X130120476Y-74036247D01*
X130120476Y-74036247D02*
X130168095Y-73988628D01*
X130168095Y-73988628D02*
X130215714Y-73893390D01*
X120018333Y-84684819D02*
X119685000Y-84208628D01*
X119446905Y-84684819D02*
X119446905Y-83684819D01*
X119446905Y-83684819D02*
X119827857Y-83684819D01*
X119827857Y-83684819D02*
X119923095Y-83732438D01*
X119923095Y-83732438D02*
X119970714Y-83780057D01*
X119970714Y-83780057D02*
X120018333Y-83875295D01*
X120018333Y-83875295D02*
X120018333Y-84018152D01*
X120018333Y-84018152D02*
X119970714Y-84113390D01*
X119970714Y-84113390D02*
X119923095Y-84161009D01*
X119923095Y-84161009D02*
X119827857Y-84208628D01*
X119827857Y-84208628D02*
X119446905Y-84208628D01*
X120875476Y-84018152D02*
X120875476Y-84684819D01*
X120637381Y-83637200D02*
X120399286Y-84351485D01*
X120399286Y-84351485D02*
X121018333Y-84351485D01*
X120018333Y-82974819D02*
X119685000Y-82498628D01*
X119446905Y-82974819D02*
X119446905Y-81974819D01*
X119446905Y-81974819D02*
X119827857Y-81974819D01*
X119827857Y-81974819D02*
X119923095Y-82022438D01*
X119923095Y-82022438D02*
X119970714Y-82070057D01*
X119970714Y-82070057D02*
X120018333Y-82165295D01*
X120018333Y-82165295D02*
X120018333Y-82308152D01*
X120018333Y-82308152D02*
X119970714Y-82403390D01*
X119970714Y-82403390D02*
X119923095Y-82451009D01*
X119923095Y-82451009D02*
X119827857Y-82498628D01*
X119827857Y-82498628D02*
X119446905Y-82498628D01*
X120351667Y-81974819D02*
X120970714Y-81974819D01*
X120970714Y-81974819D02*
X120637381Y-82355771D01*
X120637381Y-82355771D02*
X120780238Y-82355771D01*
X120780238Y-82355771D02*
X120875476Y-82403390D01*
X120875476Y-82403390D02*
X120923095Y-82451009D01*
X120923095Y-82451009D02*
X120970714Y-82546247D01*
X120970714Y-82546247D02*
X120970714Y-82784342D01*
X120970714Y-82784342D02*
X120923095Y-82879580D01*
X120923095Y-82879580D02*
X120875476Y-82927200D01*
X120875476Y-82927200D02*
X120780238Y-82974819D01*
X120780238Y-82974819D02*
X120494524Y-82974819D01*
X120494524Y-82974819D02*
X120399286Y-82927200D01*
X120399286Y-82927200D02*
X120351667Y-82879580D01*
X119950333Y-88704819D02*
X119617000Y-88228628D01*
X119378905Y-88704819D02*
X119378905Y-87704819D01*
X119378905Y-87704819D02*
X119759857Y-87704819D01*
X119759857Y-87704819D02*
X119855095Y-87752438D01*
X119855095Y-87752438D02*
X119902714Y-87800057D01*
X119902714Y-87800057D02*
X119950333Y-87895295D01*
X119950333Y-87895295D02*
X119950333Y-88038152D01*
X119950333Y-88038152D02*
X119902714Y-88133390D01*
X119902714Y-88133390D02*
X119855095Y-88181009D01*
X119855095Y-88181009D02*
X119759857Y-88228628D01*
X119759857Y-88228628D02*
X119378905Y-88228628D01*
X120807476Y-87704819D02*
X120617000Y-87704819D01*
X120617000Y-87704819D02*
X120521762Y-87752438D01*
X120521762Y-87752438D02*
X120474143Y-87800057D01*
X120474143Y-87800057D02*
X120378905Y-87942914D01*
X120378905Y-87942914D02*
X120331286Y-88133390D01*
X120331286Y-88133390D02*
X120331286Y-88514342D01*
X120331286Y-88514342D02*
X120378905Y-88609580D01*
X120378905Y-88609580D02*
X120426524Y-88657200D01*
X120426524Y-88657200D02*
X120521762Y-88704819D01*
X120521762Y-88704819D02*
X120712238Y-88704819D01*
X120712238Y-88704819D02*
X120807476Y-88657200D01*
X120807476Y-88657200D02*
X120855095Y-88609580D01*
X120855095Y-88609580D02*
X120902714Y-88514342D01*
X120902714Y-88514342D02*
X120902714Y-88276247D01*
X120902714Y-88276247D02*
X120855095Y-88181009D01*
X120855095Y-88181009D02*
X120807476Y-88133390D01*
X120807476Y-88133390D02*
X120712238Y-88085771D01*
X120712238Y-88085771D02*
X120521762Y-88085771D01*
X120521762Y-88085771D02*
X120426524Y-88133390D01*
X120426524Y-88133390D02*
X120378905Y-88181009D01*
X120378905Y-88181009D02*
X120331286Y-88276247D01*
X162560095Y-75448438D02*
X162464857Y-75400819D01*
X162464857Y-75400819D02*
X162322000Y-75400819D01*
X162322000Y-75400819D02*
X162179143Y-75448438D01*
X162179143Y-75448438D02*
X162083905Y-75543676D01*
X162083905Y-75543676D02*
X162036286Y-75638914D01*
X162036286Y-75638914D02*
X161988667Y-75829390D01*
X161988667Y-75829390D02*
X161988667Y-75972247D01*
X161988667Y-75972247D02*
X162036286Y-76162723D01*
X162036286Y-76162723D02*
X162083905Y-76257961D01*
X162083905Y-76257961D02*
X162179143Y-76353200D01*
X162179143Y-76353200D02*
X162322000Y-76400819D01*
X162322000Y-76400819D02*
X162417238Y-76400819D01*
X162417238Y-76400819D02*
X162560095Y-76353200D01*
X162560095Y-76353200D02*
X162607714Y-76305580D01*
X162607714Y-76305580D02*
X162607714Y-75972247D01*
X162607714Y-75972247D02*
X162417238Y-75972247D01*
X163036286Y-76400819D02*
X163036286Y-75400819D01*
X163036286Y-75400819D02*
X163607714Y-76400819D01*
X163607714Y-76400819D02*
X163607714Y-75400819D01*
X164083905Y-76400819D02*
X164083905Y-75400819D01*
X164083905Y-75400819D02*
X164322000Y-75400819D01*
X164322000Y-75400819D02*
X164464857Y-75448438D01*
X164464857Y-75448438D02*
X164560095Y-75543676D01*
X164560095Y-75543676D02*
X164607714Y-75638914D01*
X164607714Y-75638914D02*
X164655333Y-75829390D01*
X164655333Y-75829390D02*
X164655333Y-75972247D01*
X164655333Y-75972247D02*
X164607714Y-76162723D01*
X164607714Y-76162723D02*
X164560095Y-76257961D01*
X164560095Y-76257961D02*
X164464857Y-76353200D01*
X164464857Y-76353200D02*
X164322000Y-76400819D01*
X164322000Y-76400819D02*
X164083905Y-76400819D01*
X140073142Y-91640819D02*
X139739809Y-91164628D01*
X139501714Y-91640819D02*
X139501714Y-90640819D01*
X139501714Y-90640819D02*
X139882666Y-90640819D01*
X139882666Y-90640819D02*
X139977904Y-90688438D01*
X139977904Y-90688438D02*
X140025523Y-90736057D01*
X140025523Y-90736057D02*
X140073142Y-90831295D01*
X140073142Y-90831295D02*
X140073142Y-90974152D01*
X140073142Y-90974152D02*
X140025523Y-91069390D01*
X140025523Y-91069390D02*
X139977904Y-91117009D01*
X139977904Y-91117009D02*
X139882666Y-91164628D01*
X139882666Y-91164628D02*
X139501714Y-91164628D01*
X141025523Y-91640819D02*
X140454095Y-91640819D01*
X140739809Y-91640819D02*
X140739809Y-90640819D01*
X140739809Y-90640819D02*
X140644571Y-90783676D01*
X140644571Y-90783676D02*
X140549333Y-90878914D01*
X140549333Y-90878914D02*
X140454095Y-90926533D01*
X141882666Y-90640819D02*
X141692190Y-90640819D01*
X141692190Y-90640819D02*
X141596952Y-90688438D01*
X141596952Y-90688438D02*
X141549333Y-90736057D01*
X141549333Y-90736057D02*
X141454095Y-90878914D01*
X141454095Y-90878914D02*
X141406476Y-91069390D01*
X141406476Y-91069390D02*
X141406476Y-91450342D01*
X141406476Y-91450342D02*
X141454095Y-91545580D01*
X141454095Y-91545580D02*
X141501714Y-91593200D01*
X141501714Y-91593200D02*
X141596952Y-91640819D01*
X141596952Y-91640819D02*
X141787428Y-91640819D01*
X141787428Y-91640819D02*
X141882666Y-91593200D01*
X141882666Y-91593200D02*
X141930285Y-91545580D01*
X141930285Y-91545580D02*
X141977904Y-91450342D01*
X141977904Y-91450342D02*
X141977904Y-91212247D01*
X141977904Y-91212247D02*
X141930285Y-91117009D01*
X141930285Y-91117009D02*
X141882666Y-91069390D01*
X141882666Y-91069390D02*
X141787428Y-91021771D01*
X141787428Y-91021771D02*
X141596952Y-91021771D01*
X141596952Y-91021771D02*
X141501714Y-91069390D01*
X141501714Y-91069390D02*
X141454095Y-91117009D01*
X141454095Y-91117009D02*
X141406476Y-91212247D01*
X119960333Y-90600819D02*
X119627000Y-90124628D01*
X119388905Y-90600819D02*
X119388905Y-89600819D01*
X119388905Y-89600819D02*
X119769857Y-89600819D01*
X119769857Y-89600819D02*
X119865095Y-89648438D01*
X119865095Y-89648438D02*
X119912714Y-89696057D01*
X119912714Y-89696057D02*
X119960333Y-89791295D01*
X119960333Y-89791295D02*
X119960333Y-89934152D01*
X119960333Y-89934152D02*
X119912714Y-90029390D01*
X119912714Y-90029390D02*
X119865095Y-90077009D01*
X119865095Y-90077009D02*
X119769857Y-90124628D01*
X119769857Y-90124628D02*
X119388905Y-90124628D01*
X120293667Y-89600819D02*
X120960333Y-89600819D01*
X120960333Y-89600819D02*
X120531762Y-90600819D01*
X142105142Y-84782819D02*
X141771809Y-84306628D01*
X141533714Y-84782819D02*
X141533714Y-83782819D01*
X141533714Y-83782819D02*
X141914666Y-83782819D01*
X141914666Y-83782819D02*
X142009904Y-83830438D01*
X142009904Y-83830438D02*
X142057523Y-83878057D01*
X142057523Y-83878057D02*
X142105142Y-83973295D01*
X142105142Y-83973295D02*
X142105142Y-84116152D01*
X142105142Y-84116152D02*
X142057523Y-84211390D01*
X142057523Y-84211390D02*
X142009904Y-84259009D01*
X142009904Y-84259009D02*
X141914666Y-84306628D01*
X141914666Y-84306628D02*
X141533714Y-84306628D01*
X143057523Y-84782819D02*
X142486095Y-84782819D01*
X142771809Y-84782819D02*
X142771809Y-83782819D01*
X142771809Y-83782819D02*
X142676571Y-83925676D01*
X142676571Y-83925676D02*
X142581333Y-84020914D01*
X142581333Y-84020914D02*
X142486095Y-84068533D01*
X143390857Y-83782819D02*
X144009904Y-83782819D01*
X144009904Y-83782819D02*
X143676571Y-84163771D01*
X143676571Y-84163771D02*
X143819428Y-84163771D01*
X143819428Y-84163771D02*
X143914666Y-84211390D01*
X143914666Y-84211390D02*
X143962285Y-84259009D01*
X143962285Y-84259009D02*
X144009904Y-84354247D01*
X144009904Y-84354247D02*
X144009904Y-84592342D01*
X144009904Y-84592342D02*
X143962285Y-84687580D01*
X143962285Y-84687580D02*
X143914666Y-84735200D01*
X143914666Y-84735200D02*
X143819428Y-84782819D01*
X143819428Y-84782819D02*
X143533714Y-84782819D01*
X143533714Y-84782819D02*
X143438476Y-84735200D01*
X143438476Y-84735200D02*
X143390857Y-84687580D01*
X159337524Y-75400819D02*
X159956571Y-75400819D01*
X159956571Y-75400819D02*
X159623238Y-75781771D01*
X159623238Y-75781771D02*
X159766095Y-75781771D01*
X159766095Y-75781771D02*
X159861333Y-75829390D01*
X159861333Y-75829390D02*
X159908952Y-75877009D01*
X159908952Y-75877009D02*
X159956571Y-75972247D01*
X159956571Y-75972247D02*
X159956571Y-76210342D01*
X159956571Y-76210342D02*
X159908952Y-76305580D01*
X159908952Y-76305580D02*
X159861333Y-76353200D01*
X159861333Y-76353200D02*
X159766095Y-76400819D01*
X159766095Y-76400819D02*
X159480381Y-76400819D01*
X159480381Y-76400819D02*
X159385143Y-76353200D01*
X159385143Y-76353200D02*
X159337524Y-76305580D01*
X160289905Y-75734152D02*
X160528000Y-76400819D01*
X160528000Y-76400819D02*
X160766095Y-75734152D01*
X161051810Y-75400819D02*
X161670857Y-75400819D01*
X161670857Y-75400819D02*
X161337524Y-75781771D01*
X161337524Y-75781771D02*
X161480381Y-75781771D01*
X161480381Y-75781771D02*
X161575619Y-75829390D01*
X161575619Y-75829390D02*
X161623238Y-75877009D01*
X161623238Y-75877009D02*
X161670857Y-75972247D01*
X161670857Y-75972247D02*
X161670857Y-76210342D01*
X161670857Y-76210342D02*
X161623238Y-76305580D01*
X161623238Y-76305580D02*
X161575619Y-76353200D01*
X161575619Y-76353200D02*
X161480381Y-76400819D01*
X161480381Y-76400819D02*
X161194667Y-76400819D01*
X161194667Y-76400819D02*
X161099429Y-76353200D01*
X161099429Y-76353200D02*
X161051810Y-76305580D01*
X142105142Y-88846819D02*
X141771809Y-88370628D01*
X141533714Y-88846819D02*
X141533714Y-87846819D01*
X141533714Y-87846819D02*
X141914666Y-87846819D01*
X141914666Y-87846819D02*
X142009904Y-87894438D01*
X142009904Y-87894438D02*
X142057523Y-87942057D01*
X142057523Y-87942057D02*
X142105142Y-88037295D01*
X142105142Y-88037295D02*
X142105142Y-88180152D01*
X142105142Y-88180152D02*
X142057523Y-88275390D01*
X142057523Y-88275390D02*
X142009904Y-88323009D01*
X142009904Y-88323009D02*
X141914666Y-88370628D01*
X141914666Y-88370628D02*
X141533714Y-88370628D01*
X143057523Y-88846819D02*
X142486095Y-88846819D01*
X142771809Y-88846819D02*
X142771809Y-87846819D01*
X142771809Y-87846819D02*
X142676571Y-87989676D01*
X142676571Y-87989676D02*
X142581333Y-88084914D01*
X142581333Y-88084914D02*
X142486095Y-88132533D01*
X144009904Y-88846819D02*
X143438476Y-88846819D01*
X143724190Y-88846819D02*
X143724190Y-87846819D01*
X143724190Y-87846819D02*
X143628952Y-87989676D01*
X143628952Y-87989676D02*
X143533714Y-88084914D01*
X143533714Y-88084914D02*
X143438476Y-88132533D01*
X119928333Y-86744819D02*
X119595000Y-86268628D01*
X119356905Y-86744819D02*
X119356905Y-85744819D01*
X119356905Y-85744819D02*
X119737857Y-85744819D01*
X119737857Y-85744819D02*
X119833095Y-85792438D01*
X119833095Y-85792438D02*
X119880714Y-85840057D01*
X119880714Y-85840057D02*
X119928333Y-85935295D01*
X119928333Y-85935295D02*
X119928333Y-86078152D01*
X119928333Y-86078152D02*
X119880714Y-86173390D01*
X119880714Y-86173390D02*
X119833095Y-86221009D01*
X119833095Y-86221009D02*
X119737857Y-86268628D01*
X119737857Y-86268628D02*
X119356905Y-86268628D01*
X120833095Y-85744819D02*
X120356905Y-85744819D01*
X120356905Y-85744819D02*
X120309286Y-86221009D01*
X120309286Y-86221009D02*
X120356905Y-86173390D01*
X120356905Y-86173390D02*
X120452143Y-86125771D01*
X120452143Y-86125771D02*
X120690238Y-86125771D01*
X120690238Y-86125771D02*
X120785476Y-86173390D01*
X120785476Y-86173390D02*
X120833095Y-86221009D01*
X120833095Y-86221009D02*
X120880714Y-86316247D01*
X120880714Y-86316247D02*
X120880714Y-86554342D01*
X120880714Y-86554342D02*
X120833095Y-86649580D01*
X120833095Y-86649580D02*
X120785476Y-86697200D01*
X120785476Y-86697200D02*
X120690238Y-86744819D01*
X120690238Y-86744819D02*
X120452143Y-86744819D01*
X120452143Y-86744819D02*
X120356905Y-86697200D01*
X120356905Y-86697200D02*
X120309286Y-86649580D01*
X180256666Y-105959819D02*
X180256666Y-106674104D01*
X180256666Y-106674104D02*
X180209047Y-106816961D01*
X180209047Y-106816961D02*
X180113809Y-106912200D01*
X180113809Y-106912200D02*
X179970952Y-106959819D01*
X179970952Y-106959819D02*
X179875714Y-106959819D01*
X180685238Y-106055057D02*
X180732857Y-106007438D01*
X180732857Y-106007438D02*
X180828095Y-105959819D01*
X180828095Y-105959819D02*
X181066190Y-105959819D01*
X181066190Y-105959819D02*
X181161428Y-106007438D01*
X181161428Y-106007438D02*
X181209047Y-106055057D01*
X181209047Y-106055057D02*
X181256666Y-106150295D01*
X181256666Y-106150295D02*
X181256666Y-106245533D01*
X181256666Y-106245533D02*
X181209047Y-106388390D01*
X181209047Y-106388390D02*
X180637619Y-106959819D01*
X180637619Y-106959819D02*
X181256666Y-106959819D01*
X156964095Y-76400819D02*
X156964095Y-75400819D01*
X156964095Y-75400819D02*
X157202190Y-75400819D01*
X157202190Y-75400819D02*
X157345047Y-75448438D01*
X157345047Y-75448438D02*
X157440285Y-75543676D01*
X157440285Y-75543676D02*
X157487904Y-75638914D01*
X157487904Y-75638914D02*
X157535523Y-75829390D01*
X157535523Y-75829390D02*
X157535523Y-75972247D01*
X157535523Y-75972247D02*
X157487904Y-76162723D01*
X157487904Y-76162723D02*
X157440285Y-76257961D01*
X157440285Y-76257961D02*
X157345047Y-76353200D01*
X157345047Y-76353200D02*
X157202190Y-76400819D01*
X157202190Y-76400819D02*
X156964095Y-76400819D01*
X119975333Y-81226819D02*
X119642000Y-80750628D01*
X119403905Y-81226819D02*
X119403905Y-80226819D01*
X119403905Y-80226819D02*
X119784857Y-80226819D01*
X119784857Y-80226819D02*
X119880095Y-80274438D01*
X119880095Y-80274438D02*
X119927714Y-80322057D01*
X119927714Y-80322057D02*
X119975333Y-80417295D01*
X119975333Y-80417295D02*
X119975333Y-80560152D01*
X119975333Y-80560152D02*
X119927714Y-80655390D01*
X119927714Y-80655390D02*
X119880095Y-80703009D01*
X119880095Y-80703009D02*
X119784857Y-80750628D01*
X119784857Y-80750628D02*
X119403905Y-80750628D01*
X120356286Y-80322057D02*
X120403905Y-80274438D01*
X120403905Y-80274438D02*
X120499143Y-80226819D01*
X120499143Y-80226819D02*
X120737238Y-80226819D01*
X120737238Y-80226819D02*
X120832476Y-80274438D01*
X120832476Y-80274438D02*
X120880095Y-80322057D01*
X120880095Y-80322057D02*
X120927714Y-80417295D01*
X120927714Y-80417295D02*
X120927714Y-80512533D01*
X120927714Y-80512533D02*
X120880095Y-80655390D01*
X120880095Y-80655390D02*
X120308667Y-81226819D01*
X120308667Y-81226819D02*
X120927714Y-81226819D01*
D11*
%TO.C,J3*%
X160926000Y-97471992D02*
X162855960Y-97471992D01*
X164796039Y-97471992D02*
X166226000Y-97471992D01*
X166226000Y-97471992D02*
X166226000Y-89472008D01*
X160926000Y-94942041D02*
X160926000Y-97471992D01*
X160926000Y-89472008D02*
X160926000Y-92001959D01*
X162855960Y-89472008D02*
X160926000Y-89472008D01*
X166226000Y-89472008D02*
X164796039Y-89472008D01*
%TO.C,J4*%
X127650010Y-92930001D02*
X127650010Y-94859961D01*
X127650010Y-96800040D02*
X127650010Y-98230001D01*
X127650010Y-98230001D02*
X135649994Y-98230001D01*
X130179961Y-92930001D02*
X127650010Y-92930001D01*
X135649994Y-92930001D02*
X133120043Y-92930001D01*
X135649994Y-94859961D02*
X135649994Y-92930001D01*
X135649994Y-98230001D02*
X135649994Y-96800040D01*
D12*
%TO.C,C1*%
X131974420Y-89990000D02*
X132255580Y-89990000D01*
X131974420Y-91010000D02*
X132255580Y-91010000D01*
%TO.C,U1*%
G36*
X137479801Y-82800500D02*
G01*
X137225801Y-82800500D01*
X137225801Y-82419500D01*
X137479801Y-82419500D01*
X137479801Y-82800500D01*
G37*
G36*
X127806597Y-83450499D02*
G01*
X127552597Y-83450499D01*
X127552597Y-83069499D01*
X127806597Y-83069499D01*
X127806597Y-83450499D01*
G37*
D11*
X135443198Y-87012001D02*
X135443198Y-86408641D01*
X135443198Y-76861361D02*
X135443198Y-76258001D01*
X135443198Y-76258001D02*
X129589200Y-76258001D01*
X129589200Y-87012001D02*
X135443198Y-87012001D01*
X129589200Y-86408639D02*
X129589200Y-87012001D01*
X129589200Y-76258001D02*
X129589200Y-76861361D01*
D12*
%TO.C,R1*%
X139462742Y-80249500D02*
X139937258Y-80249500D01*
X139462742Y-81294500D02*
X139937258Y-81294500D01*
%TO.C,R12*%
X139462742Y-85583500D02*
X139937258Y-85583500D01*
X139462742Y-86628500D02*
X139937258Y-86628500D01*
%TO.C,R14*%
X139462742Y-82027500D02*
X139937258Y-82027500D01*
X139462742Y-83072500D02*
X139937258Y-83072500D01*
%TO.C,R15*%
X128217500Y-90007258D02*
X128217500Y-89532742D01*
X129262500Y-90007258D02*
X129262500Y-89532742D01*
%TO.C,R8*%
X122444742Y-91407500D02*
X122919258Y-91407500D01*
X122444742Y-92452500D02*
X122919258Y-92452500D01*
%TO.C,TP4*%
X147512000Y-97282000D02*
G75*
G03*
X146112000Y-97282000I-700000J0D01*
G01*
X146112000Y-97282000D02*
G75*
G03*
X147512000Y-97282000I700000J0D01*
G01*
%TO.C,R9*%
X132317258Y-74944500D02*
X131842742Y-74944500D01*
X132317258Y-73899500D02*
X131842742Y-73899500D01*
%TO.C,J1*%
X145161000Y-75498000D02*
X151571000Y-75498000D01*
X145161000Y-75498000D02*
X145161000Y-74928000D01*
X151571000Y-75498000D02*
X151571000Y-74475530D01*
X143766000Y-74168000D02*
X143766000Y-72838000D01*
X151571000Y-73860470D02*
X151571000Y-72838000D01*
X145161000Y-73408000D02*
X145161000Y-72838000D01*
X143766000Y-72838000D02*
X144526000Y-72838000D01*
X145161000Y-72838000D02*
X151571000Y-72838000D01*
%TO.C,R4*%
X122487742Y-83707500D02*
X122962258Y-83707500D01*
X122487742Y-84752500D02*
X122962258Y-84752500D01*
%TO.C,R3*%
X122487742Y-81997500D02*
X122962258Y-81997500D01*
X122487742Y-83042500D02*
X122962258Y-83042500D01*
%TO.C,R6*%
X122427742Y-87777500D02*
X122902258Y-87777500D01*
X122427742Y-88822500D02*
X122902258Y-88822500D01*
%TO.C,GND*%
X164022000Y-74168000D02*
G75*
G03*
X162622000Y-74168000I-700000J0D01*
G01*
X162622000Y-74168000D02*
G75*
G03*
X164022000Y-74168000I700000J0D01*
G01*
%TO.C,R16*%
X138161500Y-92185258D02*
X138161500Y-91710742D01*
X139206500Y-92185258D02*
X139206500Y-91710742D01*
%TO.C,R7*%
X122382742Y-89627500D02*
X122857258Y-89627500D01*
X122382742Y-90672500D02*
X122857258Y-90672500D01*
%TO.C,R13*%
X139462742Y-83805500D02*
X139937258Y-83805500D01*
X139462742Y-84850500D02*
X139937258Y-84850500D01*
%TO.C,3v3*%
X161228000Y-74168000D02*
G75*
G03*
X159828000Y-74168000I-700000J0D01*
G01*
X159828000Y-74168000D02*
G75*
G03*
X161228000Y-74168000I700000J0D01*
G01*
%TO.C,R11*%
X139462742Y-87869500D02*
X139937258Y-87869500D01*
X139462742Y-88914500D02*
X139937258Y-88914500D01*
%TO.C,R5*%
X122397742Y-85767500D02*
X122872258Y-85767500D01*
X122397742Y-86812500D02*
X122872258Y-86812500D01*
%TO.C,J2*%
X179260000Y-109275000D02*
X179260000Y-115685000D01*
X179260000Y-109275000D02*
X179830000Y-109275000D01*
X179260000Y-115685000D02*
X180282470Y-115685000D01*
X180590000Y-107880000D02*
X181920000Y-107880000D01*
X180897530Y-115685000D02*
X181920000Y-115685000D01*
X181350000Y-109275000D02*
X181920000Y-109275000D01*
X181920000Y-107880000D02*
X181920000Y-108640000D01*
X181920000Y-109275000D02*
X181920000Y-115685000D01*
%TO.C,D*%
X157926000Y-74168000D02*
G75*
G03*
X156526000Y-74168000I-700000J0D01*
G01*
X156526000Y-74168000D02*
G75*
G03*
X157926000Y-74168000I700000J0D01*
G01*
%TO.C,TP5*%
X150306000Y-97282000D02*
G75*
G03*
X148906000Y-97282000I-700000J0D01*
G01*
X148906000Y-97282000D02*
G75*
G03*
X150306000Y-97282000I700000J0D01*
G01*
%TO.C,R2*%
X122444742Y-80249500D02*
X122919258Y-80249500D01*
X122444742Y-81294500D02*
X122919258Y-81294500D01*
%TD*%
M02*
