%TF.GenerationSoftware,KiCad,Pcbnew,7.0.10*%
%TF.CreationDate,2024-02-20T20:24:08-05:00*%
%TF.ProjectId,GBoyGcPlus,47426f79-4763-4506-9c75-732e6b696361,rev?*%
%TF.SameCoordinates,Original*%
%TF.FileFunction,Paste,Top*%
%TF.FilePolarity,Positive*%
%FSLAX46Y46*%
G04 Gerber Fmt 4.6, Leading zero omitted, Abs format (unit mm)*
G04 Created by KiCad (PCBNEW 7.0.10) date 2024-02-20 20:24:08*
%MOMM*%
%LPD*%
G01*
G04 APERTURE LIST*
G04 Aperture macros list*
%AMRoundRect*
0 Rectangle with rounded corners*
0 $1 Rounding radius*
0 $2 $3 $4 $5 $6 $7 $8 $9 X,Y pos of 4 corners*
0 Add a 4 corners polygon primitive as box body*
4,1,4,$2,$3,$4,$5,$6,$7,$8,$9,$2,$3,0*
0 Add four circle primitives for the rounded corners*
1,1,$1+$1,$2,$3*
1,1,$1+$1,$4,$5*
1,1,$1+$1,$6,$7*
1,1,$1+$1,$8,$9*
0 Add four rect primitives between the rounded corners*
20,1,$1+$1,$2,$3,$4,$5,0*
20,1,$1+$1,$4,$5,$6,$7,0*
20,1,$1+$1,$6,$7,$8,$9,0*
20,1,$1+$1,$8,$9,$2,$3,0*%
G04 Aperture macros list end*
%ADD10R,1.000000X0.300000*%
%ADD11R,1.300000X2.000000*%
%ADD12R,0.300000X1.000000*%
%ADD13R,2.000000X1.300000*%
%ADD14RoundRect,0.225000X-0.225000X-0.250000X0.225000X-0.250000X0.225000X0.250000X-0.225000X0.250000X0*%
%ADD15R,1.655601X0.431800*%
%ADD16RoundRect,0.200000X-0.200000X-0.275000X0.200000X-0.275000X0.200000X0.275000X-0.200000X0.275000X0*%
%ADD17RoundRect,0.200000X0.275000X-0.200000X0.275000X0.200000X-0.275000X0.200000X-0.275000X-0.200000X0*%
%ADD18RoundRect,0.200000X0.200000X0.275000X-0.200000X0.275000X-0.200000X-0.275000X0.200000X-0.275000X0*%
G04 APERTURE END LIST*
D10*
%TO.C,J3*%
X161126000Y-94472001D03*
X161126000Y-93971999D03*
X161126000Y-93472000D03*
X161126000Y-92972001D03*
X161126000Y-92471999D03*
D11*
X163825999Y-96771998D03*
X163825999Y-90172002D03*
%TD*%
D12*
%TO.C,J4*%
X130650001Y-93130001D03*
X131150003Y-93130001D03*
X131650002Y-93130001D03*
X132150001Y-93130001D03*
X132650003Y-93130001D03*
D13*
X128350004Y-95830000D03*
X134950000Y-95830000D03*
%TD*%
D14*
%TO.C,C1*%
X131340000Y-90500000D03*
X132890000Y-90500000D03*
%TD*%
D15*
%TO.C,U1*%
X136144000Y-77410001D03*
X136144000Y-78060002D03*
X136144000Y-78710001D03*
X136144000Y-79360002D03*
X136144000Y-80010000D03*
X136144000Y-80660002D03*
X136144000Y-81310000D03*
X136144000Y-81960002D03*
X136144000Y-82610000D03*
X136144000Y-83260002D03*
X136144000Y-83910000D03*
X136144000Y-84560001D03*
X136144000Y-85210000D03*
X136144000Y-85860001D03*
X128888398Y-85859999D03*
X128888398Y-85210000D03*
X128888398Y-84559999D03*
X128888398Y-83910000D03*
X128888398Y-83259999D03*
X128888398Y-82610000D03*
X128888398Y-81959999D03*
X128888398Y-81310000D03*
X128888398Y-80660002D03*
X128888398Y-80010000D03*
X128888398Y-79360002D03*
X128888398Y-78710001D03*
X128888398Y-78060002D03*
X128888398Y-77410001D03*
%TD*%
D16*
%TO.C,R1*%
X138875000Y-80772000D03*
X140525000Y-80772000D03*
%TD*%
%TO.C,R12*%
X138875000Y-86106000D03*
X140525000Y-86106000D03*
%TD*%
%TO.C,R14*%
X138875000Y-82550000D03*
X140525000Y-82550000D03*
%TD*%
D17*
%TO.C,R15*%
X128740000Y-90595000D03*
X128740000Y-88945000D03*
%TD*%
D16*
%TO.C,R8*%
X121857000Y-91930000D03*
X123507000Y-91930000D03*
%TD*%
D18*
%TO.C,R9*%
X132905000Y-74422000D03*
X131255000Y-74422000D03*
%TD*%
D16*
%TO.C,R4*%
X121900000Y-84230000D03*
X123550000Y-84230000D03*
%TD*%
%TO.C,R3*%
X121900000Y-82520000D03*
X123550000Y-82520000D03*
%TD*%
%TO.C,R6*%
X121840000Y-88300000D03*
X123490000Y-88300000D03*
%TD*%
D17*
%TO.C,R16*%
X138684000Y-92773000D03*
X138684000Y-91123000D03*
%TD*%
D16*
%TO.C,R7*%
X121795000Y-90150000D03*
X123445000Y-90150000D03*
%TD*%
%TO.C,R13*%
X138875000Y-84328000D03*
X140525000Y-84328000D03*
%TD*%
%TO.C,R11*%
X138875000Y-88392000D03*
X140525000Y-88392000D03*
%TD*%
%TO.C,R5*%
X121810000Y-86290000D03*
X123460000Y-86290000D03*
%TD*%
%TO.C,R2*%
X121857000Y-80772000D03*
X123507000Y-80772000D03*
%TD*%
M02*
