%TF.GenerationSoftware,KiCad,Pcbnew,7.0.10*%
%TF.CreationDate,2024-02-20T20:24:08-05:00*%
%TF.ProjectId,GBoyGcPlus,47426f79-4763-4506-9c75-732e6b696361,rev?*%
%TF.SameCoordinates,Original*%
%TF.FileFunction,Copper,L1,Top*%
%TF.FilePolarity,Positive*%
%FSLAX46Y46*%
G04 Gerber Fmt 4.6, Leading zero omitted, Abs format (unit mm)*
G04 Created by KiCad (PCBNEW 7.0.10) date 2024-02-20 20:24:08*
%MOMM*%
%LPD*%
G01*
G04 APERTURE LIST*
G04 Aperture macros list*
%AMRoundRect*
0 Rectangle with rounded corners*
0 $1 Rounding radius*
0 $2 $3 $4 $5 $6 $7 $8 $9 X,Y pos of 4 corners*
0 Add a 4 corners polygon primitive as box body*
4,1,4,$2,$3,$4,$5,$6,$7,$8,$9,$2,$3,0*
0 Add four circle primitives for the rounded corners*
1,1,$1+$1,$2,$3*
1,1,$1+$1,$4,$5*
1,1,$1+$1,$6,$7*
1,1,$1+$1,$8,$9*
0 Add four rect primitives between the rounded corners*
20,1,$1+$1,$2,$3,$4,$5,0*
20,1,$1+$1,$4,$5,$6,$7,0*
20,1,$1+$1,$6,$7,$8,$9,0*
20,1,$1+$1,$8,$9,$2,$3,0*%
G04 Aperture macros list end*
%TA.AperFunction,SMDPad,CuDef*%
%ADD10R,1.000000X0.300000*%
%TD*%
%TA.AperFunction,SMDPad,CuDef*%
%ADD11R,1.300000X2.000000*%
%TD*%
%TA.AperFunction,SMDPad,CuDef*%
%ADD12R,0.300000X1.000000*%
%TD*%
%TA.AperFunction,SMDPad,CuDef*%
%ADD13R,2.000000X1.300000*%
%TD*%
%TA.AperFunction,SMDPad,CuDef*%
%ADD14RoundRect,0.225000X-0.225000X-0.250000X0.225000X-0.250000X0.225000X0.250000X-0.225000X0.250000X0*%
%TD*%
%TA.AperFunction,SMDPad,CuDef*%
%ADD15R,1.655601X0.431800*%
%TD*%
%TA.AperFunction,SMDPad,CuDef*%
%ADD16RoundRect,0.200000X-0.200000X-0.275000X0.200000X-0.275000X0.200000X0.275000X-0.200000X0.275000X0*%
%TD*%
%TA.AperFunction,SMDPad,CuDef*%
%ADD17RoundRect,0.200000X0.275000X-0.200000X0.275000X0.200000X-0.275000X0.200000X-0.275000X-0.200000X0*%
%TD*%
%TA.AperFunction,SMDPad,CuDef*%
%ADD18C,1.000000*%
%TD*%
%TA.AperFunction,SMDPad,CuDef*%
%ADD19RoundRect,0.200000X0.200000X0.275000X-0.200000X0.275000X-0.200000X-0.275000X0.200000X-0.275000X0*%
%TD*%
%TA.AperFunction,ComponentPad*%
%ADD20R,1.000000X1.000000*%
%TD*%
%TA.AperFunction,ComponentPad*%
%ADD21O,1.000000X1.000000*%
%TD*%
%TA.AperFunction,ViaPad*%
%ADD22C,0.550000*%
%TD*%
%TA.AperFunction,ViaPad*%
%ADD23C,0.600000*%
%TD*%
%TA.AperFunction,Conductor*%
%ADD24C,0.250000*%
%TD*%
%TA.AperFunction,Conductor*%
%ADD25C,0.300000*%
%TD*%
%TA.AperFunction,Conductor*%
%ADD26C,0.200000*%
%TD*%
G04 APERTURE END LIST*
D10*
%TO.P,J3,1,1*%
%TO.N,+3V3*%
X161126000Y-94472001D03*
%TO.P,J3,2,2*%
%TO.N,/SY*%
X161126000Y-93971999D03*
%TO.P,J3,3,3*%
%TO.N,unconnected-(J3-Pad3)*%
X161126000Y-93472000D03*
%TO.P,J3,4,4*%
%TO.N,GND*%
X161126000Y-92972001D03*
%TO.P,J3,5,5*%
%TO.N,/SX*%
X161126000Y-92471999D03*
D11*
%TO.P,J3,P1,P1*%
%TO.N,unconnected-(J3-PadP1)*%
X163825999Y-96771998D03*
%TO.P,J3,P2,P2*%
%TO.N,unconnected-(J3-PadP2)*%
X163825999Y-90172002D03*
%TD*%
D12*
%TO.P,J4,1,1*%
%TO.N,+3V3*%
X130650001Y-93130001D03*
%TO.P,J4,2,2*%
%TO.N,/CY*%
X131150003Y-93130001D03*
%TO.P,J4,3,3*%
%TO.N,unconnected-(J4-Pad3)*%
X131650002Y-93130001D03*
%TO.P,J4,4,4*%
%TO.N,GND*%
X132150001Y-93130001D03*
%TO.P,J4,5,5*%
%TO.N,/CX*%
X132650003Y-93130001D03*
D13*
%TO.P,J4,P1,P1*%
%TO.N,unconnected-(J4-PadP1)*%
X128350004Y-95830000D03*
%TO.P,J4,P2,P2*%
%TO.N,unconnected-(J4-PadP2)*%
X134950000Y-95830000D03*
%TD*%
D14*
%TO.P,C1,1*%
%TO.N,GND*%
X131340000Y-90500000D03*
%TO.P,C1,2*%
%TO.N,+3V3*%
X132890000Y-90500000D03*
%TD*%
D15*
%TO.P,U1,28,RB7*%
%TO.N,/PGD*%
X136144000Y-77410001D03*
%TO.P,U1,27,RB6*%
%TO.N,/PGC*%
X136144000Y-78060002D03*
%TO.P,U1,26,RB5*%
%TO.N,unconnected-(U1-RB5-Pad26)*%
X136144000Y-78710001D03*
%TO.P,U1,25,RB4*%
%TO.N,unconnected-(U1-RB4-Pad25)*%
X136144000Y-79360002D03*
%TO.P,U1,24,RB3*%
%TO.N,unconnected-(U1-RB3-Pad24)*%
X136144000Y-80010000D03*
%TO.P,U1,23,RB2*%
%TO.N,Net-(U1-RB2)*%
X136144000Y-80660002D03*
%TO.P,U1,22,RB1*%
%TO.N,/DL*%
X136144000Y-81310000D03*
%TO.P,U1,21,RB0*%
%TO.N,/DR*%
X136144000Y-81960002D03*
%TO.P,U1,20,VDD*%
%TO.N,+3V3*%
X136144000Y-82610000D03*
%TO.P,U1,19,VSS*%
%TO.N,GND*%
X136144000Y-83260002D03*
%TO.P,U1,18,RC7*%
%TO.N,/DD*%
X136144000Y-83910000D03*
%TO.P,U1,17,RC6*%
%TO.N,/DU*%
X136144000Y-84560001D03*
%TO.P,U1,16,RC5*%
%TO.N,/LT*%
X136144000Y-85210000D03*
%TO.P,U1,15,RC4*%
%TO.N,/L*%
X136144000Y-85860001D03*
%TO.P,U1,14,RC3*%
%TO.N,/R*%
X128888398Y-85859999D03*
%TO.P,U1,13,RC2*%
%TO.N,/RT*%
X128888398Y-85210000D03*
%TO.P,U1,12,RC1*%
%TO.N,/S*%
X128888398Y-84559999D03*
%TO.P,U1,11,RC0*%
%TO.N,/Z*%
X128888398Y-83910000D03*
%TO.P,U1,10,RA6*%
%TO.N,/Y*%
X128888398Y-83259999D03*
%TO.P,U1,9,RA7*%
%TO.N,/X*%
X128888398Y-82610000D03*
%TO.P,U1,8,VSS*%
%TO.N,GND*%
X128888398Y-81959999D03*
%TO.P,U1,7,RA5*%
%TO.N,/B*%
X128888398Y-81310000D03*
%TO.P,U1,6,RA4*%
%TO.N,/A*%
X128888398Y-80660002D03*
%TO.P,U1,5,RA3*%
%TO.N,/SY*%
X128888398Y-80010000D03*
%TO.P,U1,4,RA2*%
%TO.N,/SX*%
X128888398Y-79360002D03*
%TO.P,U1,3,RA1*%
%TO.N,/CY*%
X128888398Y-78710001D03*
%TO.P,U1,2,RA0*%
%TO.N,/CX*%
X128888398Y-78060002D03*
%TO.P,U1,1,MCLR\u002A/VPP/RE3*%
%TO.N,/MCLR*%
X128888398Y-77410001D03*
%TD*%
D16*
%TO.P,R1,1*%
%TO.N,/DL*%
X138875000Y-80772000D03*
%TO.P,R1,2*%
%TO.N,+3V3*%
X140525000Y-80772000D03*
%TD*%
%TO.P,R12,1*%
%TO.N,/DU*%
X138875000Y-86106000D03*
%TO.P,R12,2*%
%TO.N,+3V3*%
X140525000Y-86106000D03*
%TD*%
%TO.P,R14,1*%
%TO.N,/DR*%
X138875000Y-82550000D03*
%TO.P,R14,2*%
%TO.N,+3V3*%
X140525000Y-82550000D03*
%TD*%
D17*
%TO.P,R15,1*%
%TO.N,GND*%
X128740000Y-90595000D03*
%TO.P,R15,2*%
%TO.N,/R*%
X128740000Y-88945000D03*
%TD*%
D16*
%TO.P,R8,1*%
%TO.N,+3V3*%
X121857000Y-91930000D03*
%TO.P,R8,2*%
%TO.N,/RT*%
X123507000Y-91930000D03*
%TD*%
D18*
%TO.P,TP4,1,1*%
%TO.N,+3V3*%
X146812000Y-97282000D03*
%TD*%
D19*
%TO.P,R9,1*%
%TO.N,+3V3*%
X132905000Y-74422000D03*
%TO.P,R9,2*%
%TO.N,/MCLR*%
X131255000Y-74422000D03*
%TD*%
D20*
%TO.P,J1,1,Pin_1*%
%TO.N,/MCLR*%
X144526000Y-74168000D03*
D21*
%TO.P,J1,2,Pin_2*%
%TO.N,+3V3*%
X145796000Y-74168000D03*
%TO.P,J1,3,Pin_3*%
%TO.N,GND*%
X147066000Y-74168000D03*
%TO.P,J1,4,Pin_4*%
%TO.N,/PGD*%
X148336000Y-74168000D03*
%TO.P,J1,5,Pin_5*%
%TO.N,/PGC*%
X149606000Y-74168000D03*
%TO.P,J1,6,Pin_6*%
%TO.N,unconnected-(J1-Pin_6-Pad6)*%
X150876000Y-74168000D03*
%TD*%
D16*
%TO.P,R4,1*%
%TO.N,+3V3*%
X121900000Y-84230000D03*
%TO.P,R4,2*%
%TO.N,/X*%
X123550000Y-84230000D03*
%TD*%
%TO.P,R3,1*%
%TO.N,+3V3*%
X121900000Y-82520000D03*
%TO.P,R3,2*%
%TO.N,/B*%
X123550000Y-82520000D03*
%TD*%
%TO.P,R6,1*%
%TO.N,+3V3*%
X121840000Y-88300000D03*
%TO.P,R6,2*%
%TO.N,/Z*%
X123490000Y-88300000D03*
%TD*%
D18*
%TO.P,GND,1,1*%
%TO.N,GND*%
X163322000Y-74168000D03*
%TD*%
D17*
%TO.P,R16,1*%
%TO.N,GND*%
X138684000Y-92773000D03*
%TO.P,R16,2*%
%TO.N,/L*%
X138684000Y-91123000D03*
%TD*%
D16*
%TO.P,R7,1*%
%TO.N,+3V3*%
X121795000Y-90150000D03*
%TO.P,R7,2*%
%TO.N,/S*%
X123445000Y-90150000D03*
%TD*%
%TO.P,R13,1*%
%TO.N,/DD*%
X138875000Y-84328000D03*
%TO.P,R13,2*%
%TO.N,+3V3*%
X140525000Y-84328000D03*
%TD*%
D18*
%TO.P,3v3,1,1*%
%TO.N,+3V3*%
X160528000Y-74168000D03*
%TD*%
D16*
%TO.P,R11,1*%
%TO.N,/LT*%
X138875000Y-88392000D03*
%TO.P,R11,2*%
%TO.N,+3V3*%
X140525000Y-88392000D03*
%TD*%
%TO.P,R5,1*%
%TO.N,+3V3*%
X121810000Y-86290000D03*
%TO.P,R5,2*%
%TO.N,/Y*%
X123460000Y-86290000D03*
%TD*%
D20*
%TO.P,J2,1,Pin_1*%
%TO.N,GND*%
X180590000Y-108640000D03*
D21*
%TO.P,J2,2,Pin_2*%
%TO.N,/Z*%
X180590000Y-109910000D03*
%TO.P,J2,3,Pin_3*%
%TO.N,/RT*%
X180590000Y-111180000D03*
%TO.P,J2,4,Pin_4*%
%TO.N,/R*%
X180590000Y-112450000D03*
%TO.P,J2,5,Pin_5*%
%TO.N,/LT*%
X180590000Y-113720000D03*
%TO.P,J2,6,Pin_6*%
%TO.N,/L*%
X180590000Y-114990000D03*
%TD*%
D18*
%TO.P,D,1,1*%
%TO.N,Net-(U1-RB2)*%
X157226000Y-74168000D03*
%TD*%
%TO.P,TP5,1,1*%
%TO.N,GND*%
X149606000Y-97282000D03*
%TD*%
D16*
%TO.P,R2,1*%
%TO.N,+3V3*%
X121857000Y-80772000D03*
%TO.P,R2,2*%
%TO.N,/A*%
X123507000Y-80772000D03*
%TD*%
D22*
%TO.N,GND*%
X134112000Y-94742000D03*
D23*
X146940000Y-76380000D03*
D22*
X126492000Y-81788000D03*
X133858000Y-83820000D03*
X125476000Y-83312000D03*
X166380000Y-102350000D03*
X131360000Y-91640000D03*
D23*
%TO.N,/DL*%
X147060000Y-91180000D03*
%TO.N,/DR*%
X138128820Y-81572079D03*
%TO.N,GND*%
X146800000Y-81030000D03*
%TO.N,/Z*%
X130556000Y-84328000D03*
D22*
%TO.N,/RT*%
X124714000Y-90678000D03*
%TO.N,/R*%
X129032000Y-87884000D03*
%TO.N,/SY*%
X144780000Y-83312000D03*
X130302000Y-82296000D03*
%TO.N,/SX*%
X149352000Y-82296000D03*
X131064000Y-82042000D03*
%TO.N,/DL*%
X141732000Y-80772000D03*
D23*
X137970000Y-80788000D03*
D22*
%TO.N,/A*%
X124590000Y-80770000D03*
%TO.N,/B*%
X124960000Y-82060000D03*
D23*
%TO.N,/X*%
X127254000Y-82550000D03*
%TO.N,/Y*%
X130302000Y-83312000D03*
D22*
%TO.N,/S*%
X130850000Y-85740000D03*
%TO.N,/DU*%
X135128000Y-90424000D03*
%TO.N,/DD*%
X136144000Y-91948000D03*
D23*
X152400000Y-93218000D03*
D22*
X143764000Y-92964000D03*
%TO.N,/DR*%
X142494000Y-81534000D03*
X148590000Y-91194000D03*
%TD*%
D24*
%TO.N,GND*%
X161126000Y-92972001D02*
X155362961Y-92972001D01*
D25*
%TO.N,+3V3*%
X142398000Y-73818000D02*
X133509000Y-73818000D01*
X143598000Y-75018000D02*
X142398000Y-73818000D01*
X145653106Y-75018000D02*
X143598000Y-75018000D01*
X145796000Y-74875106D02*
X145653106Y-75018000D01*
X145796000Y-74168000D02*
X145796000Y-74875106D01*
X133509000Y-73818000D02*
X132905000Y-74422000D01*
D24*
%TO.N,GND*%
X146940000Y-76380000D02*
X146940000Y-74294000D01*
D26*
X127688599Y-81788000D02*
X126492000Y-81788000D01*
X127860598Y-81959999D02*
X127688599Y-81788000D01*
X128888398Y-81959999D02*
X127860598Y-81959999D01*
X134417998Y-83260002D02*
X133858000Y-83820000D01*
X136144000Y-83260002D02*
X134417998Y-83260002D01*
%TO.N,/L*%
X136144000Y-88583000D02*
X138684000Y-91123000D01*
X136144000Y-85860001D02*
X136144000Y-88583000D01*
%TO.N,/DD*%
X135200515Y-83910000D02*
X136144000Y-83910000D01*
X133858000Y-85252515D02*
X135200515Y-83910000D01*
X133858000Y-91068000D02*
X133858000Y-85252515D01*
X134738000Y-91948000D02*
X133858000Y-91068000D01*
X136144000Y-91948000D02*
X134738000Y-91948000D01*
%TO.N,/DR*%
X137740897Y-81960002D02*
X138128820Y-81572079D01*
X136144000Y-81960002D02*
X137740897Y-81960002D01*
D24*
X138128820Y-81572079D02*
X138128820Y-81803820D01*
X138128820Y-81803820D02*
X138875000Y-82550000D01*
D26*
%TO.N,/DL*%
X138867000Y-80780000D02*
X138875000Y-80772000D01*
X137440000Y-81310000D02*
X136144000Y-81310000D01*
X137970000Y-80780000D02*
X137440000Y-81310000D01*
X137970000Y-80788000D02*
X138867000Y-80788000D01*
%TO.N,GND*%
X131360000Y-91655686D02*
X131340000Y-91635686D01*
X131360000Y-91640000D02*
X131360000Y-91655686D01*
X131344314Y-91640000D02*
X131360000Y-91640000D01*
%TO.N,/S*%
X130850000Y-85470529D02*
X130850000Y-85740000D01*
X129939470Y-84559999D02*
X130850000Y-85470529D01*
X128888398Y-84559999D02*
X129939470Y-84559999D01*
%TO.N,/RT*%
X125712000Y-87358598D02*
X125712000Y-89725000D01*
X127860598Y-85210000D02*
X125712000Y-87358598D01*
X128888398Y-85210000D02*
X127860598Y-85210000D01*
%TO.N,/S*%
X124190000Y-88165686D02*
X127795687Y-84559999D01*
X127795687Y-84559999D02*
X128888398Y-84559999D01*
X124190000Y-88787648D02*
X124190000Y-88165686D01*
X123445000Y-89075000D02*
X123902648Y-89075000D01*
X123445000Y-90150000D02*
X123445000Y-89075000D01*
X123902648Y-89075000D02*
X124190000Y-88787648D01*
%TO.N,/RT*%
X124759000Y-90678000D02*
X125712000Y-89725000D01*
X124714000Y-90678000D02*
X124759000Y-90678000D01*
X129710000Y-85210000D02*
X128888398Y-85210000D01*
%TO.N,/S*%
X129965983Y-84694100D02*
X129022499Y-84694100D01*
X129022499Y-84694100D02*
X128888398Y-84559999D01*
%TO.N,/A*%
X123509000Y-80770000D02*
X123507000Y-80772000D01*
X124590000Y-80770000D02*
X123509000Y-80770000D01*
X124699998Y-80660002D02*
X124590000Y-80770000D01*
X128888398Y-80660002D02*
X124699998Y-80660002D01*
%TO.N,/B*%
X124010000Y-82060000D02*
X123550000Y-82520000D01*
X127760598Y-81172000D02*
X127898598Y-81310000D01*
X124828173Y-81345000D02*
X125001173Y-81172000D01*
X124828173Y-81928173D02*
X124828173Y-81345000D01*
X124960000Y-82060000D02*
X124828173Y-81928173D01*
X125001173Y-81172000D02*
X127760598Y-81172000D01*
X127898598Y-81310000D02*
X128888398Y-81310000D01*
X124960000Y-82060000D02*
X124010000Y-82060000D01*
%TO.N,/CY*%
X129882097Y-78710001D02*
X128888398Y-78710001D01*
X130048000Y-90568304D02*
X131690000Y-88926304D01*
X130048000Y-91694000D02*
X130048000Y-90568304D01*
X131690000Y-88926304D02*
X131690000Y-80517904D01*
X130684001Y-92330001D02*
X130048000Y-91694000D01*
X131100001Y-92330001D02*
X130684001Y-92330001D01*
X131690000Y-80517904D02*
X129882097Y-78710001D01*
X131150003Y-92380003D02*
X131100001Y-92330001D01*
X131150003Y-93130001D02*
X131150003Y-92380003D01*
%TO.N,/LT*%
X174680000Y-113720000D02*
X180590000Y-113720000D01*
X140077900Y-89594900D02*
X140077900Y-90293900D01*
X140077900Y-90293900D02*
X141586000Y-91802000D01*
X152762000Y-91802000D02*
X174680000Y-113720000D01*
X138875000Y-88392000D02*
X140077900Y-89594900D01*
X141586000Y-91802000D02*
X152762000Y-91802000D01*
D24*
%TO.N,/DL*%
X142494000Y-86614000D02*
X141732000Y-86614000D01*
X147060000Y-91180000D02*
X142494000Y-86614000D01*
%TO.N,GND*%
X146940000Y-74294000D02*
X147066000Y-74168000D01*
X146800000Y-81030000D02*
X146790000Y-81060000D01*
X146790000Y-84399040D02*
X146800000Y-81030000D01*
X155362961Y-92972001D02*
X146790000Y-84399040D01*
D26*
%TO.N,/PGD*%
X140102783Y-79197000D02*
X138315784Y-77410001D01*
X141282019Y-79210000D02*
X141269018Y-79197000D01*
X147700000Y-79210000D02*
X141282019Y-79210000D01*
X138315784Y-77410001D02*
X136144000Y-77410001D01*
X148336000Y-78574000D02*
X147700000Y-79210000D01*
X141269018Y-79197000D02*
X140102783Y-79197000D01*
X148336000Y-74168000D02*
X148336000Y-78574000D01*
%TO.N,/PGC*%
X149606000Y-79024000D02*
X149606000Y-74168000D01*
X149020000Y-79610000D02*
X149606000Y-79024000D01*
X138400099Y-78060002D02*
X139937097Y-79597000D01*
X136144000Y-78060002D02*
X138400099Y-78060002D01*
X139937097Y-79597000D02*
X141103333Y-79597000D01*
X141103333Y-79597000D02*
X141116333Y-79610000D01*
X141116333Y-79610000D02*
X149020000Y-79610000D01*
D24*
%TO.N,GND*%
X139816000Y-93905000D02*
X138684000Y-92773000D01*
X146229000Y-93905000D02*
X139816000Y-93905000D01*
X149606000Y-97282000D02*
X146229000Y-93905000D01*
%TO.N,+3V3*%
X161951000Y-94446999D02*
X161951000Y-75591000D01*
X161925998Y-94472001D02*
X161951000Y-94446999D01*
X161951000Y-75591000D02*
X160528000Y-74168000D01*
X161126000Y-94472001D02*
X161925998Y-94472001D01*
X146621000Y-73343000D02*
X145796000Y-74168000D01*
X159703000Y-73343000D02*
X146621000Y-73343000D01*
X160528000Y-74168000D02*
X159703000Y-73343000D01*
D26*
%TO.N,/Z*%
X128888398Y-83910000D02*
X130138000Y-83910000D01*
X130138000Y-83910000D02*
X130556000Y-84328000D01*
%TO.N,/RT*%
X124714000Y-90723000D02*
X124714000Y-90678000D01*
X123507000Y-91930000D02*
X124714000Y-90723000D01*
%TO.N,GND*%
X131398314Y-91694000D02*
X131318000Y-91694000D01*
X131318000Y-91613686D02*
X131344314Y-91640000D01*
X132150001Y-92445687D02*
X131398314Y-91694000D01*
X132150001Y-93130001D02*
X132150001Y-92445687D01*
X131318000Y-91694000D02*
X131318000Y-91613686D01*
X131340000Y-91635686D02*
X131340000Y-90500000D01*
D25*
%TO.N,+3V3*%
X132905000Y-84721200D02*
X132905000Y-75184000D01*
X132890000Y-84736200D02*
X132905000Y-84721200D01*
X132890000Y-90500000D02*
X132890000Y-84736200D01*
X140525000Y-82550000D02*
X139700000Y-83375000D01*
X141031390Y-97282000D02*
X137729391Y-93980001D01*
X140525000Y-88392000D02*
X140525000Y-80772000D01*
X139700000Y-83375000D02*
X137840898Y-83375000D01*
X137729391Y-93980001D02*
X130650003Y-93980001D01*
X137075898Y-82610000D02*
X136144000Y-82610000D01*
X135016200Y-82610000D02*
X132905000Y-80498800D01*
X132905000Y-80498800D02*
X132905000Y-75184000D01*
X133150003Y-93925997D02*
X133095999Y-93980001D01*
X136144000Y-82610000D02*
X135016200Y-82610000D01*
X133150003Y-90760003D02*
X133150003Y-93925997D01*
X121857000Y-80772000D02*
X121857000Y-91930000D01*
X132905000Y-75184000D02*
X132905000Y-74422000D01*
X137840898Y-83375000D02*
X137075898Y-82610000D01*
X130650003Y-93980001D02*
X130650001Y-93979999D01*
X132890000Y-90500000D02*
X133150003Y-90760003D01*
X121857000Y-91930000D02*
X123057001Y-93130001D01*
X130650001Y-93979999D02*
X130650001Y-93130001D01*
X123057001Y-93130001D02*
X130650001Y-93130001D01*
X146812000Y-97282000D02*
X141031390Y-97282000D01*
X133095999Y-93980001D02*
X130650003Y-93980001D01*
D26*
%TO.N,/MCLR*%
X132309000Y-73368000D02*
X131255000Y-74422000D01*
X144526000Y-74168000D02*
X143726000Y-73368000D01*
D24*
X131255000Y-75043399D02*
X128888398Y-77410001D01*
D26*
X143726000Y-73368000D02*
X132309000Y-73368000D01*
D24*
X131255000Y-74422000D02*
X131255000Y-75043399D01*
D26*
%TO.N,/Z*%
X123490000Y-88300000D02*
X127880000Y-83910000D01*
X127880000Y-83910000D02*
X128888398Y-83910000D01*
%TO.N,/R*%
X128888398Y-88027602D02*
X128888398Y-88796602D01*
X128888398Y-85859999D02*
X128888398Y-87740398D01*
X129032000Y-87884000D02*
X128888398Y-88027602D01*
X128888398Y-88796602D02*
X128740000Y-88945000D01*
X128888398Y-87740398D02*
X129032000Y-87884000D01*
%TO.N,/LT*%
X137171800Y-85210000D02*
X138175000Y-86213200D01*
X136144000Y-85210000D02*
X137171800Y-85210000D01*
X138175000Y-86213200D02*
X138175000Y-87692000D01*
X138175000Y-87692000D02*
X138875000Y-88392000D01*
%TO.N,/L*%
X139763000Y-92202000D02*
X152400000Y-92202000D01*
X138684000Y-91123000D02*
X139763000Y-92202000D01*
X175188000Y-114990000D02*
X180590000Y-114990000D01*
X152400000Y-92202000D02*
X175188000Y-114990000D01*
%TO.N,/SY*%
X144837686Y-83312000D02*
X155497685Y-93971999D01*
X144780000Y-83312000D02*
X144837686Y-83312000D01*
X128888398Y-80010000D02*
X129916198Y-80010000D01*
X129916198Y-80010000D02*
X130302000Y-80395802D01*
X130302000Y-80395802D02*
X130302000Y-82296000D01*
X155497685Y-93971999D02*
X161126000Y-93971999D01*
%TO.N,/SX*%
X155463999Y-92471999D02*
X161126000Y-92471999D01*
X129916198Y-79360002D02*
X131064000Y-80507804D01*
X149352000Y-82296000D02*
X149352000Y-86360000D01*
X149352000Y-86360000D02*
X155463999Y-92471999D01*
X131064000Y-80507804D02*
X131064000Y-82042000D01*
X128888398Y-79360002D02*
X129916198Y-79360002D01*
%TO.N,/CX*%
X128888398Y-78060002D02*
X130130002Y-78060002D01*
X130130002Y-78060002D02*
X132090000Y-80020000D01*
X132650003Y-92380003D02*
X132650003Y-93130001D01*
X132090000Y-91820000D02*
X132650003Y-92380003D01*
X132090000Y-80020000D02*
X132090000Y-91820000D01*
%TO.N,/DL*%
X141732000Y-86614000D02*
X141732000Y-80772000D01*
%TO.N,/A*%
X124590000Y-80770000D02*
X124592000Y-80772000D01*
X124588000Y-80772000D02*
X124590000Y-80770000D01*
X128776400Y-80772000D02*
X128888398Y-80660002D01*
%TO.N,/X*%
X127194000Y-82610000D02*
X127254000Y-82550000D01*
X127314000Y-82610000D02*
X128888398Y-82610000D01*
X125170000Y-82610000D02*
X127194000Y-82610000D01*
X123550000Y-84230000D02*
X125170000Y-82610000D01*
X127254000Y-82550000D02*
X127314000Y-82610000D01*
%TO.N,/Y*%
X123460000Y-86290000D02*
X126490001Y-83259999D01*
X126490001Y-83259999D02*
X128888398Y-83259999D01*
X130249999Y-83259999D02*
X130302000Y-83312000D01*
X128888398Y-83259999D02*
X130249999Y-83259999D01*
%TO.N,/DU*%
X135016200Y-90312200D02*
X135016200Y-84660001D01*
X136144000Y-84560001D02*
X137171800Y-84560001D01*
X135116200Y-84560001D02*
X136144000Y-84560001D01*
X135016200Y-84660001D02*
X135116200Y-84560001D01*
X135128000Y-90424000D02*
X135016200Y-90312200D01*
X138717799Y-86106000D02*
X138875000Y-86106000D01*
X137171800Y-84560001D02*
X138717799Y-86106000D01*
%TO.N,/DD*%
X138457000Y-83910000D02*
X138875000Y-84328000D01*
X143764000Y-92964000D02*
X144018000Y-93218000D01*
X136144000Y-83910000D02*
X138457000Y-83910000D01*
X144018000Y-93218000D02*
X152400000Y-93218000D01*
%TO.N,/DR*%
X148590000Y-91194000D02*
X142494000Y-85098000D01*
X142494000Y-85098000D02*
X142494000Y-81534000D01*
%TO.N,Net-(U1-RB2)*%
X151384000Y-80010000D02*
X157226000Y-74168000D01*
X137834802Y-79997000D02*
X140937648Y-79997000D01*
X137171800Y-80660002D02*
X137834802Y-79997000D01*
X140937648Y-79997000D02*
X140950648Y-80010000D01*
X140950648Y-80010000D02*
X151384000Y-80010000D01*
X136144000Y-80660002D02*
X137171800Y-80660002D01*
%TD*%
%TA.AperFunction,Conductor*%
%TO.N,GND*%
G36*
X166622613Y-72380222D02*
G01*
X166668403Y-72432995D01*
X166679644Y-72484439D01*
X166709470Y-98105723D01*
X166709357Y-98106310D01*
X166709459Y-98130000D01*
X166709500Y-98130099D01*
X166709617Y-98130383D01*
X166710001Y-98130541D01*
X166734589Y-98130513D01*
X166734589Y-98130534D01*
X166734761Y-98130500D01*
X181985550Y-98130500D01*
X182052589Y-98150185D01*
X182098344Y-98202989D01*
X182109549Y-98254448D01*
X182113847Y-108990000D01*
X182119470Y-123038186D01*
X182099812Y-123105234D01*
X182057598Y-123145549D01*
X178158842Y-125402723D01*
X178096388Y-125419410D01*
X155444265Y-125359826D01*
X155377277Y-125339965D01*
X155331662Y-125287041D01*
X155320591Y-125235737D01*
X155323474Y-121350001D01*
X157824532Y-121350001D01*
X157844364Y-121576686D01*
X157844366Y-121576697D01*
X157903258Y-121796488D01*
X157903261Y-121796497D01*
X157999431Y-122002732D01*
X157999432Y-122002734D01*
X158129954Y-122189141D01*
X158290858Y-122350045D01*
X158290861Y-122350047D01*
X158477266Y-122480568D01*
X158683504Y-122576739D01*
X158903308Y-122635635D01*
X159073214Y-122650499D01*
X159073215Y-122650500D01*
X159073216Y-122650500D01*
X159186785Y-122650500D01*
X159186785Y-122650499D01*
X159356692Y-122635635D01*
X159576496Y-122576739D01*
X159782734Y-122480568D01*
X159969139Y-122350047D01*
X160130047Y-122189139D01*
X160260568Y-122002734D01*
X160356739Y-121796496D01*
X160415635Y-121576692D01*
X160431968Y-121390001D01*
X177824532Y-121390001D01*
X177844364Y-121616686D01*
X177844366Y-121616697D01*
X177903258Y-121836488D01*
X177903261Y-121836497D01*
X177999431Y-122042732D01*
X177999432Y-122042734D01*
X178129954Y-122229141D01*
X178290858Y-122390045D01*
X178290861Y-122390047D01*
X178477266Y-122520568D01*
X178683504Y-122616739D01*
X178903308Y-122675635D01*
X179073214Y-122690499D01*
X179073215Y-122690500D01*
X179073216Y-122690500D01*
X179186785Y-122690500D01*
X179186785Y-122690499D01*
X179356692Y-122675635D01*
X179576496Y-122616739D01*
X179782734Y-122520568D01*
X179969139Y-122390047D01*
X180130047Y-122229139D01*
X180260568Y-122042734D01*
X180356739Y-121836496D01*
X180415635Y-121616692D01*
X180435468Y-121390000D01*
X180431968Y-121350000D01*
X180415635Y-121163313D01*
X180415635Y-121163308D01*
X180356739Y-120943504D01*
X180260568Y-120737266D01*
X180130047Y-120550861D01*
X180130045Y-120550858D01*
X179969141Y-120389954D01*
X179782734Y-120259432D01*
X179782732Y-120259431D01*
X179576497Y-120163261D01*
X179576488Y-120163258D01*
X179356697Y-120104366D01*
X179356687Y-120104364D01*
X179186785Y-120089500D01*
X179186784Y-120089500D01*
X179073216Y-120089500D01*
X179073215Y-120089500D01*
X178903312Y-120104364D01*
X178903302Y-120104366D01*
X178683511Y-120163258D01*
X178683502Y-120163261D01*
X178477267Y-120259431D01*
X178477265Y-120259432D01*
X178290858Y-120389954D01*
X178129954Y-120550858D01*
X177999432Y-120737265D01*
X177999431Y-120737267D01*
X177903261Y-120943502D01*
X177903258Y-120943511D01*
X177844366Y-121163302D01*
X177844364Y-121163313D01*
X177824532Y-121389998D01*
X177824532Y-121390001D01*
X160431968Y-121390001D01*
X160435468Y-121350000D01*
X160415635Y-121123308D01*
X160356739Y-120903504D01*
X160260568Y-120697266D01*
X160130047Y-120510861D01*
X160130045Y-120510858D01*
X159969141Y-120349954D01*
X159782734Y-120219432D01*
X159782732Y-120219431D01*
X159576497Y-120123261D01*
X159576488Y-120123258D01*
X159356697Y-120064366D01*
X159356687Y-120064364D01*
X159186785Y-120049500D01*
X159186784Y-120049500D01*
X159073216Y-120049500D01*
X159073215Y-120049500D01*
X158903312Y-120064364D01*
X158903302Y-120064366D01*
X158683511Y-120123258D01*
X158683502Y-120123261D01*
X158477267Y-120219431D01*
X158477265Y-120219432D01*
X158290858Y-120349954D01*
X158129954Y-120510858D01*
X157999432Y-120697265D01*
X157999431Y-120697267D01*
X157903261Y-120903502D01*
X157903258Y-120903511D01*
X157844366Y-121123302D01*
X157844364Y-121123313D01*
X157824532Y-121349998D01*
X157824532Y-121350001D01*
X155323474Y-121350001D01*
X155340491Y-98409828D01*
X155340493Y-98409507D01*
X155340539Y-98400002D01*
X155340541Y-98400000D01*
X155340383Y-98399617D01*
X155340381Y-98399616D01*
X155340380Y-98399614D01*
X155340194Y-98399538D01*
X155340002Y-98399459D01*
X155315446Y-98399459D01*
X155315240Y-98399500D01*
X150131695Y-98399500D01*
X150064656Y-98379815D01*
X150018901Y-98327011D01*
X150008957Y-98257853D01*
X150037982Y-98194297D01*
X150073241Y-98166142D01*
X150114523Y-98144076D01*
X150114523Y-98144075D01*
X149606001Y-97635553D01*
X149606000Y-97635553D01*
X149097475Y-98144076D01*
X149138758Y-98166142D01*
X149188602Y-98215105D01*
X149204062Y-98283242D01*
X149180230Y-98348922D01*
X149124672Y-98391291D01*
X149080304Y-98399500D01*
X147338757Y-98399500D01*
X147271718Y-98379815D01*
X147225963Y-98327011D01*
X147216019Y-98257853D01*
X147245044Y-98194297D01*
X147280304Y-98166142D01*
X147370532Y-98117913D01*
X147370538Y-98117910D01*
X147522883Y-97992883D01*
X147647910Y-97840538D01*
X147740814Y-97666727D01*
X147798024Y-97478132D01*
X147817341Y-97282000D01*
X148601161Y-97282000D01*
X148620468Y-97478032D01*
X148677651Y-97666537D01*
X148743923Y-97790522D01*
X149252447Y-97282000D01*
X149959553Y-97282000D01*
X150468076Y-97790523D01*
X150534348Y-97666537D01*
X150591531Y-97478032D01*
X150610838Y-97282000D01*
X150591531Y-97085967D01*
X150534348Y-96897462D01*
X150468075Y-96773476D01*
X149959553Y-97281999D01*
X149959553Y-97282000D01*
X149252447Y-97282000D01*
X149252447Y-97281999D01*
X148743923Y-96773476D01*
X148677649Y-96897466D01*
X148620468Y-97085967D01*
X148601161Y-97282000D01*
X147817341Y-97282000D01*
X147798024Y-97085868D01*
X147740814Y-96897273D01*
X147740811Y-96897269D01*
X147740811Y-96897266D01*
X147647913Y-96723467D01*
X147647909Y-96723460D01*
X147522883Y-96571116D01*
X147370539Y-96446090D01*
X147370532Y-96446086D01*
X147321585Y-96419923D01*
X149097476Y-96419923D01*
X149606000Y-96928447D01*
X149606001Y-96928447D01*
X150114522Y-96419923D01*
X149990537Y-96353651D01*
X149802030Y-96296468D01*
X149802034Y-96296468D01*
X149606000Y-96277161D01*
X149409967Y-96296468D01*
X149221466Y-96353649D01*
X149097476Y-96419923D01*
X147321585Y-96419923D01*
X147196733Y-96353188D01*
X147196727Y-96353186D01*
X147008132Y-96295976D01*
X147008129Y-96295975D01*
X146812000Y-96276659D01*
X146615870Y-96295975D01*
X146427266Y-96353188D01*
X146253467Y-96446086D01*
X146253460Y-96446090D01*
X146101117Y-96571116D01*
X146088768Y-96586164D01*
X146031022Y-96625499D01*
X145992914Y-96631500D01*
X141931896Y-96631500D01*
X141864857Y-96611815D01*
X141819102Y-96559011D01*
X141809158Y-96489853D01*
X141838183Y-96426297D01*
X141860773Y-96405925D01*
X141969139Y-96330047D01*
X142130047Y-96169139D01*
X142260568Y-95982734D01*
X142356739Y-95776496D01*
X142415635Y-95556692D01*
X142435468Y-95330000D01*
X142415635Y-95103308D01*
X142361020Y-94899481D01*
X142356741Y-94883511D01*
X142356738Y-94883502D01*
X142260568Y-94677266D01*
X142130047Y-94490861D01*
X142130045Y-94490858D01*
X141969141Y-94329954D01*
X141782734Y-94199432D01*
X141782732Y-94199431D01*
X141576497Y-94103261D01*
X141576488Y-94103258D01*
X141356697Y-94044366D01*
X141356687Y-94044364D01*
X141186785Y-94029500D01*
X141186784Y-94029500D01*
X141073216Y-94029500D01*
X141073215Y-94029500D01*
X140903312Y-94044364D01*
X140903302Y-94044366D01*
X140683511Y-94103258D01*
X140683502Y-94103261D01*
X140477267Y-94199431D01*
X140477265Y-94199432D01*
X140290858Y-94329954D01*
X140129954Y-94490858D01*
X139999432Y-94677265D01*
X139999431Y-94677267D01*
X139903261Y-94883502D01*
X139903256Y-94883517D01*
X139884794Y-94952417D01*
X139848429Y-95012077D01*
X139785581Y-95042605D01*
X139716206Y-95034310D01*
X139677339Y-95008003D01*
X138470319Y-93800983D01*
X138436834Y-93739660D01*
X138434000Y-93713302D01*
X138434000Y-93023000D01*
X137709001Y-93023000D01*
X137709001Y-93029582D01*
X137715408Y-93100102D01*
X137736756Y-93168611D01*
X137737906Y-93238471D01*
X137701105Y-93297864D01*
X137638036Y-93327932D01*
X137618370Y-93329501D01*
X133924503Y-93329501D01*
X133857464Y-93309816D01*
X133811709Y-93257012D01*
X133800503Y-93205501D01*
X133800503Y-92159100D01*
X133820188Y-92092061D01*
X133872992Y-92046306D01*
X133942150Y-92036362D01*
X134005706Y-92065387D01*
X134012184Y-92071419D01*
X134279799Y-92339034D01*
X134290493Y-92351228D01*
X134309718Y-92376282D01*
X134349767Y-92407012D01*
X134392058Y-92439463D01*
X134392059Y-92439465D01*
X134412003Y-92454768D01*
X134435159Y-92472536D01*
X134435161Y-92472536D01*
X134435163Y-92472538D01*
X134508198Y-92502790D01*
X134581238Y-92533044D01*
X134654469Y-92542685D01*
X134737999Y-92553682D01*
X134738000Y-92553682D01*
X134769302Y-92549560D01*
X134785487Y-92548500D01*
X135606347Y-92548500D01*
X135672318Y-92567506D01*
X135716854Y-92595489D01*
X135805394Y-92651122D01*
X135970343Y-92708841D01*
X135970349Y-92708841D01*
X135970351Y-92708842D01*
X136143996Y-92728407D01*
X136144000Y-92728407D01*
X136144004Y-92728407D01*
X136317648Y-92708842D01*
X136317647Y-92708842D01*
X136317657Y-92708841D01*
X136482606Y-92651122D01*
X136630576Y-92558147D01*
X136754147Y-92434576D01*
X136847122Y-92286606D01*
X136904841Y-92121657D01*
X136914488Y-92036035D01*
X136924407Y-91948003D01*
X136924407Y-91947996D01*
X136904842Y-91774351D01*
X136904841Y-91774349D01*
X136904841Y-91774343D01*
X136847122Y-91609394D01*
X136754147Y-91461424D01*
X136630576Y-91337853D01*
X136482606Y-91244878D01*
X136482605Y-91244877D01*
X136482604Y-91244877D01*
X136317658Y-91187159D01*
X136317648Y-91187157D01*
X136144004Y-91167593D01*
X136143996Y-91167593D01*
X135970351Y-91187157D01*
X135970341Y-91187159D01*
X135805392Y-91244878D01*
X135672318Y-91328494D01*
X135606347Y-91347500D01*
X135546290Y-91347500D01*
X135479251Y-91327815D01*
X135433496Y-91275011D01*
X135423552Y-91205853D01*
X135452577Y-91142297D01*
X135480318Y-91118506D01*
X135486961Y-91114332D01*
X135614576Y-91034147D01*
X135738147Y-90910576D01*
X135831122Y-90762606D01*
X135888841Y-90597657D01*
X135900872Y-90490877D01*
X135908407Y-90424003D01*
X135908407Y-90423996D01*
X135888842Y-90250351D01*
X135888841Y-90250349D01*
X135888841Y-90250343D01*
X135831122Y-90085394D01*
X135738147Y-89937424D01*
X135653019Y-89852296D01*
X135619534Y-89790973D01*
X135616700Y-89764615D01*
X135616700Y-89204297D01*
X135636385Y-89137258D01*
X135689189Y-89091503D01*
X135758347Y-89081559D01*
X135821903Y-89110584D01*
X135828381Y-89116616D01*
X137672181Y-90960416D01*
X137705666Y-91021739D01*
X137708500Y-91048097D01*
X137708500Y-91379613D01*
X137714913Y-91450192D01*
X137714913Y-91450194D01*
X137714914Y-91450196D01*
X137765522Y-91612606D01*
X137845531Y-91744957D01*
X137853530Y-91758188D01*
X137956015Y-91860673D01*
X137989500Y-91921996D01*
X137984516Y-91991688D01*
X137956015Y-92036035D01*
X137853928Y-92138121D01*
X137853927Y-92138122D01*
X137765980Y-92283604D01*
X137715409Y-92445893D01*
X137709000Y-92516427D01*
X137709000Y-92523000D01*
X138810000Y-92523000D01*
X138877039Y-92542685D01*
X138922794Y-92595489D01*
X138934000Y-92647000D01*
X138934000Y-93672999D01*
X139015581Y-93672999D01*
X139086102Y-93666591D01*
X139086107Y-93666590D01*
X139248396Y-93616018D01*
X139393877Y-93528072D01*
X139514072Y-93407877D01*
X139602019Y-93262395D01*
X139652590Y-93100106D01*
X139658999Y-93029572D01*
X139658999Y-92930119D01*
X139678683Y-92863080D01*
X139731486Y-92817324D01*
X139766809Y-92807180D01*
X139794313Y-92803559D01*
X139810487Y-92802500D01*
X142863034Y-92802500D01*
X142930073Y-92822185D01*
X142975828Y-92874989D01*
X142986254Y-92940385D01*
X142983593Y-92963999D01*
X142983593Y-92964003D01*
X143003157Y-93137648D01*
X143003159Y-93137658D01*
X143060877Y-93302604D01*
X143060878Y-93302606D01*
X143153853Y-93450576D01*
X143277424Y-93574147D01*
X143425394Y-93667122D01*
X143590343Y-93724841D01*
X143685720Y-93735586D01*
X143719281Y-93744243D01*
X143861238Y-93803044D01*
X143939619Y-93813363D01*
X144017999Y-93823682D01*
X144018000Y-93823682D01*
X144049302Y-93819560D01*
X144065487Y-93818500D01*
X151817588Y-93818500D01*
X151884627Y-93838185D01*
X151894903Y-93845555D01*
X151897736Y-93847814D01*
X151897738Y-93847816D01*
X151993813Y-93908184D01*
X152026403Y-93928662D01*
X152050478Y-93943789D01*
X152201146Y-93996510D01*
X152220745Y-94003368D01*
X152220750Y-94003369D01*
X152399996Y-94023565D01*
X152400000Y-94023565D01*
X152400004Y-94023565D01*
X152579249Y-94003369D01*
X152579252Y-94003368D01*
X152579255Y-94003368D01*
X152749522Y-93943789D01*
X152902262Y-93847816D01*
X152961743Y-93788334D01*
X153023062Y-93754852D01*
X153092754Y-93759836D01*
X153137102Y-93788337D01*
X174729799Y-115381034D01*
X174740493Y-115393228D01*
X174759718Y-115418282D01*
X174827254Y-115470104D01*
X174885159Y-115514536D01*
X175031238Y-115575044D01*
X175109619Y-115585363D01*
X175187999Y-115595682D01*
X175188000Y-115595682D01*
X175219302Y-115591560D01*
X175235487Y-115590500D01*
X179729880Y-115590500D01*
X179796919Y-115610185D01*
X179825733Y-115635835D01*
X179879116Y-115700883D01*
X180031460Y-115825909D01*
X180031467Y-115825913D01*
X180205266Y-115918811D01*
X180205269Y-115918811D01*
X180205273Y-115918814D01*
X180393868Y-115976024D01*
X180590000Y-115995341D01*
X180786132Y-115976024D01*
X180974727Y-115918814D01*
X181148538Y-115825910D01*
X181300883Y-115700883D01*
X181425910Y-115548538D01*
X181518814Y-115374727D01*
X181576024Y-115186132D01*
X181595341Y-114990000D01*
X181576024Y-114793868D01*
X181518814Y-114605273D01*
X181425910Y-114431462D01*
X181425907Y-114431458D01*
X181422523Y-114426393D01*
X181424164Y-114425296D01*
X181400405Y-114369361D01*
X181412194Y-114300493D01*
X181422888Y-114283851D01*
X181422523Y-114283607D01*
X181425904Y-114278544D01*
X181425910Y-114278538D01*
X181518814Y-114104727D01*
X181576024Y-113916132D01*
X181595341Y-113720000D01*
X181576024Y-113523868D01*
X181518814Y-113335273D01*
X181425910Y-113161462D01*
X181425907Y-113161458D01*
X181422523Y-113156393D01*
X181424164Y-113155296D01*
X181400405Y-113099361D01*
X181412194Y-113030493D01*
X181422888Y-113013851D01*
X181422523Y-113013607D01*
X181425904Y-113008544D01*
X181425910Y-113008538D01*
X181518814Y-112834727D01*
X181576024Y-112646132D01*
X181595341Y-112450000D01*
X181576024Y-112253868D01*
X181518814Y-112065273D01*
X181425910Y-111891462D01*
X181425907Y-111891458D01*
X181422523Y-111886393D01*
X181424164Y-111885296D01*
X181400405Y-111829361D01*
X181412194Y-111760493D01*
X181422888Y-111743851D01*
X181422523Y-111743607D01*
X181425904Y-111738544D01*
X181425910Y-111738538D01*
X181518814Y-111564727D01*
X181576024Y-111376132D01*
X181595341Y-111180000D01*
X181576024Y-110983868D01*
X181518814Y-110795273D01*
X181425910Y-110621462D01*
X181425907Y-110621458D01*
X181422523Y-110616393D01*
X181424164Y-110615296D01*
X181400405Y-110559361D01*
X181412194Y-110490493D01*
X181422888Y-110473851D01*
X181422523Y-110473607D01*
X181425904Y-110468544D01*
X181425910Y-110468538D01*
X181518814Y-110294727D01*
X181576024Y-110106132D01*
X181595341Y-109910000D01*
X181576024Y-109713868D01*
X181518814Y-109525273D01*
X181517419Y-109522663D01*
X181517100Y-109521135D01*
X181516482Y-109519641D01*
X181516765Y-109519523D01*
X181503174Y-109454261D01*
X181527512Y-109389890D01*
X181533351Y-109382089D01*
X181583597Y-109247376D01*
X181583598Y-109247372D01*
X181589999Y-109187844D01*
X181590000Y-109187827D01*
X181590000Y-108890000D01*
X180835581Y-108890000D01*
X180887060Y-108834079D01*
X180933982Y-108727108D01*
X180943628Y-108610698D01*
X180914953Y-108497462D01*
X180851064Y-108399673D01*
X180758885Y-108327928D01*
X180648405Y-108290000D01*
X180560995Y-108290000D01*
X180474784Y-108304386D01*
X180372053Y-108359981D01*
X180292940Y-108445921D01*
X180246018Y-108552892D01*
X180236372Y-108669302D01*
X180265047Y-108782538D01*
X180328936Y-108880327D01*
X180341364Y-108890000D01*
X179590000Y-108890000D01*
X179590000Y-109187844D01*
X179596401Y-109247372D01*
X179596402Y-109247376D01*
X179646648Y-109382091D01*
X179652490Y-109389894D01*
X179676908Y-109455359D01*
X179663251Y-109519535D01*
X179663517Y-109519646D01*
X179662921Y-109521082D01*
X179662589Y-109522647D01*
X179661188Y-109525268D01*
X179603975Y-109713870D01*
X179584659Y-109910000D01*
X179603975Y-110106129D01*
X179661188Y-110294733D01*
X179754086Y-110468532D01*
X179757473Y-110473601D01*
X179755836Y-110474694D01*
X179779596Y-110530663D01*
X179767795Y-110599529D01*
X179757109Y-110616156D01*
X179757473Y-110616399D01*
X179754086Y-110621467D01*
X179661188Y-110795266D01*
X179603975Y-110983870D01*
X179584659Y-111180000D01*
X179603975Y-111376129D01*
X179661188Y-111564733D01*
X179754086Y-111738532D01*
X179757473Y-111743601D01*
X179755836Y-111744694D01*
X179779596Y-111800663D01*
X179767795Y-111869529D01*
X179757109Y-111886156D01*
X179757473Y-111886399D01*
X179754086Y-111891467D01*
X179661188Y-112065266D01*
X179603975Y-112253870D01*
X179584659Y-112450000D01*
X179603975Y-112646129D01*
X179661188Y-112834733D01*
X179715876Y-112937047D01*
X179730118Y-113005450D01*
X179705118Y-113070694D01*
X179648812Y-113112064D01*
X179606518Y-113119500D01*
X174980097Y-113119500D01*
X174913058Y-113099815D01*
X174892416Y-113083181D01*
X170199235Y-108390000D01*
X179590000Y-108390000D01*
X180340000Y-108390000D01*
X180340000Y-107640000D01*
X180840000Y-107640000D01*
X180840000Y-108390000D01*
X181590000Y-108390000D01*
X181590000Y-108092172D01*
X181589999Y-108092155D01*
X181583598Y-108032627D01*
X181583596Y-108032620D01*
X181533354Y-107897913D01*
X181533350Y-107897906D01*
X181447190Y-107782812D01*
X181447187Y-107782809D01*
X181332093Y-107696649D01*
X181332086Y-107696645D01*
X181197379Y-107646403D01*
X181197372Y-107646401D01*
X181137844Y-107640000D01*
X180840000Y-107640000D01*
X180340000Y-107640000D01*
X180042155Y-107640000D01*
X179982627Y-107646401D01*
X179982620Y-107646403D01*
X179847913Y-107696645D01*
X179847906Y-107696649D01*
X179732812Y-107782809D01*
X179732809Y-107782812D01*
X179646649Y-107897906D01*
X179646645Y-107897913D01*
X179596403Y-108032620D01*
X179596401Y-108032627D01*
X179590000Y-108092155D01*
X179590000Y-108390000D01*
X170199235Y-108390000D01*
X163129236Y-101320001D01*
X177844532Y-101320001D01*
X177864364Y-101546686D01*
X177864366Y-101546697D01*
X177923258Y-101766488D01*
X177923261Y-101766497D01*
X178019431Y-101972732D01*
X178019432Y-101972734D01*
X178149954Y-102159141D01*
X178310858Y-102320045D01*
X178310861Y-102320047D01*
X178497266Y-102450568D01*
X178703504Y-102546739D01*
X178923308Y-102605635D01*
X179093214Y-102620499D01*
X179093215Y-102620500D01*
X179093216Y-102620500D01*
X179206785Y-102620500D01*
X179206785Y-102620499D01*
X179376692Y-102605635D01*
X179596496Y-102546739D01*
X179802734Y-102450568D01*
X179989139Y-102320047D01*
X180150047Y-102159139D01*
X180280568Y-101972734D01*
X180376739Y-101766496D01*
X180435635Y-101546692D01*
X180455468Y-101320000D01*
X180435635Y-101093308D01*
X180376739Y-100873504D01*
X180280568Y-100667266D01*
X180150047Y-100480861D01*
X180150045Y-100480858D01*
X179989141Y-100319954D01*
X179802734Y-100189432D01*
X179802732Y-100189431D01*
X179596497Y-100093261D01*
X179596488Y-100093258D01*
X179376697Y-100034366D01*
X179376687Y-100034364D01*
X179206785Y-100019500D01*
X179206784Y-100019500D01*
X179093216Y-100019500D01*
X179093215Y-100019500D01*
X178923312Y-100034364D01*
X178923302Y-100034366D01*
X178703511Y-100093258D01*
X178703502Y-100093261D01*
X178497267Y-100189431D01*
X178497265Y-100189432D01*
X178310858Y-100319954D01*
X178149954Y-100480858D01*
X178019432Y-100667265D01*
X178019431Y-100667267D01*
X177923261Y-100873502D01*
X177923258Y-100873511D01*
X177864366Y-101093302D01*
X177864364Y-101093313D01*
X177844532Y-101319998D01*
X177844532Y-101320001D01*
X163129236Y-101320001D01*
X159629103Y-97819868D01*
X162675499Y-97819868D01*
X162675500Y-97819874D01*
X162681907Y-97879481D01*
X162732201Y-98014326D01*
X162732205Y-98014333D01*
X162818451Y-98129542D01*
X162818454Y-98129545D01*
X162933663Y-98215791D01*
X162933670Y-98215795D01*
X163068516Y-98266089D01*
X163068515Y-98266089D01*
X163075443Y-98266833D01*
X163128126Y-98272498D01*
X164523871Y-98272497D01*
X164583482Y-98266089D01*
X164718330Y-98215794D01*
X164833545Y-98129544D01*
X164919795Y-98014329D01*
X164970090Y-97879481D01*
X164976499Y-97819871D01*
X164976498Y-95724126D01*
X164970090Y-95664515D01*
X164929872Y-95556686D01*
X164919796Y-95529669D01*
X164919792Y-95529662D01*
X164833546Y-95414453D01*
X164833543Y-95414450D01*
X164718334Y-95328204D01*
X164718327Y-95328200D01*
X164583481Y-95277906D01*
X164583482Y-95277906D01*
X164523882Y-95271499D01*
X164523880Y-95271498D01*
X164523872Y-95271498D01*
X164523863Y-95271498D01*
X163128128Y-95271498D01*
X163128122Y-95271499D01*
X163068515Y-95277906D01*
X162933670Y-95328200D01*
X162933663Y-95328204D01*
X162818454Y-95414450D01*
X162818451Y-95414453D01*
X162732205Y-95529662D01*
X162732201Y-95529669D01*
X162681907Y-95664515D01*
X162675500Y-95724114D01*
X162675500Y-95724121D01*
X162675499Y-95724133D01*
X162675499Y-97819868D01*
X159629103Y-97819868D01*
X156593415Y-94784180D01*
X156559930Y-94722857D01*
X156564914Y-94653165D01*
X156606786Y-94597232D01*
X156672250Y-94572815D01*
X156681096Y-94572499D01*
X160003648Y-94572499D01*
X160070687Y-94592184D01*
X160116442Y-94644988D01*
X160126938Y-94683245D01*
X160131908Y-94729484D01*
X160182202Y-94864329D01*
X160182206Y-94864336D01*
X160268452Y-94979545D01*
X160268455Y-94979548D01*
X160383664Y-95065794D01*
X160383671Y-95065798D01*
X160518517Y-95116092D01*
X160518516Y-95116092D01*
X160525444Y-95116836D01*
X160578127Y-95122501D01*
X161673872Y-95122500D01*
X161733483Y-95116092D01*
X161762367Y-95105318D01*
X161805700Y-95097501D01*
X161843255Y-95097501D01*
X161858875Y-95099225D01*
X161858902Y-95098940D01*
X161866658Y-95099672D01*
X161866665Y-95099674D01*
X161933871Y-95097562D01*
X161937766Y-95097501D01*
X161965344Y-95097501D01*
X161965348Y-95097501D01*
X161969322Y-95096998D01*
X161980961Y-95096081D01*
X162024625Y-95094710D01*
X162043867Y-95089118D01*
X162062910Y-95085175D01*
X162082790Y-95082665D01*
X162123399Y-95066586D01*
X162134442Y-95062804D01*
X162176388Y-95050619D01*
X162193627Y-95040423D01*
X162211101Y-95031863D01*
X162229725Y-95024489D01*
X162229725Y-95024488D01*
X162229730Y-95024487D01*
X162265081Y-94998801D01*
X162274812Y-94992409D01*
X162312418Y-94970171D01*
X162326587Y-94956001D01*
X162341376Y-94943370D01*
X162357585Y-94931595D01*
X162381678Y-94902469D01*
X162386805Y-94896654D01*
X162398936Y-94883736D01*
X162401583Y-94881005D01*
X162421120Y-94861470D01*
X162423576Y-94858302D01*
X162431156Y-94849426D01*
X162461062Y-94817581D01*
X162470713Y-94800023D01*
X162481396Y-94783760D01*
X162493673Y-94767935D01*
X162511021Y-94727843D01*
X162516151Y-94717370D01*
X162537197Y-94679091D01*
X162542180Y-94659679D01*
X162548481Y-94641279D01*
X162556437Y-94622895D01*
X162563270Y-94579747D01*
X162565633Y-94568337D01*
X162576500Y-94526018D01*
X162576500Y-94505982D01*
X162578027Y-94486581D01*
X162579831Y-94475192D01*
X162581160Y-94466803D01*
X162577050Y-94423323D01*
X162576500Y-94411654D01*
X162576500Y-91578897D01*
X162596185Y-91511858D01*
X162648989Y-91466103D01*
X162718147Y-91456159D01*
X162781703Y-91485184D01*
X162799766Y-91504586D01*
X162818451Y-91529546D01*
X162818454Y-91529549D01*
X162933663Y-91615795D01*
X162933670Y-91615799D01*
X163068516Y-91666093D01*
X163068515Y-91666093D01*
X163075443Y-91666837D01*
X163128126Y-91672502D01*
X164523871Y-91672501D01*
X164583482Y-91666093D01*
X164718330Y-91615798D01*
X164833545Y-91529548D01*
X164919795Y-91414333D01*
X164970090Y-91279485D01*
X164976499Y-91219875D01*
X164976498Y-89124130D01*
X164970090Y-89064519D01*
X164969090Y-89061839D01*
X164919796Y-88929673D01*
X164919792Y-88929666D01*
X164833546Y-88814457D01*
X164833543Y-88814454D01*
X164718334Y-88728208D01*
X164718327Y-88728204D01*
X164583481Y-88677910D01*
X164583482Y-88677910D01*
X164523882Y-88671503D01*
X164523880Y-88671502D01*
X164523872Y-88671502D01*
X164523863Y-88671502D01*
X163128128Y-88671502D01*
X163128122Y-88671503D01*
X163068515Y-88677910D01*
X162933670Y-88728204D01*
X162933663Y-88728208D01*
X162818454Y-88814454D01*
X162818452Y-88814456D01*
X162799765Y-88839419D01*
X162743831Y-88881289D01*
X162674139Y-88886272D01*
X162612817Y-88852785D01*
X162579333Y-88791461D01*
X162576500Y-88765106D01*
X162576500Y-75673742D01*
X162578224Y-75658122D01*
X162577939Y-75658096D01*
X162578671Y-75650340D01*
X162578673Y-75650333D01*
X162576561Y-75583126D01*
X162576500Y-75579231D01*
X162576500Y-75551654D01*
X162576500Y-75551650D01*
X162575996Y-75547665D01*
X162575080Y-75536021D01*
X162575033Y-75534522D01*
X162573709Y-75492373D01*
X162568122Y-75473144D01*
X162564174Y-75454084D01*
X162563130Y-75445816D01*
X162561664Y-75434208D01*
X162561663Y-75434206D01*
X162561663Y-75434204D01*
X162545588Y-75393604D01*
X162541804Y-75382552D01*
X162529618Y-75340609D01*
X162529616Y-75340606D01*
X162519423Y-75323371D01*
X162510861Y-75305894D01*
X162503487Y-75287269D01*
X162489543Y-75268077D01*
X162477811Y-75251930D01*
X162471405Y-75242177D01*
X162455971Y-75216080D01*
X162449172Y-75204583D01*
X162449165Y-75204574D01*
X162435006Y-75190415D01*
X162422368Y-75175619D01*
X162420712Y-75173340D01*
X162410594Y-75159413D01*
X162383693Y-75137159D01*
X162376940Y-75131572D01*
X162368299Y-75123709D01*
X162274665Y-75030075D01*
X162813476Y-75030075D01*
X162937462Y-75096348D01*
X163125969Y-75153531D01*
X163125965Y-75153531D01*
X163322000Y-75172838D01*
X163518032Y-75153531D01*
X163706537Y-75096348D01*
X163830523Y-75030076D01*
X163830523Y-75030075D01*
X163322001Y-74521553D01*
X163322000Y-74521553D01*
X162813476Y-75030075D01*
X162274665Y-75030075D01*
X161563984Y-74319393D01*
X161530499Y-74258070D01*
X161528262Y-74219561D01*
X161533341Y-74168000D01*
X162317161Y-74168000D01*
X162336468Y-74364032D01*
X162393651Y-74552537D01*
X162459923Y-74676522D01*
X162968447Y-74168000D01*
X163675553Y-74168000D01*
X164184076Y-74676523D01*
X164250348Y-74552537D01*
X164307531Y-74364032D01*
X164326838Y-74168000D01*
X164307531Y-73971967D01*
X164250348Y-73783462D01*
X164184075Y-73659476D01*
X163675553Y-74167999D01*
X163675553Y-74168000D01*
X162968447Y-74168000D01*
X162459923Y-73659476D01*
X162393649Y-73783466D01*
X162336468Y-73971967D01*
X162317161Y-74168000D01*
X161533341Y-74168000D01*
X161514024Y-73971868D01*
X161456814Y-73783273D01*
X161456811Y-73783269D01*
X161456811Y-73783266D01*
X161363913Y-73609467D01*
X161363909Y-73609460D01*
X161238883Y-73457116D01*
X161086539Y-73332090D01*
X161086532Y-73332086D01*
X161037585Y-73305923D01*
X162813476Y-73305923D01*
X163322000Y-73814447D01*
X163322001Y-73814447D01*
X163830522Y-73305923D01*
X163706537Y-73239651D01*
X163518030Y-73182468D01*
X163518034Y-73182468D01*
X163322000Y-73163161D01*
X163125967Y-73182468D01*
X162937466Y-73239649D01*
X162813476Y-73305923D01*
X161037585Y-73305923D01*
X160912733Y-73239188D01*
X160912727Y-73239186D01*
X160724132Y-73181976D01*
X160724129Y-73181975D01*
X160528000Y-73162659D01*
X160527997Y-73162659D01*
X160476437Y-73167736D01*
X160407791Y-73154716D01*
X160376605Y-73132014D01*
X160203803Y-72959212D01*
X160193980Y-72946950D01*
X160193759Y-72947134D01*
X160188786Y-72941122D01*
X160139776Y-72895099D01*
X160136977Y-72892386D01*
X160117477Y-72872885D01*
X160117471Y-72872880D01*
X160114286Y-72870409D01*
X160105434Y-72862848D01*
X160073582Y-72832938D01*
X160073580Y-72832936D01*
X160073577Y-72832935D01*
X160056029Y-72823288D01*
X160039763Y-72812604D01*
X160023932Y-72800324D01*
X159983849Y-72782978D01*
X159973363Y-72777841D01*
X159935094Y-72756803D01*
X159935092Y-72756802D01*
X159915693Y-72751822D01*
X159897281Y-72745518D01*
X159878898Y-72737562D01*
X159878892Y-72737560D01*
X159835760Y-72730729D01*
X159824322Y-72728361D01*
X159782020Y-72717500D01*
X159782019Y-72717500D01*
X159761984Y-72717500D01*
X159742586Y-72715973D01*
X159735162Y-72714797D01*
X159722805Y-72712840D01*
X159722804Y-72712840D01*
X159679325Y-72716950D01*
X159667656Y-72717500D01*
X146703737Y-72717500D01*
X146688120Y-72715776D01*
X146688093Y-72716062D01*
X146680331Y-72715327D01*
X146613144Y-72717439D01*
X146609250Y-72717500D01*
X146581650Y-72717500D01*
X146577962Y-72717965D01*
X146577649Y-72718005D01*
X146566031Y-72718918D01*
X146522373Y-72720290D01*
X146522372Y-72720290D01*
X146503129Y-72725881D01*
X146484079Y-72729825D01*
X146464211Y-72732334D01*
X146464210Y-72732335D01*
X146423600Y-72748413D01*
X146412553Y-72752195D01*
X146370610Y-72764381D01*
X146370609Y-72764382D01*
X146353367Y-72774579D01*
X146335899Y-72783137D01*
X146317269Y-72790513D01*
X146317266Y-72790515D01*
X146281939Y-72816181D01*
X146272180Y-72822592D01*
X146234579Y-72844830D01*
X146220408Y-72859000D01*
X146205623Y-72871628D01*
X146189412Y-72883407D01*
X146161571Y-72917059D01*
X146153711Y-72925696D01*
X145947393Y-73132014D01*
X145886070Y-73165499D01*
X145847560Y-73167736D01*
X145796002Y-73162659D01*
X145796000Y-73162659D01*
X145599870Y-73181975D01*
X145470462Y-73221231D01*
X145411273Y-73239186D01*
X145411272Y-73239186D01*
X145411267Y-73239188D01*
X145409143Y-73240324D01*
X145407898Y-73240583D01*
X145405641Y-73241518D01*
X145405463Y-73241089D01*
X145340740Y-73254564D01*
X145276382Y-73230231D01*
X145268331Y-73224204D01*
X145268328Y-73224202D01*
X145133482Y-73173908D01*
X145133483Y-73173908D01*
X145073883Y-73167501D01*
X145073881Y-73167500D01*
X145073873Y-73167500D01*
X145073865Y-73167500D01*
X144426097Y-73167500D01*
X144359058Y-73147815D01*
X144338416Y-73131181D01*
X144184199Y-72976964D01*
X144173504Y-72964769D01*
X144154283Y-72939719D01*
X144094405Y-72893773D01*
X144028841Y-72843464D01*
X144003424Y-72832936D01*
X143882762Y-72782956D01*
X143882760Y-72782955D01*
X143765361Y-72767500D01*
X143726000Y-72762318D01*
X143694697Y-72766439D01*
X143678513Y-72767500D01*
X132356487Y-72767500D01*
X132340302Y-72766439D01*
X132309000Y-72762318D01*
X132269639Y-72767500D01*
X132152239Y-72782955D01*
X132152237Y-72782956D01*
X132006157Y-72843464D01*
X131880718Y-72939716D01*
X131861489Y-72964775D01*
X131850798Y-72976965D01*
X131417584Y-73410181D01*
X131356261Y-73443666D01*
X131329903Y-73446500D01*
X130998384Y-73446500D01*
X130979145Y-73448248D01*
X130927807Y-73452913D01*
X130765393Y-73503522D01*
X130619811Y-73591530D01*
X130499530Y-73711811D01*
X130411522Y-73857393D01*
X130360913Y-74019807D01*
X130354500Y-74090386D01*
X130354500Y-74753613D01*
X130360913Y-74824192D01*
X130360913Y-74824194D01*
X130360914Y-74824196D01*
X130392947Y-74926995D01*
X130394097Y-74996854D01*
X130362242Y-75051564D01*
X128756524Y-76657282D01*
X128695201Y-76690767D01*
X128668843Y-76693601D01*
X128012726Y-76693601D01*
X128012720Y-76693602D01*
X127953113Y-76700009D01*
X127818268Y-76750303D01*
X127818261Y-76750307D01*
X127703052Y-76836553D01*
X127703049Y-76836556D01*
X127616803Y-76951765D01*
X127616799Y-76951772D01*
X127566507Y-77086614D01*
X127566506Y-77086618D01*
X127560097Y-77146228D01*
X127560097Y-77146235D01*
X127560097Y-77146236D01*
X127560097Y-77673771D01*
X127560098Y-77673777D01*
X127565255Y-77721749D01*
X127565255Y-77748254D01*
X127560097Y-77796229D01*
X127560097Y-77796234D01*
X127560097Y-77796235D01*
X127560097Y-78323772D01*
X127560098Y-78323778D01*
X127565255Y-78371750D01*
X127565255Y-78398253D01*
X127560097Y-78446228D01*
X127560097Y-78446233D01*
X127560097Y-78446234D01*
X127560097Y-78973771D01*
X127560098Y-78973777D01*
X127565255Y-79021749D01*
X127565255Y-79048254D01*
X127560097Y-79096229D01*
X127560097Y-79096231D01*
X127560097Y-79096235D01*
X127560097Y-79623772D01*
X127560098Y-79623776D01*
X127565255Y-79671746D01*
X127565255Y-79698252D01*
X127560097Y-79746227D01*
X127560097Y-79853522D01*
X127560098Y-79935501D01*
X127540414Y-80002541D01*
X127487610Y-80048296D01*
X127436098Y-80059502D01*
X124928595Y-80059502D01*
X124887640Y-80052543D01*
X124763658Y-80009159D01*
X124763648Y-80009157D01*
X124590004Y-79989593D01*
X124589996Y-79989593D01*
X124416351Y-80009157D01*
X124416345Y-80009158D01*
X124336892Y-80036960D01*
X124267113Y-80040521D01*
X124208257Y-80007599D01*
X124142188Y-79941530D01*
X123996606Y-79853522D01*
X123834196Y-79802914D01*
X123834194Y-79802913D01*
X123834192Y-79802913D01*
X123784778Y-79798423D01*
X123763616Y-79796500D01*
X123250384Y-79796500D01*
X123231145Y-79798248D01*
X123179807Y-79802913D01*
X123017393Y-79853522D01*
X122871811Y-79941530D01*
X122871810Y-79941531D01*
X122769681Y-80043661D01*
X122708358Y-80077146D01*
X122638666Y-80072162D01*
X122594319Y-80043661D01*
X122492188Y-79941530D01*
X122346606Y-79853522D01*
X122184196Y-79802914D01*
X122184194Y-79802913D01*
X122184192Y-79802913D01*
X122134778Y-79798423D01*
X122113616Y-79796500D01*
X121600384Y-79796500D01*
X121581145Y-79798248D01*
X121529807Y-79802913D01*
X121367393Y-79853522D01*
X121221811Y-79941530D01*
X121101530Y-80061811D01*
X121013522Y-80207393D01*
X120962913Y-80369807D01*
X120956500Y-80440386D01*
X120956500Y-81103613D01*
X120962913Y-81174192D01*
X120962913Y-81174194D01*
X120962914Y-81174196D01*
X121013522Y-81336606D01*
X121101528Y-81482185D01*
X121170182Y-81550839D01*
X121203666Y-81612160D01*
X121206500Y-81638519D01*
X121206500Y-81696480D01*
X121186815Y-81763519D01*
X121170181Y-81784161D01*
X121144531Y-81809810D01*
X121144530Y-81809811D01*
X121056522Y-81955393D01*
X121005913Y-82117807D01*
X120999500Y-82188386D01*
X120999500Y-82851613D01*
X121005913Y-82922192D01*
X121005913Y-82922194D01*
X121005914Y-82922196D01*
X121056522Y-83084606D01*
X121144528Y-83230185D01*
X121170181Y-83255838D01*
X121203666Y-83317159D01*
X121206500Y-83343519D01*
X121206500Y-83406480D01*
X121186815Y-83473519D01*
X121170181Y-83494161D01*
X121144531Y-83519810D01*
X121144530Y-83519811D01*
X121056522Y-83665393D01*
X121005913Y-83827807D01*
X120999500Y-83898386D01*
X120999500Y-84561613D01*
X121005913Y-84632192D01*
X121005913Y-84632194D01*
X121005914Y-84632196D01*
X121056522Y-84794606D01*
X121144528Y-84940185D01*
X121170181Y-84965838D01*
X121203666Y-85027159D01*
X121206500Y-85053519D01*
X121206500Y-85376480D01*
X121186815Y-85443519D01*
X121170181Y-85464161D01*
X121054531Y-85579810D01*
X121054530Y-85579811D01*
X120966522Y-85725393D01*
X120915913Y-85887807D01*
X120909500Y-85958386D01*
X120909500Y-86621613D01*
X120915913Y-86692192D01*
X120915913Y-86692194D01*
X120915914Y-86692196D01*
X120966522Y-86854606D01*
X121054528Y-87000185D01*
X121170182Y-87115839D01*
X121203666Y-87177160D01*
X121206500Y-87203519D01*
X121206500Y-87416480D01*
X121186815Y-87483519D01*
X121170181Y-87504161D01*
X121084531Y-87589810D01*
X121084530Y-87589811D01*
X120996522Y-87735393D01*
X120945913Y-87897807D01*
X120939500Y-87968386D01*
X120939500Y-88631613D01*
X120945913Y-88702192D01*
X120945913Y-88702194D01*
X120945914Y-88702196D01*
X120996522Y-88864606D01*
X121078272Y-88999837D01*
X121084530Y-89010188D01*
X121170181Y-89095839D01*
X121203666Y-89157162D01*
X121206500Y-89183520D01*
X121206500Y-89222576D01*
X121186815Y-89289615D01*
X121164744Y-89313850D01*
X121165118Y-89314224D01*
X121039531Y-89439810D01*
X121039530Y-89439811D01*
X120951522Y-89585393D01*
X120900913Y-89747807D01*
X120894500Y-89818386D01*
X120894500Y-90481613D01*
X120900913Y-90552192D01*
X120900913Y-90552194D01*
X120900914Y-90552196D01*
X120951522Y-90714606D01*
X121039528Y-90860185D01*
X121159815Y-90980472D01*
X121159817Y-90980473D01*
X121162661Y-90983317D01*
X121196146Y-91044640D01*
X121191162Y-91114332D01*
X121162662Y-91158680D01*
X121101529Y-91219813D01*
X121013522Y-91365393D01*
X120962913Y-91527807D01*
X120956500Y-91598386D01*
X120956500Y-92261613D01*
X120962913Y-92332192D01*
X120962913Y-92332194D01*
X120962914Y-92332196D01*
X121013522Y-92494606D01*
X121095541Y-92630282D01*
X121101530Y-92640188D01*
X121221811Y-92760469D01*
X121221813Y-92760470D01*
X121221815Y-92760472D01*
X121367394Y-92848478D01*
X121529804Y-92899086D01*
X121600384Y-92905500D01*
X121861192Y-92905500D01*
X121928231Y-92925185D01*
X121948873Y-92941819D01*
X122536565Y-93529511D01*
X122546636Y-93542081D01*
X122546823Y-93541927D01*
X122551796Y-93547938D01*
X122602833Y-93595865D01*
X122605630Y-93598576D01*
X122625969Y-93618915D01*
X122629452Y-93621617D01*
X122638328Y-93629198D01*
X122650847Y-93640954D01*
X122671608Y-93660449D01*
X122690199Y-93670669D01*
X122706464Y-93681353D01*
X122723235Y-93694362D01*
X122723238Y-93694364D01*
X122765145Y-93712498D01*
X122775619Y-93717629D01*
X122815633Y-93739628D01*
X122836194Y-93744906D01*
X122854598Y-93751208D01*
X122874075Y-93759637D01*
X122919179Y-93766780D01*
X122930598Y-93769145D01*
X122974824Y-93780501D01*
X122996046Y-93780501D01*
X123015443Y-93782027D01*
X123036406Y-93785348D01*
X123081864Y-93781050D01*
X123093532Y-93780501D01*
X129873992Y-93780501D01*
X129941031Y-93800186D01*
X129986786Y-93852990D01*
X129996492Y-93910534D01*
X129996998Y-93910519D01*
X129997113Y-93914218D01*
X129997442Y-93916167D01*
X129996508Y-93926051D01*
X129996270Y-93926028D01*
X129995876Y-93931032D01*
X129996117Y-93931048D01*
X129995627Y-93938834D01*
X129999256Y-93996510D01*
X129999501Y-94004297D01*
X129999501Y-94020919D01*
X129999502Y-94020937D01*
X130000054Y-94025310D01*
X130000969Y-94036939D01*
X130002403Y-94082566D01*
X130003624Y-94090271D01*
X130003387Y-94090308D01*
X130004247Y-94095238D01*
X130004484Y-94095193D01*
X130005947Y-94102862D01*
X130008715Y-94111381D01*
X130013803Y-94134144D01*
X130014928Y-94143050D01*
X130014929Y-94143055D01*
X130031739Y-94185514D01*
X130035521Y-94196562D01*
X130048256Y-94240396D01*
X130051355Y-94247557D01*
X130051133Y-94247653D01*
X130053197Y-94252224D01*
X130053417Y-94252121D01*
X130056734Y-94259170D01*
X130061535Y-94266735D01*
X130072135Y-94287539D01*
X130075433Y-94295870D01*
X130102267Y-94332805D01*
X130108679Y-94342567D01*
X130131920Y-94381864D01*
X130131925Y-94381869D01*
X130136701Y-94388026D01*
X130136508Y-94388175D01*
X130139641Y-94392085D01*
X130139828Y-94391931D01*
X130144797Y-94397937D01*
X130151330Y-94404072D01*
X130166766Y-94421581D01*
X130172035Y-94428833D01*
X130172037Y-94428836D01*
X130207216Y-94457938D01*
X130215857Y-94465801D01*
X130218965Y-94468909D01*
X130222442Y-94471606D01*
X130231327Y-94479194D01*
X130264607Y-94510446D01*
X130264614Y-94510452D01*
X130272467Y-94514769D01*
X130291771Y-94527888D01*
X130298668Y-94533594D01*
X130298672Y-94533596D01*
X130298675Y-94533599D01*
X130298678Y-94533600D01*
X130305259Y-94537776D01*
X130305127Y-94537982D01*
X130309402Y-94540602D01*
X130309526Y-94540393D01*
X130316238Y-94544363D01*
X130358141Y-94562496D01*
X130368629Y-94567634D01*
X130408635Y-94589628D01*
X130417329Y-94591860D01*
X130439287Y-94599766D01*
X130447388Y-94603578D01*
X130454808Y-94605989D01*
X130454732Y-94606220D01*
X130459512Y-94607691D01*
X130459580Y-94607459D01*
X130467074Y-94609635D01*
X130467077Y-94609637D01*
X130512181Y-94616780D01*
X130523600Y-94619145D01*
X130567826Y-94630501D01*
X130576801Y-94630501D01*
X130600032Y-94632697D01*
X130604846Y-94633614D01*
X130608831Y-94634375D01*
X130608837Y-94634374D01*
X130616620Y-94634865D01*
X130616604Y-94635110D01*
X130621601Y-94635345D01*
X130621609Y-94635103D01*
X130629400Y-94635346D01*
X130629408Y-94635348D01*
X130674863Y-94631051D01*
X130686533Y-94630501D01*
X133010494Y-94630501D01*
X133026504Y-94632268D01*
X133026527Y-94632027D01*
X133034288Y-94632759D01*
X133034295Y-94632761D01*
X133104261Y-94630561D01*
X133108156Y-94630501D01*
X133136924Y-94630501D01*
X133488428Y-94630501D01*
X133555467Y-94650186D01*
X133601222Y-94702990D01*
X133611166Y-94772148D01*
X133587694Y-94828812D01*
X133506206Y-94937664D01*
X133506202Y-94937671D01*
X133455908Y-95072517D01*
X133452382Y-95105319D01*
X133449501Y-95132123D01*
X133449500Y-95132135D01*
X133449500Y-96527870D01*
X133449501Y-96527876D01*
X133455908Y-96587483D01*
X133506202Y-96722328D01*
X133506206Y-96722335D01*
X133592452Y-96837544D01*
X133592455Y-96837547D01*
X133707664Y-96923793D01*
X133707671Y-96923797D01*
X133842517Y-96974091D01*
X133842516Y-96974091D01*
X133849444Y-96974835D01*
X133902127Y-96980500D01*
X135997872Y-96980499D01*
X136057483Y-96974091D01*
X136192331Y-96923796D01*
X136307546Y-96837546D01*
X136393796Y-96722331D01*
X136444091Y-96587483D01*
X136450500Y-96527873D01*
X136450499Y-95132128D01*
X136444091Y-95072517D01*
X136441879Y-95066587D01*
X136393797Y-94937671D01*
X136393793Y-94937664D01*
X136312306Y-94828812D01*
X136287888Y-94763348D01*
X136302739Y-94695075D01*
X136352144Y-94645669D01*
X136411572Y-94630501D01*
X137408583Y-94630501D01*
X137475622Y-94650186D01*
X137496264Y-94666820D01*
X140510954Y-97681509D01*
X140521030Y-97694086D01*
X140521217Y-97693932D01*
X140526184Y-97699937D01*
X140577237Y-97747878D01*
X140580037Y-97750592D01*
X140600352Y-97770908D01*
X140603829Y-97773605D01*
X140612710Y-97781190D01*
X140645997Y-97812448D01*
X140652907Y-97816247D01*
X140664597Y-97822674D01*
X140680858Y-97833355D01*
X140697627Y-97846363D01*
X140739534Y-97864497D01*
X140750008Y-97869628D01*
X140790022Y-97891627D01*
X140810583Y-97896905D01*
X140828987Y-97903207D01*
X140848464Y-97911636D01*
X140893568Y-97918779D01*
X140904987Y-97921144D01*
X140949213Y-97932500D01*
X140970435Y-97932500D01*
X140989832Y-97934026D01*
X141010795Y-97937347D01*
X141056250Y-97933050D01*
X141067920Y-97932500D01*
X145992914Y-97932500D01*
X146059953Y-97952185D01*
X146088768Y-97977836D01*
X146101117Y-97992883D01*
X146253460Y-98117909D01*
X146253467Y-98117913D01*
X146343696Y-98166142D01*
X146393540Y-98215104D01*
X146409001Y-98283242D01*
X146385169Y-98348922D01*
X146329612Y-98391290D01*
X146285243Y-98399500D01*
X119304500Y-98399500D01*
X119237461Y-98379815D01*
X119191706Y-98327011D01*
X119180500Y-98275500D01*
X119180500Y-95440001D01*
X121834532Y-95440001D01*
X121854364Y-95666686D01*
X121854366Y-95666697D01*
X121913258Y-95886488D01*
X121913261Y-95886497D01*
X122009431Y-96092732D01*
X122009432Y-96092734D01*
X122139954Y-96279141D01*
X122300858Y-96440045D01*
X122300861Y-96440047D01*
X122487266Y-96570568D01*
X122693504Y-96666739D01*
X122913308Y-96725635D01*
X123083214Y-96740499D01*
X123083215Y-96740500D01*
X123083216Y-96740500D01*
X123196785Y-96740500D01*
X123196785Y-96740499D01*
X123366692Y-96725635D01*
X123586496Y-96666739D01*
X123792734Y-96570568D01*
X123853714Y-96527870D01*
X126849504Y-96527870D01*
X126849505Y-96527876D01*
X126855912Y-96587483D01*
X126906206Y-96722328D01*
X126906210Y-96722335D01*
X126992456Y-96837544D01*
X126992459Y-96837547D01*
X127107668Y-96923793D01*
X127107675Y-96923797D01*
X127242521Y-96974091D01*
X127242520Y-96974091D01*
X127249448Y-96974835D01*
X127302131Y-96980500D01*
X129397876Y-96980499D01*
X129457487Y-96974091D01*
X129592335Y-96923796D01*
X129707550Y-96837546D01*
X129793800Y-96722331D01*
X129844095Y-96587483D01*
X129850504Y-96527873D01*
X129850503Y-95132128D01*
X129844095Y-95072517D01*
X129841883Y-95066587D01*
X129793801Y-94937671D01*
X129793797Y-94937664D01*
X129707551Y-94822455D01*
X129707548Y-94822452D01*
X129592339Y-94736206D01*
X129592332Y-94736202D01*
X129457486Y-94685908D01*
X129457487Y-94685908D01*
X129397887Y-94679501D01*
X129397885Y-94679500D01*
X129397877Y-94679500D01*
X129397868Y-94679500D01*
X127302133Y-94679500D01*
X127302127Y-94679501D01*
X127242520Y-94685908D01*
X127107675Y-94736202D01*
X127107668Y-94736206D01*
X126992459Y-94822452D01*
X126992456Y-94822455D01*
X126906210Y-94937664D01*
X126906206Y-94937671D01*
X126855912Y-95072517D01*
X126852386Y-95105319D01*
X126849505Y-95132123D01*
X126849504Y-95132135D01*
X126849504Y-96527870D01*
X123853714Y-96527870D01*
X123979139Y-96440047D01*
X124140047Y-96279139D01*
X124270568Y-96092734D01*
X124366739Y-95886496D01*
X124425635Y-95666692D01*
X124445468Y-95440000D01*
X124425635Y-95213308D01*
X124366739Y-94993504D01*
X124270568Y-94787266D01*
X124162038Y-94632268D01*
X124140045Y-94600858D01*
X123979141Y-94439954D01*
X123792734Y-94309432D01*
X123792732Y-94309431D01*
X123586497Y-94213261D01*
X123586488Y-94213258D01*
X123366697Y-94154366D01*
X123366687Y-94154364D01*
X123196785Y-94139500D01*
X123196784Y-94139500D01*
X123083216Y-94139500D01*
X123083215Y-94139500D01*
X122913312Y-94154364D01*
X122913302Y-94154366D01*
X122693511Y-94213258D01*
X122693502Y-94213261D01*
X122487267Y-94309431D01*
X122487265Y-94309432D01*
X122300858Y-94439954D01*
X122139954Y-94600858D01*
X122009432Y-94787265D01*
X122009431Y-94787267D01*
X121913261Y-94993502D01*
X121913258Y-94993511D01*
X121854366Y-95213302D01*
X121854364Y-95213313D01*
X121834532Y-95439998D01*
X121834532Y-95440001D01*
X119180500Y-95440001D01*
X119180500Y-77634898D01*
X119198568Y-77570444D01*
X119357033Y-77310001D01*
X121804532Y-77310001D01*
X121824364Y-77536686D01*
X121824366Y-77536697D01*
X121883258Y-77756488D01*
X121883261Y-77756497D01*
X121979431Y-77962732D01*
X121979432Y-77962734D01*
X122109954Y-78149141D01*
X122270858Y-78310045D01*
X122290465Y-78323774D01*
X122457266Y-78440568D01*
X122663504Y-78536739D01*
X122883308Y-78595635D01*
X123053214Y-78610499D01*
X123053215Y-78610500D01*
X123053216Y-78610500D01*
X123166785Y-78610500D01*
X123166785Y-78610499D01*
X123336692Y-78595635D01*
X123556496Y-78536739D01*
X123762734Y-78440568D01*
X123949139Y-78310047D01*
X124110047Y-78149139D01*
X124240568Y-77962734D01*
X124336739Y-77756496D01*
X124395635Y-77536692D01*
X124415468Y-77310000D01*
X124395635Y-77083308D01*
X124336739Y-76863504D01*
X124240568Y-76657266D01*
X124110047Y-76470861D01*
X124110045Y-76470858D01*
X123949141Y-76309954D01*
X123762734Y-76179432D01*
X123762732Y-76179431D01*
X123556497Y-76083261D01*
X123556488Y-76083258D01*
X123336697Y-76024366D01*
X123336687Y-76024364D01*
X123166785Y-76009500D01*
X123166784Y-76009500D01*
X123053216Y-76009500D01*
X123053215Y-76009500D01*
X122883312Y-76024364D01*
X122883302Y-76024366D01*
X122663511Y-76083258D01*
X122663502Y-76083261D01*
X122457267Y-76179431D01*
X122457265Y-76179432D01*
X122270858Y-76309954D01*
X122109954Y-76470858D01*
X121979432Y-76657265D01*
X121979431Y-76657267D01*
X121883261Y-76863502D01*
X121883258Y-76863511D01*
X121824366Y-77083302D01*
X121824364Y-77083313D01*
X121804532Y-77309998D01*
X121804532Y-77310001D01*
X119357033Y-77310001D01*
X122314080Y-72449995D01*
X122365741Y-72402957D01*
X122419923Y-72390451D01*
X166555562Y-72360583D01*
X166622613Y-72380222D01*
G37*
%TD.AperFunction*%
%TA.AperFunction,Conductor*%
G36*
X160071191Y-93092184D02*
G01*
X160116946Y-93144988D01*
X160127442Y-93183246D01*
X160129931Y-93206400D01*
X160129931Y-93232905D01*
X160126938Y-93260751D01*
X160100202Y-93325303D01*
X160042810Y-93365152D01*
X160003648Y-93371499D01*
X155797782Y-93371499D01*
X155730743Y-93351814D01*
X155710101Y-93335180D01*
X155659101Y-93284180D01*
X155625616Y-93222857D01*
X155630600Y-93153165D01*
X155672472Y-93097232D01*
X155737936Y-93072815D01*
X155746782Y-93072499D01*
X160004152Y-93072499D01*
X160071191Y-93092184D01*
G37*
%TD.AperFunction*%
%TA.AperFunction,Conductor*%
G36*
X127640120Y-86382225D02*
G01*
X127696051Y-86424094D01*
X127703051Y-86433445D01*
X127715978Y-86443122D01*
X127818261Y-86519692D01*
X127818268Y-86519696D01*
X127863215Y-86536460D01*
X127953114Y-86569990D01*
X128012724Y-86576399D01*
X128163898Y-86576398D01*
X128230937Y-86596082D01*
X128276692Y-86648886D01*
X128287898Y-86700398D01*
X128287898Y-87641438D01*
X128280940Y-87682392D01*
X128271158Y-87710345D01*
X128271157Y-87710351D01*
X128251593Y-87883996D01*
X128251593Y-87884005D01*
X128261215Y-87969412D01*
X128249160Y-88038234D01*
X128201810Y-88089612D01*
X128182214Y-88098396D01*
X128182235Y-88098443D01*
X128175397Y-88101520D01*
X128029811Y-88189530D01*
X127909530Y-88309811D01*
X127821522Y-88455393D01*
X127770913Y-88617807D01*
X127764500Y-88688386D01*
X127764500Y-89201613D01*
X127770913Y-89272192D01*
X127770913Y-89272194D01*
X127770914Y-89272196D01*
X127821522Y-89434606D01*
X127894198Y-89554827D01*
X127909530Y-89580188D01*
X128012015Y-89682673D01*
X128045500Y-89743996D01*
X128040516Y-89813688D01*
X128012015Y-89858035D01*
X127909928Y-89960121D01*
X127909927Y-89960122D01*
X127821980Y-90105604D01*
X127771409Y-90267893D01*
X127765000Y-90338427D01*
X127765000Y-90345000D01*
X128866000Y-90345000D01*
X128933039Y-90364685D01*
X128978794Y-90417489D01*
X128990000Y-90469000D01*
X128990000Y-91494999D01*
X129071581Y-91494999D01*
X129142102Y-91488591D01*
X129142107Y-91488590D01*
X129286609Y-91443562D01*
X129356469Y-91442410D01*
X129415862Y-91479211D01*
X129445930Y-91542280D01*
X129447500Y-91561947D01*
X129447500Y-91646512D01*
X129446439Y-91662697D01*
X129442426Y-91693182D01*
X129442318Y-91694000D01*
X129452896Y-91774351D01*
X129454356Y-91785436D01*
X129454356Y-91785437D01*
X129462955Y-91850760D01*
X129462956Y-91850762D01*
X129521329Y-91991688D01*
X129523464Y-91996841D01*
X129619239Y-92121658D01*
X129619719Y-92122283D01*
X129644769Y-92141504D01*
X129656964Y-92152199D01*
X129772585Y-92267820D01*
X129806070Y-92329143D01*
X129801086Y-92398835D01*
X129759214Y-92454768D01*
X129693750Y-92479185D01*
X129684904Y-92479501D01*
X124522879Y-92479501D01*
X124455840Y-92459816D01*
X124410085Y-92407012D01*
X124400141Y-92337854D01*
X124401058Y-92332501D01*
X124407500Y-92261613D01*
X124407500Y-91930096D01*
X124427185Y-91863057D01*
X124443815Y-91842419D01*
X124811600Y-91474633D01*
X124872921Y-91441150D01*
X124885394Y-91439095D01*
X124887657Y-91438841D01*
X125052606Y-91381122D01*
X125200576Y-91288147D01*
X125324147Y-91164576D01*
X125417122Y-91016606D01*
X125473533Y-90855394D01*
X125474840Y-90851660D01*
X125474840Y-90851659D01*
X125474841Y-90851657D01*
X125475095Y-90849399D01*
X125475667Y-90848037D01*
X125476361Y-90845000D01*
X127765001Y-90845000D01*
X127765001Y-90851582D01*
X127771408Y-90922102D01*
X127771409Y-90922107D01*
X127821981Y-91084396D01*
X127909927Y-91229877D01*
X128030122Y-91350072D01*
X128175604Y-91438019D01*
X128175603Y-91438019D01*
X128337894Y-91488590D01*
X128337892Y-91488590D01*
X128408418Y-91494999D01*
X128489999Y-91494998D01*
X128490000Y-91494998D01*
X128490000Y-90845000D01*
X127765001Y-90845000D01*
X125476361Y-90845000D01*
X125476390Y-90844871D01*
X125476944Y-90844997D01*
X125502160Y-90784985D01*
X125510625Y-90775608D01*
X126103043Y-90183190D01*
X126115223Y-90172509D01*
X126140282Y-90153282D01*
X126236536Y-90027841D01*
X126297044Y-89881762D01*
X126317683Y-89725000D01*
X126313561Y-89693689D01*
X126312500Y-89677504D01*
X126312500Y-87658694D01*
X126332185Y-87591655D01*
X126348814Y-87571018D01*
X127509107Y-86410724D01*
X127570428Y-86377241D01*
X127640120Y-86382225D01*
G37*
%TD.AperFunction*%
%TA.AperFunction,Conductor*%
G36*
X159459587Y-73988185D02*
G01*
X159480229Y-74004819D01*
X159492015Y-74016605D01*
X159525500Y-74077928D01*
X159527737Y-74116439D01*
X159522659Y-74167999D01*
X159541975Y-74364129D01*
X159541976Y-74364132D01*
X159599128Y-74552537D01*
X159599188Y-74552733D01*
X159692086Y-74726532D01*
X159692090Y-74726539D01*
X159817116Y-74878883D01*
X159969460Y-75003909D01*
X159969467Y-75003913D01*
X160143266Y-75096811D01*
X160143269Y-75096811D01*
X160143273Y-75096814D01*
X160331868Y-75154024D01*
X160528000Y-75173341D01*
X160579560Y-75168262D01*
X160648203Y-75181280D01*
X160679394Y-75203984D01*
X161289181Y-75813771D01*
X161322666Y-75875094D01*
X161325500Y-75901452D01*
X161325500Y-91697499D01*
X161305815Y-91764538D01*
X161253011Y-91810293D01*
X161201500Y-91821499D01*
X160578129Y-91821499D01*
X160578123Y-91821500D01*
X160518516Y-91827907D01*
X160422604Y-91863681D01*
X160379271Y-91871499D01*
X155764096Y-91871499D01*
X155697057Y-91851814D01*
X155676415Y-91835180D01*
X149988819Y-86147584D01*
X149955334Y-86086261D01*
X149952500Y-86059903D01*
X149952500Y-82833652D01*
X149971505Y-82767682D01*
X150055122Y-82634606D01*
X150112841Y-82469657D01*
X150132407Y-82296000D01*
X150127879Y-82255814D01*
X150112842Y-82122351D01*
X150112841Y-82122349D01*
X150112841Y-82122343D01*
X150055122Y-81957394D01*
X149962147Y-81809424D01*
X149838576Y-81685853D01*
X149690606Y-81592878D01*
X149690605Y-81592877D01*
X149690604Y-81592877D01*
X149525658Y-81535159D01*
X149525648Y-81535157D01*
X149352004Y-81515593D01*
X149351996Y-81515593D01*
X149178351Y-81535157D01*
X149178341Y-81535159D01*
X149013395Y-81592877D01*
X148865423Y-81685853D01*
X148741853Y-81809423D01*
X148648877Y-81957395D01*
X148591159Y-82122341D01*
X148591157Y-82122351D01*
X148571593Y-82295996D01*
X148571593Y-82296003D01*
X148591157Y-82469648D01*
X148591159Y-82469658D01*
X148619678Y-82551159D01*
X148648878Y-82634606D01*
X148732494Y-82767682D01*
X148751500Y-82833652D01*
X148751500Y-86077217D01*
X148731815Y-86144256D01*
X148679011Y-86190011D01*
X148609853Y-86199955D01*
X148546297Y-86170930D01*
X148539819Y-86164898D01*
X145574257Y-83199336D01*
X145544015Y-83144611D01*
X145543142Y-83144917D01*
X145541342Y-83139773D01*
X145541044Y-83139234D01*
X145540839Y-83138335D01*
X145483122Y-82973395D01*
X145483122Y-82973394D01*
X145390147Y-82825424D01*
X145266576Y-82701853D01*
X145118606Y-82608878D01*
X145118605Y-82608877D01*
X145118604Y-82608877D01*
X144953658Y-82551159D01*
X144953648Y-82551157D01*
X144780004Y-82531593D01*
X144779996Y-82531593D01*
X144606351Y-82551157D01*
X144606341Y-82551159D01*
X144441395Y-82608877D01*
X144293423Y-82701853D01*
X144169853Y-82825423D01*
X144076877Y-82973395D01*
X144019159Y-83138341D01*
X144019157Y-83138351D01*
X143999593Y-83311996D01*
X143999593Y-83312003D01*
X144019157Y-83485648D01*
X144019159Y-83485658D01*
X144076877Y-83650604D01*
X144076878Y-83650606D01*
X144169853Y-83798576D01*
X144293424Y-83922147D01*
X144441394Y-84015122D01*
X144606343Y-84072841D01*
X144606349Y-84072841D01*
X144606351Y-84072842D01*
X144724325Y-84086134D01*
X144788740Y-84113200D01*
X144798124Y-84121673D01*
X151666270Y-90989819D01*
X151699755Y-91051142D01*
X151694771Y-91120834D01*
X151652899Y-91176767D01*
X151587435Y-91201184D01*
X151578589Y-91201500D01*
X149482066Y-91201500D01*
X149415027Y-91181815D01*
X149369272Y-91129011D01*
X149358846Y-91091384D01*
X149350842Y-91020350D01*
X149350841Y-91020348D01*
X149350841Y-91020343D01*
X149293122Y-90855394D01*
X149200147Y-90707424D01*
X149076576Y-90583853D01*
X148928606Y-90490878D01*
X148928605Y-90490877D01*
X148928604Y-90490877D01*
X148763654Y-90433158D01*
X148710681Y-90427189D01*
X148646268Y-90400122D01*
X148636885Y-90391650D01*
X143130819Y-84885584D01*
X143097334Y-84824261D01*
X143094500Y-84797903D01*
X143094500Y-82071652D01*
X143113505Y-82005682D01*
X143197122Y-81872606D01*
X143254841Y-81707657D01*
X143267773Y-81592878D01*
X143274407Y-81534003D01*
X143274407Y-81533996D01*
X143254842Y-81360351D01*
X143254841Y-81360349D01*
X143254841Y-81360343D01*
X143197122Y-81195394D01*
X143104147Y-81047424D01*
X142980576Y-80923853D01*
X142846317Y-80839493D01*
X142800027Y-80787160D01*
X142789378Y-80718106D01*
X142817753Y-80654258D01*
X142876143Y-80615885D01*
X142912290Y-80610500D01*
X151336513Y-80610500D01*
X151352697Y-80611560D01*
X151384000Y-80615682D01*
X151384001Y-80615682D01*
X151436254Y-80608802D01*
X151540762Y-80595044D01*
X151686841Y-80534536D01*
X151727627Y-80503240D01*
X151812282Y-80438282D01*
X151831509Y-80413223D01*
X151842190Y-80401043D01*
X157042421Y-75200812D01*
X157103742Y-75167329D01*
X157142251Y-75165092D01*
X157226000Y-75173341D01*
X157422132Y-75154024D01*
X157610727Y-75096814D01*
X157630091Y-75086464D01*
X157735587Y-75030075D01*
X157784538Y-75003910D01*
X157936883Y-74878883D01*
X158061910Y-74726538D01*
X158154814Y-74552727D01*
X158212024Y-74364132D01*
X158231341Y-74168000D01*
X158225102Y-74104653D01*
X158238121Y-74036008D01*
X158286186Y-73985298D01*
X158348505Y-73968500D01*
X159392548Y-73968500D01*
X159459587Y-73988185D01*
G37*
%TD.AperFunction*%
%TA.AperFunction,Conductor*%
G36*
X131432539Y-90269685D02*
G01*
X131478294Y-90322489D01*
X131489500Y-90374000D01*
X131489500Y-91655780D01*
X131469815Y-91722819D01*
X131417011Y-91768574D01*
X131347853Y-91778518D01*
X131318049Y-91770342D01*
X131283560Y-91756056D01*
X131256763Y-91744957D01*
X131256761Y-91744956D01*
X131139362Y-91729501D01*
X131100001Y-91724319D01*
X131068698Y-91728440D01*
X131052514Y-91729501D01*
X130984098Y-91729501D01*
X130917059Y-91709816D01*
X130896417Y-91693182D01*
X130880497Y-91677262D01*
X130847012Y-91615939D01*
X130851996Y-91546247D01*
X130893868Y-91490314D01*
X130959332Y-91465897D01*
X130980782Y-91466223D01*
X131066685Y-91474999D01*
X131090000Y-91474998D01*
X131090000Y-90426901D01*
X131109685Y-90359862D01*
X131126319Y-90339220D01*
X131179220Y-90286319D01*
X131240543Y-90252834D01*
X131266901Y-90250000D01*
X131365500Y-90250000D01*
X131432539Y-90269685D01*
G37*
%TD.AperFunction*%
%TA.AperFunction,Conductor*%
G36*
X133760703Y-82274895D02*
G01*
X133767181Y-82280927D01*
X134495764Y-83009510D01*
X134505835Y-83022080D01*
X134506022Y-83021926D01*
X134510995Y-83027937D01*
X134562032Y-83075864D01*
X134564829Y-83078575D01*
X134585168Y-83098914D01*
X134588651Y-83101616D01*
X134597527Y-83109197D01*
X134603890Y-83115172D01*
X134630807Y-83140448D01*
X134649398Y-83150668D01*
X134665663Y-83161352D01*
X134682434Y-83174361D01*
X134682437Y-83174363D01*
X134724344Y-83192497D01*
X134734818Y-83197628D01*
X134774832Y-83219627D01*
X134782010Y-83221469D01*
X134842049Y-83257204D01*
X134873238Y-83319726D01*
X134865674Y-83389185D01*
X134826664Y-83439951D01*
X134772233Y-83481716D01*
X134753004Y-83506775D01*
X134742313Y-83518965D01*
X133767181Y-84494098D01*
X133705858Y-84527583D01*
X133636167Y-84522599D01*
X133580233Y-84480727D01*
X133555816Y-84415263D01*
X133555500Y-84406417D01*
X133555500Y-82368608D01*
X133575185Y-82301569D01*
X133627989Y-82255814D01*
X133697147Y-82245870D01*
X133760703Y-82274895D01*
G37*
%TD.AperFunction*%
%TA.AperFunction,Conductor*%
G36*
X147316000Y-75137159D02*
G01*
X147450534Y-75096349D01*
X147553047Y-75041556D01*
X147621450Y-75027315D01*
X147686694Y-75052315D01*
X147728064Y-75108621D01*
X147735500Y-75150915D01*
X147735500Y-78273903D01*
X147715815Y-78340942D01*
X147699181Y-78361584D01*
X147487584Y-78573181D01*
X147426261Y-78606666D01*
X147399903Y-78609500D01*
X141872202Y-78609500D01*
X141805163Y-78589815D01*
X141759408Y-78537011D01*
X141749464Y-78467853D01*
X141778489Y-78404297D01*
X141819795Y-78373118D01*
X141876734Y-78346568D01*
X142063139Y-78216047D01*
X142224047Y-78055139D01*
X142354568Y-77868734D01*
X142450739Y-77662496D01*
X142509635Y-77442692D01*
X142529468Y-77216000D01*
X142509635Y-76989308D01*
X142450739Y-76769504D01*
X142354568Y-76563266D01*
X142224047Y-76376861D01*
X142224045Y-76376858D01*
X142063141Y-76215954D01*
X141876734Y-76085432D01*
X141876732Y-76085431D01*
X141670497Y-75989261D01*
X141670488Y-75989258D01*
X141450697Y-75930366D01*
X141450687Y-75930364D01*
X141280785Y-75915500D01*
X141280784Y-75915500D01*
X141167216Y-75915500D01*
X141167215Y-75915500D01*
X140997312Y-75930364D01*
X140997302Y-75930366D01*
X140777511Y-75989258D01*
X140777502Y-75989261D01*
X140571267Y-76085431D01*
X140571265Y-76085432D01*
X140384858Y-76215954D01*
X140223954Y-76376858D01*
X140093432Y-76563265D01*
X140093431Y-76563267D01*
X139997261Y-76769502D01*
X139997258Y-76769511D01*
X139938366Y-76989302D01*
X139938364Y-76989313D01*
X139918532Y-77215998D01*
X139918532Y-77216001D01*
X139938364Y-77442686D01*
X139938366Y-77442697D01*
X139997258Y-77662488D01*
X139997261Y-77662497D01*
X140093431Y-77868732D01*
X140093432Y-77868734D01*
X140223954Y-78055141D01*
X140384858Y-78216045D01*
X140384861Y-78216047D01*
X140571266Y-78346568D01*
X140600326Y-78360119D01*
X140652764Y-78406291D01*
X140671915Y-78473485D01*
X140651699Y-78540366D01*
X140598533Y-78585700D01*
X140547919Y-78596500D01*
X140402880Y-78596500D01*
X140335841Y-78576815D01*
X140315199Y-78560181D01*
X138773983Y-77018965D01*
X138763288Y-77006770D01*
X138744067Y-76981720D01*
X138705038Y-76951772D01*
X138618625Y-76885465D01*
X138565623Y-76863511D01*
X138472546Y-76824957D01*
X138472544Y-76824956D01*
X138355145Y-76809501D01*
X138315784Y-76804319D01*
X138284481Y-76808440D01*
X138268297Y-76809501D01*
X137334480Y-76809501D01*
X137267441Y-76789816D01*
X137260169Y-76784768D01*
X137214132Y-76750305D01*
X137214129Y-76750303D01*
X137079283Y-76700009D01*
X137079284Y-76700009D01*
X137019684Y-76693602D01*
X137019682Y-76693601D01*
X137019674Y-76693601D01*
X137019665Y-76693601D01*
X135268328Y-76693601D01*
X135268322Y-76693602D01*
X135208715Y-76700009D01*
X135073870Y-76750303D01*
X135073863Y-76750307D01*
X134958654Y-76836553D01*
X134958651Y-76836556D01*
X134872405Y-76951765D01*
X134872401Y-76951772D01*
X134822109Y-77086614D01*
X134822108Y-77086618D01*
X134815699Y-77146228D01*
X134815699Y-77146235D01*
X134815699Y-77146236D01*
X134815699Y-77673771D01*
X134815700Y-77673777D01*
X134820857Y-77721749D01*
X134820857Y-77748254D01*
X134815699Y-77796229D01*
X134815699Y-77796234D01*
X134815699Y-77796235D01*
X134815699Y-78323772D01*
X134815700Y-78323778D01*
X134820857Y-78371750D01*
X134820857Y-78398253D01*
X134815699Y-78446228D01*
X134815699Y-78446233D01*
X134815699Y-78446234D01*
X134815699Y-78973771D01*
X134815700Y-78973777D01*
X134820857Y-79021749D01*
X134820857Y-79048254D01*
X134815699Y-79096229D01*
X134815699Y-79096231D01*
X134815699Y-79096235D01*
X134815699Y-79623772D01*
X134815700Y-79623776D01*
X134820857Y-79671746D01*
X134820857Y-79698252D01*
X134815699Y-79746227D01*
X134815699Y-79746232D01*
X134815699Y-79746233D01*
X134815699Y-80273770D01*
X134815700Y-80273776D01*
X134820857Y-80321747D01*
X134820857Y-80348253D01*
X134815699Y-80396232D01*
X134815699Y-80923772D01*
X134815700Y-80923776D01*
X134820857Y-80971745D01*
X134820857Y-80998252D01*
X134815699Y-81046227D01*
X134815699Y-81046232D01*
X134815699Y-81190191D01*
X134796014Y-81257230D01*
X134743210Y-81302985D01*
X134674052Y-81312929D01*
X134610496Y-81283904D01*
X134604018Y-81277872D01*
X133591819Y-80265673D01*
X133558334Y-80204350D01*
X133555500Y-80177992D01*
X133555500Y-75288519D01*
X133575185Y-75221480D01*
X133591814Y-75200842D01*
X133660472Y-75132185D01*
X133748478Y-74986606D01*
X133799086Y-74824196D01*
X133805500Y-74753616D01*
X133805500Y-74592500D01*
X133825185Y-74525461D01*
X133877989Y-74479706D01*
X133929500Y-74468500D01*
X142077192Y-74468500D01*
X142144231Y-74488185D01*
X142164873Y-74504819D01*
X143077564Y-75417510D01*
X143087635Y-75430080D01*
X143087822Y-75429926D01*
X143092795Y-75435937D01*
X143092797Y-75435939D01*
X143092798Y-75435940D01*
X143114460Y-75456282D01*
X143143832Y-75483864D01*
X143146629Y-75486575D01*
X143166967Y-75506913D01*
X143170450Y-75509615D01*
X143179326Y-75517196D01*
X143197625Y-75534379D01*
X143212607Y-75548448D01*
X143218433Y-75551651D01*
X143231205Y-75558672D01*
X143247470Y-75569357D01*
X143264232Y-75582360D01*
X143264235Y-75582361D01*
X143264236Y-75582362D01*
X143306140Y-75600495D01*
X143316612Y-75605625D01*
X143356632Y-75627627D01*
X143372340Y-75631659D01*
X143377186Y-75632904D01*
X143395598Y-75639207D01*
X143415073Y-75647635D01*
X143460179Y-75654778D01*
X143471574Y-75657138D01*
X143515823Y-75668500D01*
X143537051Y-75668500D01*
X143556448Y-75670026D01*
X143577403Y-75673345D01*
X143577404Y-75673346D01*
X143577404Y-75673345D01*
X143577405Y-75673346D01*
X143622852Y-75669050D01*
X143634521Y-75668500D01*
X145567601Y-75668500D01*
X145583611Y-75670267D01*
X145583634Y-75670026D01*
X145591395Y-75670758D01*
X145591402Y-75670760D01*
X145661368Y-75668560D01*
X145665263Y-75668500D01*
X145694031Y-75668500D01*
X145698393Y-75667948D01*
X145710045Y-75667030D01*
X145755675Y-75665597D01*
X145776062Y-75659673D01*
X145795102Y-75655731D01*
X145816164Y-75653071D01*
X145858626Y-75636258D01*
X145869663Y-75632480D01*
X145913504Y-75619744D01*
X145931771Y-75608939D01*
X145949242Y-75600380D01*
X145968977Y-75592568D01*
X146005922Y-75565725D01*
X146015664Y-75559326D01*
X146054971Y-75536081D01*
X146069976Y-75521075D01*
X146084774Y-75508436D01*
X146101943Y-75495963D01*
X146131052Y-75460774D01*
X146138896Y-75452154D01*
X146195513Y-75395537D01*
X146208079Y-75385471D01*
X146207925Y-75385284D01*
X146213933Y-75380311D01*
X146213940Y-75380308D01*
X146237227Y-75355508D01*
X146261865Y-75329273D01*
X146264578Y-75326473D01*
X146272172Y-75318879D01*
X146284912Y-75306140D01*
X146287607Y-75302665D01*
X146295186Y-75293788D01*
X146326448Y-75260499D01*
X146336674Y-75241895D01*
X146347347Y-75225647D01*
X146360363Y-75208869D01*
X146378491Y-75166976D01*
X146383627Y-75156488D01*
X146405627Y-75116474D01*
X146405628Y-75116469D01*
X146408499Y-75109220D01*
X146411217Y-75110296D01*
X146439886Y-75062094D01*
X146502398Y-75030885D01*
X146571859Y-75038427D01*
X146582739Y-75043580D01*
X146681461Y-75096348D01*
X146816000Y-75137159D01*
X146816000Y-74416938D01*
X146897115Y-74480072D01*
X147007595Y-74518000D01*
X147095005Y-74518000D01*
X147181216Y-74503614D01*
X147283947Y-74448019D01*
X147316000Y-74413200D01*
X147316000Y-75137159D01*
G37*
%TD.AperFunction*%
%TD*%
M02*
