M48
; DRILL file {KiCad 7.0.10} date Tue Feb 20 22:46:34 2024
; FORMAT={-:-/ absolute / metric / decimal}
; #@! TF.CreationDate,2024-02-20T22:46:34-05:00
; #@! TF.GenerationSoftware,Kicad,Pcbnew,7.0.10
; #@! TF.FileFunction,Plated,1,2,PTH
FMAT,2
METRIC
; #@! TA.AperFunction,Plated,PTH,ViaDrill
T1C0.250
; #@! TA.AperFunction,Plated,PTH,ViaDrill
T2C0.300
; #@! TA.AperFunction,Plated,PTH,ComponentDrill
T3C0.700
%
G90
G05
T1
X124.59Y-80.77
X124.714Y-90.678
X124.96Y-82.06
X125.476Y-83.312
X126.492Y-81.788
X129.032Y-87.884
X130.302Y-82.296
X130.85Y-85.74
X131.064Y-82.042
X131.36Y-91.64
X133.858Y-83.82
X134.112Y-94.742
X135.128Y-90.424
X136.144Y-91.948
X141.732Y-80.772
X142.494Y-81.534
X143.764Y-92.964
X144.78Y-83.312
X148.59Y-91.194
X149.352Y-82.296
X166.38Y-102.35
T2
X127.254Y-82.55
X130.302Y-83.312
X130.556Y-84.328
X137.97Y-80.788
X138.129Y-81.572
X146.8Y-81.03
X146.94Y-76.38
X147.06Y-91.18
X152.4Y-93.218
T3
X144.526Y-74.168
X145.796Y-74.168
X147.066Y-74.168
X148.336Y-74.168
X149.606Y-74.168
X150.876Y-74.168
X180.59Y-108.64
X180.59Y-109.91
X180.59Y-111.18
X180.59Y-112.45
X180.59Y-113.72
X180.59Y-114.99
M30
