%TF.GenerationSoftware,KiCad,Pcbnew,7.0.10*%
%TF.CreationDate,2024-02-20T20:24:08-05:00*%
%TF.ProjectId,GBoyGcPlus,47426f79-4763-4506-9c75-732e6b696361,rev?*%
%TF.SameCoordinates,Original*%
%TF.FileFunction,Copper,L2,Bot*%
%TF.FilePolarity,Positive*%
%FSLAX46Y46*%
G04 Gerber Fmt 4.6, Leading zero omitted, Abs format (unit mm)*
G04 Created by KiCad (PCBNEW 7.0.10) date 2024-02-20 20:24:08*
%MOMM*%
%LPD*%
G01*
G04 APERTURE LIST*
%TA.AperFunction,ComponentPad*%
%ADD10R,1.000000X1.000000*%
%TD*%
%TA.AperFunction,ComponentPad*%
%ADD11O,1.000000X1.000000*%
%TD*%
%TA.AperFunction,SMDPad,CuDef*%
%ADD12R,2.300000X2.300000*%
%TD*%
%TA.AperFunction,SMDPad,CuDef*%
%ADD13R,2.300000X5.000000*%
%TD*%
%TA.AperFunction,SMDPad,CuDef*%
%ADD14R,1.092200X0.558800*%
%TD*%
%TA.AperFunction,ViaPad*%
%ADD15C,0.550000*%
%TD*%
%TA.AperFunction,ViaPad*%
%ADD16C,0.600000*%
%TD*%
%TA.AperFunction,Conductor*%
%ADD17C,0.200000*%
%TD*%
%TA.AperFunction,Conductor*%
%ADD18C,0.250000*%
%TD*%
G04 APERTURE END LIST*
D10*
%TO.P,J1,1,Pin_1*%
%TO.N,/MCLR*%
X144526000Y-74168000D03*
D11*
%TO.P,J1,2,Pin_2*%
%TO.N,+3V3*%
X145796000Y-74168000D03*
%TO.P,J1,3,Pin_3*%
%TO.N,GND*%
X147066000Y-74168000D03*
%TO.P,J1,4,Pin_4*%
%TO.N,/PGD*%
X148336000Y-74168000D03*
%TO.P,J1,5,Pin_5*%
%TO.N,/PGC*%
X149606000Y-74168000D03*
%TO.P,J1,6,Pin_6*%
%TO.N,unconnected-(J1-Pin_6-Pad6)*%
X150876000Y-74168000D03*
%TD*%
D10*
%TO.P,J2,1,Pin_1*%
%TO.N,GND*%
X180590000Y-108640000D03*
D11*
%TO.P,J2,2,Pin_2*%
%TO.N,/Z*%
X180590000Y-109910000D03*
%TO.P,J2,3,Pin_3*%
%TO.N,/RT*%
X180590000Y-111180000D03*
%TO.P,J2,4,Pin_4*%
%TO.N,/R*%
X180590000Y-112450000D03*
%TO.P,J2,5,Pin_5*%
%TO.N,/LT*%
X180590000Y-113720000D03*
%TO.P,J2,6,Pin_6*%
%TO.N,/L*%
X180590000Y-114990000D03*
%TD*%
D12*
%TO.P,SW4,1,1*%
%TO.N,/Y*%
X141130000Y-85000000D03*
%TO.P,SW4,2,2*%
X138430000Y-87700000D03*
%TO.P,SW4,3,3*%
%TO.N,GND*%
X138430000Y-85000000D03*
%TO.P,SW4,4,4*%
X141130000Y-87700000D03*
%TD*%
D13*
%TO.P,SW8,1,1*%
%TO.N,/DU*%
X170434000Y-106142000D03*
%TO.P,SW8,3,3*%
%TO.N,GND*%
X167734000Y-106142000D03*
%TD*%
%TO.P,SW6,1,1*%
%TO.N,/DR*%
X176600000Y-112360000D03*
%TO.P,SW6,3,3*%
%TO.N,GND*%
X173900000Y-112360000D03*
%TD*%
D12*
%TO.P,SW2,1,1*%
%TO.N,/B*%
X133360000Y-92430000D03*
%TO.P,SW2,2,2*%
X130660000Y-95130000D03*
%TO.P,SW2,3,3*%
%TO.N,GND*%
X130660000Y-92430000D03*
%TO.P,SW2,4,4*%
X133360000Y-95130000D03*
%TD*%
D14*
%TO.P,SW9,1,1*%
%TO.N,/S*%
X153771600Y-88317000D03*
%TO.P,SW9,2,2*%
X158140400Y-88317000D03*
%TO.P,SW9,3,3*%
%TO.N,GND*%
X153771600Y-84811800D03*
%TO.P,SW9,4,4*%
X158140400Y-84811800D03*
%TD*%
D13*
%TO.P,SW5,1,1*%
%TO.N,/DL*%
X164450000Y-112140000D03*
%TO.P,SW5,3,3*%
%TO.N,GND*%
X161750000Y-112140000D03*
%TD*%
D12*
%TO.P,SW1,1,1*%
%TO.N,/A*%
X125740000Y-87630000D03*
%TO.P,SW1,2,2*%
X123040000Y-84930000D03*
%TO.P,SW1,3,3*%
%TO.N,GND*%
X125740000Y-84930000D03*
%TO.P,SW1,4,4*%
X123040000Y-87630000D03*
%TD*%
D13*
%TO.P,SW7,1,1*%
%TO.N,/DD*%
X167980000Y-118700000D03*
%TO.P,SW7,3,3*%
%TO.N,GND*%
X170680000Y-118700000D03*
%TD*%
D12*
%TO.P,SW3,1,1*%
%TO.N,/X*%
X130640000Y-77170000D03*
%TO.P,SW3,2,2*%
X133340000Y-79870000D03*
%TO.P,SW3,3,3*%
%TO.N,GND*%
X130640000Y-79870000D03*
%TO.P,SW3,4,4*%
X133340000Y-77170000D03*
%TD*%
D15*
%TO.N,GND*%
X134112000Y-94742000D03*
D16*
X146940000Y-76380000D03*
D15*
X126492000Y-81788000D03*
X133858000Y-83820000D03*
X125476000Y-83312000D03*
X166380000Y-102350000D03*
X131360000Y-91640000D03*
D16*
%TO.N,/DL*%
X147060000Y-91180000D03*
%TO.N,/DR*%
X138128820Y-81572079D03*
%TO.N,GND*%
X146800000Y-81030000D03*
%TO.N,/Z*%
X130556000Y-84328000D03*
D15*
%TO.N,/RT*%
X124714000Y-90678000D03*
%TO.N,/R*%
X129032000Y-87884000D03*
%TO.N,/SY*%
X144780000Y-83312000D03*
X130302000Y-82296000D03*
%TO.N,/SX*%
X149352000Y-82296000D03*
X131064000Y-82042000D03*
%TO.N,/DL*%
X141732000Y-80772000D03*
D16*
X137970000Y-80788000D03*
D15*
%TO.N,/A*%
X124590000Y-80770000D03*
%TO.N,/B*%
X124960000Y-82060000D03*
D16*
%TO.N,/X*%
X127254000Y-82550000D03*
%TO.N,/Y*%
X130302000Y-83312000D03*
D15*
%TO.N,/S*%
X130850000Y-85740000D03*
%TO.N,/DU*%
X135128000Y-90424000D03*
%TO.N,/DD*%
X136144000Y-91948000D03*
D16*
X152400000Y-93218000D03*
D15*
X143764000Y-92964000D03*
%TO.N,/DR*%
X142494000Y-81534000D03*
X148590000Y-91194000D03*
%TD*%
D17*
%TO.N,GND*%
X133748000Y-94742000D02*
X133360000Y-95130000D01*
X134112000Y-94742000D02*
X133748000Y-94742000D01*
%TO.N,/B*%
X129310000Y-95130000D02*
X130660000Y-95130000D01*
X127190000Y-83502000D02*
X127190000Y-93010000D01*
X125748000Y-82060000D02*
X127190000Y-83502000D01*
X124960000Y-82060000D02*
X125748000Y-82060000D01*
X127190000Y-93010000D02*
X129310000Y-95130000D01*
%TO.N,GND*%
X125740000Y-83576000D02*
X125476000Y-83312000D01*
X125740000Y-84930000D02*
X125740000Y-83576000D01*
%TO.N,/RT*%
X169340000Y-99930000D02*
X180590000Y-111180000D01*
X167192893Y-99930000D02*
X169340000Y-99930000D01*
X165820000Y-98557107D02*
X167192893Y-99930000D01*
X151568000Y-75368000D02*
X165820000Y-89620000D01*
X143608315Y-75368000D02*
X151568000Y-75368000D01*
X142810315Y-74570000D02*
X143608315Y-75368000D01*
X120440000Y-83892892D02*
X120440000Y-83770000D01*
X120440000Y-83770000D02*
X129640000Y-74570000D01*
X165820000Y-89620000D02*
X165820000Y-98557107D01*
X120600000Y-84052893D02*
X120440000Y-83892892D01*
X120600000Y-89054314D02*
X120600000Y-84052893D01*
X124714000Y-90678000D02*
X122223686Y-90678000D01*
X122223686Y-90678000D02*
X120600000Y-89054314D01*
X129640000Y-74570000D02*
X142810315Y-74570000D01*
%TO.N,/Z*%
X180260000Y-109910000D02*
X180590000Y-109910000D01*
X169850107Y-99500107D02*
X180260000Y-109910000D01*
X166278579Y-98450000D02*
X169850107Y-98450000D01*
X166220000Y-98391421D02*
X166278579Y-98450000D01*
X166220000Y-89258000D02*
X166220000Y-98391421D01*
X169850107Y-98450000D02*
X169850107Y-99500107D01*
X151930000Y-74968000D02*
X166220000Y-89258000D01*
X143774000Y-74968000D02*
X151930000Y-74968000D01*
X120040000Y-83603604D02*
X129543604Y-74100000D01*
X120040000Y-89060000D02*
X120040000Y-83603604D01*
X127000000Y-96020000D02*
X120040000Y-89060000D01*
X142906000Y-74100000D02*
X143774000Y-74968000D01*
X127000000Y-96980000D02*
X127000000Y-96020000D01*
X135280000Y-96675685D02*
X134975685Y-96980000D01*
X135280000Y-91450000D02*
X135280000Y-96675685D01*
X129543604Y-74100000D02*
X142906000Y-74100000D01*
X133950000Y-90120000D02*
X135280000Y-91450000D01*
X127590000Y-87166100D02*
X128457000Y-88033100D01*
X134975685Y-96980000D02*
X127000000Y-96980000D01*
X128457000Y-88122173D02*
X130454827Y-90120000D01*
X128022000Y-84328000D02*
X127590000Y-84760000D01*
X130454827Y-90120000D02*
X133950000Y-90120000D01*
X130556000Y-84328000D02*
X128022000Y-84328000D01*
X127590000Y-84760000D02*
X127590000Y-87166100D01*
X128457000Y-88033100D02*
X128457000Y-88122173D01*
%TO.N,GND*%
X166380000Y-102350000D02*
X166410000Y-102380000D01*
X167734000Y-103704000D02*
X166380000Y-102350000D01*
X167734000Y-106142000D02*
X167734000Y-103704000D01*
%TO.N,/DR*%
X176600000Y-109660000D02*
X176600000Y-112360000D01*
X175882000Y-108942000D02*
X176600000Y-109660000D01*
X153818000Y-91948000D02*
X166284000Y-104414000D01*
X149344000Y-91948000D02*
X153818000Y-91948000D01*
X166284000Y-104414000D02*
X166284000Y-108942000D01*
X148590000Y-91194000D02*
X149344000Y-91948000D01*
X166284000Y-108942000D02*
X175882000Y-108942000D01*
%TO.N,/DU*%
X135464000Y-90760000D02*
X135128000Y-90424000D01*
X146811471Y-90580000D02*
X146631471Y-90760000D01*
X146631471Y-90760000D02*
X135464000Y-90760000D01*
X156520000Y-90678000D02*
X156422000Y-90580000D01*
X156422000Y-90580000D02*
X146811471Y-90580000D01*
%TO.N,/R*%
X132279686Y-87884000D02*
X129032000Y-87884000D01*
X133945687Y-89550000D02*
X132279686Y-87884000D01*
X140054527Y-89550000D02*
X133945687Y-89550000D01*
X165420000Y-89916000D02*
X140420527Y-89916000D01*
X165420000Y-98722792D02*
X165420000Y-89916000D01*
X170039208Y-103342000D02*
X165420000Y-98722792D01*
X171884000Y-103342000D02*
X170039208Y-103342000D01*
X140420527Y-89916000D02*
X140054527Y-89550000D01*
X178404314Y-109862314D02*
X171884000Y-103342000D01*
X178404314Y-110264314D02*
X178404314Y-109862314D01*
X180590000Y-112450000D02*
X178404314Y-110264314D01*
%TO.N,/DR*%
X138166899Y-81534000D02*
X142494000Y-81534000D01*
X138128820Y-81572079D02*
X138166899Y-81534000D01*
X138128820Y-81572079D02*
X138083028Y-81572079D01*
%TO.N,/DL*%
X137970000Y-80780000D02*
X137978000Y-80772000D01*
X137978000Y-80780000D02*
X141732000Y-80780000D01*
%TO.N,/B*%
X132110000Y-90980000D02*
X133360000Y-92230000D01*
X133360000Y-92230000D02*
X133360000Y-92430000D01*
X129210000Y-90980000D02*
X132110000Y-90980000D01*
X129210000Y-93880000D02*
X129210000Y-90980000D01*
X130460000Y-95130000D02*
X129210000Y-93880000D01*
X130660000Y-95130000D02*
X130460000Y-95130000D01*
%TO.N,GND*%
X150883400Y-87700000D02*
X141130000Y-87700000D01*
X153771600Y-84811800D02*
X150883400Y-87700000D01*
%TO.N,/Y*%
X130692000Y-83312000D02*
X130302000Y-83312000D01*
X138430000Y-87700000D02*
X135080000Y-87700000D01*
X135080000Y-87700000D02*
X130692000Y-83312000D01*
%TO.N,/S*%
X134111372Y-89150000D02*
X152938600Y-89150000D01*
X130850000Y-85888628D02*
X134111372Y-89150000D01*
X130850000Y-85740000D02*
X130850000Y-85888628D01*
X152938600Y-89150000D02*
X153771600Y-88317000D01*
%TO.N,/A*%
X123040000Y-82178579D02*
X124448579Y-80770000D01*
X124448579Y-80770000D02*
X124590000Y-80770000D01*
X123040000Y-84930000D02*
X123040000Y-82178579D01*
%TO.N,/DL*%
X147060000Y-91170000D02*
X147076000Y-91186000D01*
X147060000Y-91180000D02*
X147060000Y-91170000D01*
X147070000Y-91180000D02*
X147060000Y-91180000D01*
X164450000Y-106748579D02*
X150049421Y-92348000D01*
X148238000Y-92348000D02*
X147070000Y-91180000D01*
X164450000Y-112140000D02*
X164450000Y-106748579D01*
X150049421Y-92348000D02*
X148238000Y-92348000D01*
D18*
%TO.N,GND*%
X146970000Y-76380000D02*
X146970000Y-76380000D01*
X146940000Y-76380000D02*
X146970000Y-76380000D01*
X146940000Y-76410000D02*
X146940000Y-76380000D01*
X146800000Y-76550000D02*
X146940000Y-76410000D01*
X146800000Y-81030000D02*
X146800000Y-76550000D01*
%TO.N,/A*%
X124765000Y-89105000D02*
X125740000Y-88130000D01*
X121565000Y-85005000D02*
X121565000Y-89105000D01*
X125740000Y-88130000D02*
X125740000Y-87630000D01*
X121640000Y-84930000D02*
X121565000Y-85005000D01*
X121565000Y-89105000D02*
X124765000Y-89105000D01*
X123040000Y-84930000D02*
X121640000Y-84930000D01*
D17*
%TO.N,/SY*%
X144410000Y-82942000D02*
X130948000Y-82942000D01*
X130948000Y-82942000D02*
X130302000Y-82296000D01*
X144780000Y-83312000D02*
X144410000Y-82942000D01*
%TO.N,/SX*%
X138121107Y-82296000D02*
X137875107Y-82542000D01*
X137875107Y-82542000D02*
X131564000Y-82542000D01*
X149352000Y-82296000D02*
X138121107Y-82296000D01*
X131564000Y-82542000D02*
X131064000Y-82042000D01*
%TO.N,/X*%
X129290000Y-77170000D02*
X127254000Y-79206000D01*
X134790000Y-75720000D02*
X134790000Y-78620000D01*
X130640000Y-77170000D02*
X129290000Y-77170000D01*
X130640000Y-77170000D02*
X130640000Y-76970000D01*
X130640000Y-76970000D02*
X131890000Y-75720000D01*
X127254000Y-79206000D02*
X127254000Y-82550000D01*
X131890000Y-75720000D02*
X134790000Y-75720000D01*
X133540000Y-79870000D02*
X133340000Y-79870000D01*
X134790000Y-78620000D02*
X133540000Y-79870000D01*
%TO.N,/Y*%
X141030000Y-83550000D02*
X136980000Y-83550000D01*
X141130000Y-83650000D02*
X141030000Y-83550000D01*
X136980000Y-86450000D02*
X138230000Y-87700000D01*
X138230000Y-87700000D02*
X138430000Y-87700000D01*
X141130000Y-85000000D02*
X141130000Y-83650000D01*
X136980000Y-83550000D02*
X136980000Y-86450000D01*
%TO.N,/S*%
X158140400Y-88317000D02*
X153771600Y-88317000D01*
%TO.N,/DU*%
X170434000Y-104592000D02*
X156520000Y-90678000D01*
X170434000Y-106142000D02*
X170434000Y-104592000D01*
%TO.N,/DD*%
X167980000Y-111203685D02*
X164850000Y-108073685D01*
X164850000Y-105668000D02*
X152400000Y-93218000D01*
X164850000Y-108073685D02*
X164850000Y-105668000D01*
X167980000Y-118700000D02*
X167980000Y-111203685D01*
X143764000Y-92964000D02*
X137414000Y-92964000D01*
X136398000Y-91948000D02*
X136144000Y-91948000D01*
X137414000Y-92964000D02*
X136398000Y-91948000D01*
%TD*%
%TA.AperFunction,Conductor*%
%TO.N,GND*%
G36*
X182052589Y-98150185D02*
G01*
X182098344Y-98202989D01*
X182109549Y-98254448D01*
X182113847Y-108989842D01*
X182119470Y-123038186D01*
X182099812Y-123105234D01*
X182057598Y-123145549D01*
X178158842Y-125402723D01*
X178096388Y-125419410D01*
X155444265Y-125359826D01*
X155377277Y-125339965D01*
X155331662Y-125287041D01*
X155320591Y-125235737D01*
X155323474Y-121350001D01*
X157824532Y-121350001D01*
X157844364Y-121576686D01*
X157844366Y-121576697D01*
X157903258Y-121796488D01*
X157903261Y-121796497D01*
X157999431Y-122002732D01*
X157999432Y-122002734D01*
X158129954Y-122189141D01*
X158290858Y-122350045D01*
X158290861Y-122350047D01*
X158477266Y-122480568D01*
X158683504Y-122576739D01*
X158903308Y-122635635D01*
X159073214Y-122650499D01*
X159073215Y-122650500D01*
X159073216Y-122650500D01*
X159186785Y-122650500D01*
X159186785Y-122650499D01*
X159356692Y-122635635D01*
X159576496Y-122576739D01*
X159782734Y-122480568D01*
X159969139Y-122350047D01*
X160130047Y-122189139D01*
X160260568Y-122002734D01*
X160356739Y-121796496D01*
X160415635Y-121576692D01*
X160435468Y-121350000D01*
X160415635Y-121123308D01*
X160356739Y-120903504D01*
X160260568Y-120697266D01*
X160130047Y-120510861D01*
X160130045Y-120510858D01*
X159969141Y-120349954D01*
X159782734Y-120219432D01*
X159782732Y-120219431D01*
X159576497Y-120123261D01*
X159576488Y-120123258D01*
X159356697Y-120064366D01*
X159356687Y-120064364D01*
X159186785Y-120049500D01*
X159186784Y-120049500D01*
X159073216Y-120049500D01*
X159073215Y-120049500D01*
X158903312Y-120064364D01*
X158903302Y-120064366D01*
X158683511Y-120123258D01*
X158683502Y-120123261D01*
X158477267Y-120219431D01*
X158477265Y-120219432D01*
X158290858Y-120349954D01*
X158129954Y-120510858D01*
X157999432Y-120697265D01*
X157999431Y-120697267D01*
X157903261Y-120903502D01*
X157903258Y-120903511D01*
X157844366Y-121123302D01*
X157844364Y-121123313D01*
X157824532Y-121349998D01*
X157824532Y-121350001D01*
X155323474Y-121350001D01*
X155331268Y-110843552D01*
X160100000Y-110843552D01*
X160100000Y-113436447D01*
X161396447Y-112140000D01*
X161396447Y-112139999D01*
X160100000Y-110843552D01*
X155331268Y-110843552D01*
X155340212Y-98787295D01*
X155359946Y-98720271D01*
X155412784Y-98674555D01*
X155481950Y-98664663D01*
X155545484Y-98693735D01*
X155551893Y-98699707D01*
X163813181Y-106960995D01*
X163846666Y-107022318D01*
X163849500Y-107048676D01*
X163849500Y-109015500D01*
X163829815Y-109082539D01*
X163777011Y-109128294D01*
X163725500Y-109139500D01*
X163252129Y-109139500D01*
X163252123Y-109139501D01*
X163192517Y-109145908D01*
X163142616Y-109164520D01*
X163072925Y-109169503D01*
X163055953Y-109164519D01*
X163007383Y-109146403D01*
X163007372Y-109146401D01*
X162947844Y-109140000D01*
X160552155Y-109140000D01*
X160492627Y-109146401D01*
X160492620Y-109146403D01*
X160357913Y-109196645D01*
X160357906Y-109196649D01*
X160242812Y-109282809D01*
X160242809Y-109282812D01*
X160156649Y-109397906D01*
X160156645Y-109397913D01*
X160106403Y-109532620D01*
X160106401Y-109532627D01*
X160100000Y-109592155D01*
X160100000Y-110136447D01*
X162015872Y-112052319D01*
X162049357Y-112113642D01*
X162044373Y-112183334D01*
X162015872Y-112227681D01*
X160100000Y-114143552D01*
X160100000Y-114687844D01*
X160106401Y-114747372D01*
X160106403Y-114747379D01*
X160156645Y-114882086D01*
X160156649Y-114882093D01*
X160242809Y-114997187D01*
X160242812Y-114997190D01*
X160357906Y-115083350D01*
X160357913Y-115083354D01*
X160492620Y-115133596D01*
X160492627Y-115133598D01*
X160552155Y-115139999D01*
X160552172Y-115140000D01*
X162947828Y-115140000D01*
X162947844Y-115139999D01*
X163007372Y-115133598D01*
X163007375Y-115133597D01*
X163055949Y-115115480D01*
X163125640Y-115110494D01*
X163142610Y-115115477D01*
X163192517Y-115134091D01*
X163252127Y-115140500D01*
X165647872Y-115140499D01*
X165707483Y-115134091D01*
X165842331Y-115083796D01*
X165957546Y-114997546D01*
X166043796Y-114882331D01*
X166094091Y-114747483D01*
X166100500Y-114687873D01*
X166100499Y-110472780D01*
X166120184Y-110405742D01*
X166172988Y-110359987D01*
X166242146Y-110350043D01*
X166305702Y-110379068D01*
X166312180Y-110385100D01*
X167343181Y-111416101D01*
X167376666Y-111477424D01*
X167379500Y-111503782D01*
X167379500Y-115575500D01*
X167359815Y-115642539D01*
X167307011Y-115688294D01*
X167255500Y-115699500D01*
X166782129Y-115699500D01*
X166782123Y-115699501D01*
X166722516Y-115705908D01*
X166587671Y-115756202D01*
X166587664Y-115756206D01*
X166472455Y-115842452D01*
X166472452Y-115842455D01*
X166386206Y-115957664D01*
X166386202Y-115957671D01*
X166335908Y-116092517D01*
X166329501Y-116152116D01*
X166329500Y-116152135D01*
X166329500Y-121247870D01*
X166329501Y-121247876D01*
X166335908Y-121307483D01*
X166386202Y-121442328D01*
X166386206Y-121442335D01*
X166472452Y-121557544D01*
X166472455Y-121557547D01*
X166587664Y-121643793D01*
X166587671Y-121643797D01*
X166722517Y-121694091D01*
X166722516Y-121694091D01*
X166729444Y-121694835D01*
X166782127Y-121700500D01*
X169177872Y-121700499D01*
X169237483Y-121694091D01*
X169287382Y-121675479D01*
X169357069Y-121670494D01*
X169374048Y-121675479D01*
X169422628Y-121693598D01*
X169422627Y-121693598D01*
X169482155Y-121699999D01*
X169482172Y-121700000D01*
X171877828Y-121700000D01*
X171877844Y-121699999D01*
X171937372Y-121693598D01*
X171937379Y-121693596D01*
X172072086Y-121643354D01*
X172072093Y-121643350D01*
X172187187Y-121557190D01*
X172187190Y-121557187D01*
X172273350Y-121442093D01*
X172273354Y-121442086D01*
X172292780Y-121390001D01*
X177824532Y-121390001D01*
X177844364Y-121616686D01*
X177844366Y-121616697D01*
X177903258Y-121836488D01*
X177903261Y-121836497D01*
X177999431Y-122042732D01*
X177999432Y-122042734D01*
X178129954Y-122229141D01*
X178290858Y-122390045D01*
X178290861Y-122390047D01*
X178477266Y-122520568D01*
X178683504Y-122616739D01*
X178903308Y-122675635D01*
X179073214Y-122690499D01*
X179073215Y-122690500D01*
X179073216Y-122690500D01*
X179186785Y-122690500D01*
X179186785Y-122690499D01*
X179356692Y-122675635D01*
X179576496Y-122616739D01*
X179782734Y-122520568D01*
X179969139Y-122390047D01*
X180130047Y-122229139D01*
X180260568Y-122042734D01*
X180356739Y-121836496D01*
X180415635Y-121616692D01*
X180435468Y-121390000D01*
X180431968Y-121350000D01*
X180415635Y-121163313D01*
X180415635Y-121163308D01*
X180356739Y-120943504D01*
X180260568Y-120737266D01*
X180130047Y-120550861D01*
X180130045Y-120550858D01*
X179969141Y-120389954D01*
X179782734Y-120259432D01*
X179782732Y-120259431D01*
X179576497Y-120163261D01*
X179576488Y-120163258D01*
X179356697Y-120104366D01*
X179356687Y-120104364D01*
X179186785Y-120089500D01*
X179186784Y-120089500D01*
X179073216Y-120089500D01*
X179073215Y-120089500D01*
X178903312Y-120104364D01*
X178903302Y-120104366D01*
X178683511Y-120163258D01*
X178683502Y-120163261D01*
X178477267Y-120259431D01*
X178477265Y-120259432D01*
X178290858Y-120389954D01*
X178129954Y-120550858D01*
X177999432Y-120737265D01*
X177999431Y-120737267D01*
X177903261Y-120943502D01*
X177903258Y-120943511D01*
X177844366Y-121163302D01*
X177844364Y-121163313D01*
X177824532Y-121389998D01*
X177824532Y-121390001D01*
X172292780Y-121390001D01*
X172323596Y-121307379D01*
X172323598Y-121307372D01*
X172329999Y-121247844D01*
X172330000Y-121247827D01*
X172330000Y-120703553D01*
X170414128Y-118787681D01*
X170380643Y-118726358D01*
X170382528Y-118700000D01*
X171033553Y-118700000D01*
X172329999Y-119996447D01*
X172330000Y-119996446D01*
X172330000Y-117403553D01*
X172329999Y-117403552D01*
X171033553Y-118699999D01*
X171033553Y-118700000D01*
X170382528Y-118700000D01*
X170385627Y-118656666D01*
X170414128Y-118612319D01*
X172329999Y-116696447D01*
X172330000Y-116696446D01*
X172330000Y-116152172D01*
X172329999Y-116152155D01*
X172323598Y-116092627D01*
X172323596Y-116092620D01*
X172273354Y-115957913D01*
X172273350Y-115957906D01*
X172187190Y-115842812D01*
X172187187Y-115842809D01*
X172072093Y-115756649D01*
X172072086Y-115756645D01*
X171937379Y-115706403D01*
X171937372Y-115706401D01*
X171877844Y-115700000D01*
X169482155Y-115700000D01*
X169422627Y-115706401D01*
X169422623Y-115706402D01*
X169374046Y-115724520D01*
X169304354Y-115729503D01*
X169287382Y-115724519D01*
X169237485Y-115705909D01*
X169237483Y-115705908D01*
X169177883Y-115699501D01*
X169177881Y-115699500D01*
X169177873Y-115699500D01*
X169177865Y-115699500D01*
X168704500Y-115699500D01*
X168637461Y-115679815D01*
X168591706Y-115627011D01*
X168580500Y-115575500D01*
X168580500Y-111251172D01*
X168581561Y-111234986D01*
X168585682Y-111203684D01*
X168585682Y-111203683D01*
X168567233Y-111063552D01*
X172250000Y-111063552D01*
X172250000Y-113656447D01*
X173546447Y-112360000D01*
X173546447Y-112359999D01*
X172250000Y-111063552D01*
X168567233Y-111063552D01*
X168565044Y-111046924D01*
X168565044Y-111046923D01*
X168504536Y-110900844D01*
X168504535Y-110900843D01*
X168504535Y-110900842D01*
X168429987Y-110803688D01*
X168429970Y-110803668D01*
X168423528Y-110795273D01*
X168408282Y-110775403D01*
X168383233Y-110756182D01*
X168371039Y-110745488D01*
X167379732Y-109754181D01*
X167346247Y-109692858D01*
X167351231Y-109623166D01*
X167393103Y-109567233D01*
X167458567Y-109542816D01*
X167467413Y-109542500D01*
X172156180Y-109542500D01*
X172223219Y-109562185D01*
X172268974Y-109614989D01*
X172278918Y-109684147D01*
X172272362Y-109709833D01*
X172256403Y-109752620D01*
X172256401Y-109752627D01*
X172250000Y-109812155D01*
X172250000Y-110356447D01*
X174165872Y-112272319D01*
X174199357Y-112333642D01*
X174194373Y-112403334D01*
X174165872Y-112447681D01*
X172250000Y-114363552D01*
X172250000Y-114907844D01*
X172256401Y-114967372D01*
X172256403Y-114967379D01*
X172306645Y-115102086D01*
X172306649Y-115102093D01*
X172392809Y-115217187D01*
X172392812Y-115217190D01*
X172507906Y-115303350D01*
X172507913Y-115303354D01*
X172642620Y-115353596D01*
X172642627Y-115353598D01*
X172702155Y-115359999D01*
X172702172Y-115360000D01*
X175097828Y-115360000D01*
X175097844Y-115359999D01*
X175157372Y-115353598D01*
X175157375Y-115353597D01*
X175205949Y-115335480D01*
X175275640Y-115330494D01*
X175292610Y-115335477D01*
X175342517Y-115354091D01*
X175402127Y-115360500D01*
X177797872Y-115360499D01*
X177857483Y-115354091D01*
X177992331Y-115303796D01*
X178107546Y-115217546D01*
X178193796Y-115102331D01*
X178244091Y-114967483D01*
X178250500Y-114907873D01*
X178250499Y-111259095D01*
X178270184Y-111192057D01*
X178322988Y-111146302D01*
X178392146Y-111136358D01*
X178455702Y-111165383D01*
X178462180Y-111171415D01*
X179557184Y-112266419D01*
X179590669Y-112327742D01*
X179592906Y-112366252D01*
X179584659Y-112449998D01*
X179584659Y-112449999D01*
X179603975Y-112646129D01*
X179661188Y-112834733D01*
X179754086Y-113008532D01*
X179757473Y-113013601D01*
X179755836Y-113014694D01*
X179779596Y-113070663D01*
X179767795Y-113139529D01*
X179757109Y-113156156D01*
X179757473Y-113156399D01*
X179754086Y-113161467D01*
X179661188Y-113335266D01*
X179603975Y-113523870D01*
X179584659Y-113720000D01*
X179603975Y-113916129D01*
X179661188Y-114104733D01*
X179754086Y-114278532D01*
X179757473Y-114283601D01*
X179755836Y-114284694D01*
X179779596Y-114340663D01*
X179767795Y-114409529D01*
X179757109Y-114426156D01*
X179757473Y-114426399D01*
X179754086Y-114431467D01*
X179661188Y-114605266D01*
X179603975Y-114793870D01*
X179584659Y-114990000D01*
X179603975Y-115186129D01*
X179603976Y-115186132D01*
X179649280Y-115335480D01*
X179661188Y-115374733D01*
X179754086Y-115548532D01*
X179754090Y-115548539D01*
X179879116Y-115700883D01*
X180031460Y-115825909D01*
X180031467Y-115825913D01*
X180205266Y-115918811D01*
X180205269Y-115918811D01*
X180205273Y-115918814D01*
X180393868Y-115976024D01*
X180590000Y-115995341D01*
X180786132Y-115976024D01*
X180974727Y-115918814D01*
X181148538Y-115825910D01*
X181300883Y-115700883D01*
X181425910Y-115548538D01*
X181518814Y-115374727D01*
X181576024Y-115186132D01*
X181595341Y-114990000D01*
X181576024Y-114793868D01*
X181518814Y-114605273D01*
X181425910Y-114431462D01*
X181425907Y-114431458D01*
X181422523Y-114426393D01*
X181424164Y-114425296D01*
X181400405Y-114369361D01*
X181412194Y-114300493D01*
X181422888Y-114283851D01*
X181422523Y-114283607D01*
X181425904Y-114278544D01*
X181425910Y-114278538D01*
X181518814Y-114104727D01*
X181576024Y-113916132D01*
X181595341Y-113720000D01*
X181576024Y-113523868D01*
X181518814Y-113335273D01*
X181425910Y-113161462D01*
X181425907Y-113161458D01*
X181422523Y-113156393D01*
X181424164Y-113155296D01*
X181400405Y-113099361D01*
X181412194Y-113030493D01*
X181422888Y-113013851D01*
X181422523Y-113013607D01*
X181425904Y-113008544D01*
X181425910Y-113008538D01*
X181518814Y-112834727D01*
X181576024Y-112646132D01*
X181595341Y-112450000D01*
X181576024Y-112253868D01*
X181518814Y-112065273D01*
X181425910Y-111891462D01*
X181425907Y-111891458D01*
X181422523Y-111886393D01*
X181424164Y-111885296D01*
X181400405Y-111829361D01*
X181412194Y-111760493D01*
X181422888Y-111743851D01*
X181422523Y-111743607D01*
X181425904Y-111738544D01*
X181425910Y-111738538D01*
X181518814Y-111564727D01*
X181576024Y-111376132D01*
X181595341Y-111180000D01*
X181576024Y-110983868D01*
X181518814Y-110795273D01*
X181425910Y-110621462D01*
X181425907Y-110621458D01*
X181422523Y-110616393D01*
X181424164Y-110615296D01*
X181400405Y-110559361D01*
X181412194Y-110490493D01*
X181422888Y-110473851D01*
X181422523Y-110473607D01*
X181425904Y-110468544D01*
X181425910Y-110468538D01*
X181518814Y-110294727D01*
X181576024Y-110106132D01*
X181595341Y-109910000D01*
X181576024Y-109713868D01*
X181518814Y-109525273D01*
X181517419Y-109522663D01*
X181517100Y-109521135D01*
X181516482Y-109519641D01*
X181516765Y-109519523D01*
X181503174Y-109454261D01*
X181527512Y-109389890D01*
X181533351Y-109382089D01*
X181583597Y-109247376D01*
X181583598Y-109247372D01*
X181589999Y-109187844D01*
X181590000Y-109187827D01*
X181590000Y-108890000D01*
X180835581Y-108890000D01*
X180887060Y-108834079D01*
X180933982Y-108727108D01*
X180943628Y-108610698D01*
X180914953Y-108497462D01*
X180851064Y-108399673D01*
X180758885Y-108327928D01*
X180648405Y-108290000D01*
X180560995Y-108290000D01*
X180474784Y-108304386D01*
X180372053Y-108359981D01*
X180340000Y-108394799D01*
X180340000Y-107640000D01*
X180840000Y-107640000D01*
X180840000Y-108390000D01*
X181590000Y-108390000D01*
X181590000Y-108092172D01*
X181589999Y-108092155D01*
X181583598Y-108032627D01*
X181583596Y-108032620D01*
X181533354Y-107897913D01*
X181533350Y-107897906D01*
X181447190Y-107782812D01*
X181447187Y-107782809D01*
X181332093Y-107696649D01*
X181332086Y-107696645D01*
X181197379Y-107646403D01*
X181197372Y-107646401D01*
X181137844Y-107640000D01*
X180840000Y-107640000D01*
X180340000Y-107640000D01*
X180042155Y-107640000D01*
X179982627Y-107646401D01*
X179982620Y-107646403D01*
X179847913Y-107696645D01*
X179847906Y-107696649D01*
X179732812Y-107782809D01*
X179732809Y-107782812D01*
X179646649Y-107897906D01*
X179646645Y-107897913D01*
X179596403Y-108032620D01*
X179596401Y-108032627D01*
X179590000Y-108092155D01*
X179589823Y-108095479D01*
X179589644Y-108095469D01*
X179589644Y-108095475D01*
X179589540Y-108095463D01*
X179588818Y-108095425D01*
X179570315Y-108158442D01*
X179517511Y-108204197D01*
X179448353Y-108214141D01*
X179384797Y-108185116D01*
X179378319Y-108179084D01*
X172519236Y-101320001D01*
X177844532Y-101320001D01*
X177864364Y-101546686D01*
X177864366Y-101546697D01*
X177923258Y-101766488D01*
X177923261Y-101766497D01*
X178019431Y-101972732D01*
X178019432Y-101972734D01*
X178149954Y-102159141D01*
X178310858Y-102320045D01*
X178310861Y-102320047D01*
X178497266Y-102450568D01*
X178703504Y-102546739D01*
X178923308Y-102605635D01*
X179093214Y-102620499D01*
X179093215Y-102620500D01*
X179093216Y-102620500D01*
X179206785Y-102620500D01*
X179206785Y-102620499D01*
X179376692Y-102605635D01*
X179596496Y-102546739D01*
X179802734Y-102450568D01*
X179989139Y-102320047D01*
X180150047Y-102159139D01*
X180280568Y-101972734D01*
X180376739Y-101766496D01*
X180435635Y-101546692D01*
X180455468Y-101320000D01*
X180435635Y-101093308D01*
X180376739Y-100873504D01*
X180280568Y-100667266D01*
X180150047Y-100480861D01*
X180150045Y-100480858D01*
X179989141Y-100319954D01*
X179802734Y-100189432D01*
X179802732Y-100189431D01*
X179596497Y-100093261D01*
X179596488Y-100093258D01*
X179376697Y-100034366D01*
X179376687Y-100034364D01*
X179206785Y-100019500D01*
X179206784Y-100019500D01*
X179093216Y-100019500D01*
X179093215Y-100019500D01*
X178923312Y-100034364D01*
X178923302Y-100034366D01*
X178703511Y-100093258D01*
X178703502Y-100093261D01*
X178497267Y-100189431D01*
X178497265Y-100189432D01*
X178310858Y-100319954D01*
X178149954Y-100480858D01*
X178019432Y-100667265D01*
X178019431Y-100667267D01*
X177923261Y-100873502D01*
X177923258Y-100873511D01*
X177864366Y-101093302D01*
X177864364Y-101093313D01*
X177844532Y-101319998D01*
X177844532Y-101320001D01*
X172519236Y-101320001D01*
X170486926Y-99287691D01*
X170453441Y-99226368D01*
X170450607Y-99200010D01*
X170450607Y-98497487D01*
X170451668Y-98481301D01*
X170455789Y-98450000D01*
X170455789Y-98449998D01*
X170439597Y-98327011D01*
X170435151Y-98293238D01*
X170435147Y-98293230D01*
X170433370Y-98286594D01*
X170435033Y-98216744D01*
X170474195Y-98158882D01*
X170538423Y-98131377D01*
X170553145Y-98130500D01*
X181985550Y-98130500D01*
X182052589Y-98150185D01*
G37*
%TD.AperFunction*%
%TA.AperFunction,Conductor*%
G36*
X156188942Y-91200185D02*
G01*
X156209584Y-91216819D01*
X167923084Y-102930319D01*
X167956569Y-102991642D01*
X167951585Y-103061334D01*
X167909713Y-103117267D01*
X167844249Y-103141684D01*
X167835403Y-103142000D01*
X166536155Y-103142000D01*
X166476627Y-103148401D01*
X166476620Y-103148403D01*
X166341913Y-103198645D01*
X166341906Y-103198649D01*
X166226812Y-103284809D01*
X166226809Y-103284812D01*
X166217198Y-103297651D01*
X166161263Y-103339520D01*
X166091572Y-103344502D01*
X166030253Y-103311018D01*
X154276199Y-91556964D01*
X154265503Y-91544767D01*
X154246286Y-91519722D01*
X154246283Y-91519720D01*
X154246282Y-91519718D01*
X154120841Y-91423464D01*
X154110210Y-91419060D01*
X154055808Y-91375220D01*
X154033743Y-91308926D01*
X154051022Y-91241227D01*
X154102159Y-91193616D01*
X154157664Y-91180500D01*
X156121903Y-91180500D01*
X156188942Y-91200185D01*
G37*
%TD.AperFunction*%
%TA.AperFunction,Conductor*%
G36*
X166622613Y-72380222D02*
G01*
X166668403Y-72432995D01*
X166679644Y-72484439D01*
X166698390Y-88587649D01*
X166678783Y-88654711D01*
X166626033Y-88700527D01*
X166556886Y-88710551D01*
X166493296Y-88681600D01*
X166486709Y-88675474D01*
X152388199Y-74576964D01*
X152377503Y-74564767D01*
X152358286Y-74539722D01*
X152358283Y-74539720D01*
X152358282Y-74539718D01*
X152232841Y-74443464D01*
X152086762Y-74382956D01*
X152065734Y-74380187D01*
X151982050Y-74369170D01*
X151918154Y-74340903D01*
X151879683Y-74282578D01*
X151874833Y-74234077D01*
X151881341Y-74168000D01*
X151862024Y-73971868D01*
X151804814Y-73783273D01*
X151804811Y-73783269D01*
X151804811Y-73783266D01*
X151711913Y-73609467D01*
X151711909Y-73609460D01*
X151586883Y-73457116D01*
X151434539Y-73332090D01*
X151434532Y-73332086D01*
X151260733Y-73239188D01*
X151260727Y-73239186D01*
X151072132Y-73181976D01*
X151072129Y-73181975D01*
X150876000Y-73162659D01*
X150679870Y-73181975D01*
X150491266Y-73239188D01*
X150317467Y-73332086D01*
X150312399Y-73335473D01*
X150311305Y-73333836D01*
X150255337Y-73357596D01*
X150186471Y-73345795D01*
X150169843Y-73335109D01*
X150169601Y-73335473D01*
X150164532Y-73332086D01*
X149990733Y-73239188D01*
X149990727Y-73239186D01*
X149802132Y-73181976D01*
X149802129Y-73181975D01*
X149606000Y-73162659D01*
X149409870Y-73181975D01*
X149221266Y-73239188D01*
X149047467Y-73332086D01*
X149042399Y-73335473D01*
X149041305Y-73333836D01*
X148985337Y-73357596D01*
X148916471Y-73345795D01*
X148899843Y-73335109D01*
X148899601Y-73335473D01*
X148894532Y-73332086D01*
X148720733Y-73239188D01*
X148720727Y-73239186D01*
X148532132Y-73181976D01*
X148532129Y-73181975D01*
X148336000Y-73162659D01*
X148139870Y-73181975D01*
X147951266Y-73239188D01*
X147777467Y-73332086D01*
X147772399Y-73335473D01*
X147771386Y-73333958D01*
X147714936Y-73357920D01*
X147646071Y-73346115D01*
X147629574Y-73335511D01*
X147629322Y-73335890D01*
X147624253Y-73332503D01*
X147450541Y-73239652D01*
X147316000Y-73198839D01*
X147316000Y-73919061D01*
X147234885Y-73855928D01*
X147124405Y-73818000D01*
X147036995Y-73818000D01*
X146950784Y-73832386D01*
X146848053Y-73887981D01*
X146816000Y-73922799D01*
X146816000Y-73198839D01*
X146815999Y-73198839D01*
X146681458Y-73239652D01*
X146507742Y-73332505D01*
X146502673Y-73335893D01*
X146501556Y-73334221D01*
X146445715Y-73357921D01*
X146376851Y-73346111D01*
X146359811Y-73335158D01*
X146359601Y-73335473D01*
X146354532Y-73332086D01*
X146180733Y-73239188D01*
X146180727Y-73239186D01*
X145992132Y-73181976D01*
X145992129Y-73181975D01*
X145796000Y-73162659D01*
X145599870Y-73181975D01*
X145544278Y-73198839D01*
X145411273Y-73239186D01*
X145411272Y-73239186D01*
X145411267Y-73239188D01*
X145409143Y-73240324D01*
X145407898Y-73240583D01*
X145405641Y-73241518D01*
X145405463Y-73241089D01*
X145340740Y-73254564D01*
X145276382Y-73230231D01*
X145268331Y-73224204D01*
X145268328Y-73224202D01*
X145133482Y-73173908D01*
X145133483Y-73173908D01*
X145073883Y-73167501D01*
X145073881Y-73167500D01*
X145073873Y-73167500D01*
X145073864Y-73167500D01*
X143978129Y-73167500D01*
X143978123Y-73167501D01*
X143918516Y-73173908D01*
X143783671Y-73224202D01*
X143783664Y-73224206D01*
X143668455Y-73310452D01*
X143668452Y-73310455D01*
X143582206Y-73425664D01*
X143582202Y-73425671D01*
X143531908Y-73560516D01*
X143529405Y-73583799D01*
X143502665Y-73648350D01*
X143445271Y-73688196D01*
X143375446Y-73690687D01*
X143330632Y-73668917D01*
X143208841Y-73575464D01*
X143172753Y-73560516D01*
X143062762Y-73514956D01*
X143062760Y-73514955D01*
X142945361Y-73499500D01*
X142906000Y-73494318D01*
X142874697Y-73498439D01*
X142858513Y-73499500D01*
X129591091Y-73499500D01*
X129574906Y-73498439D01*
X129543604Y-73494318D01*
X129504243Y-73499500D01*
X129386843Y-73514955D01*
X129386841Y-73514956D01*
X129240761Y-73575464D01*
X129115322Y-73671716D01*
X129096093Y-73696775D01*
X129085402Y-73708965D01*
X119648965Y-83145402D01*
X119636775Y-83156093D01*
X119611716Y-83175322D01*
X119556596Y-83247158D01*
X119515464Y-83300762D01*
X119515461Y-83300767D01*
X119454957Y-83446838D01*
X119454955Y-83446843D01*
X119439723Y-83562546D01*
X119434318Y-83603604D01*
X119437207Y-83625545D01*
X119438439Y-83634905D01*
X119439500Y-83651091D01*
X119439500Y-89012512D01*
X119438439Y-89028697D01*
X119434318Y-89059998D01*
X119434318Y-89060000D01*
X119439500Y-89099360D01*
X119439500Y-89099361D01*
X119454955Y-89216760D01*
X119454956Y-89216762D01*
X119489510Y-89300184D01*
X119515464Y-89362841D01*
X119607804Y-89483181D01*
X119611719Y-89488283D01*
X119636769Y-89507504D01*
X119648964Y-89518199D01*
X126363181Y-96232416D01*
X126396666Y-96293739D01*
X126399500Y-96320097D01*
X126399500Y-96932512D01*
X126398439Y-96948697D01*
X126394318Y-96979998D01*
X126394318Y-96980000D01*
X126399500Y-97019360D01*
X126399500Y-97019361D01*
X126414955Y-97136760D01*
X126414956Y-97136762D01*
X126475464Y-97282841D01*
X126571718Y-97408282D01*
X126697159Y-97504536D01*
X126843238Y-97565044D01*
X126921619Y-97575363D01*
X126999999Y-97585682D01*
X127000000Y-97585682D01*
X127031302Y-97581560D01*
X127047487Y-97580500D01*
X134928198Y-97580500D01*
X134944382Y-97581560D01*
X134975685Y-97585682D01*
X134975686Y-97585682D01*
X135027939Y-97578802D01*
X135132447Y-97565044D01*
X135278526Y-97504536D01*
X135403967Y-97408282D01*
X135423194Y-97383223D01*
X135433875Y-97371043D01*
X135671043Y-97133875D01*
X135683223Y-97123194D01*
X135708282Y-97103967D01*
X135804536Y-96978526D01*
X135865044Y-96832447D01*
X135880500Y-96715046D01*
X135885682Y-96675685D01*
X135881561Y-96644382D01*
X135880500Y-96628197D01*
X135880500Y-95330001D01*
X139824532Y-95330001D01*
X139844364Y-95556686D01*
X139844366Y-95556697D01*
X139903258Y-95776488D01*
X139903261Y-95776497D01*
X139999431Y-95982732D01*
X139999432Y-95982734D01*
X140129954Y-96169141D01*
X140290858Y-96330045D01*
X140290861Y-96330047D01*
X140477266Y-96460568D01*
X140683504Y-96556739D01*
X140903308Y-96615635D01*
X141073214Y-96630499D01*
X141073215Y-96630500D01*
X141073216Y-96630500D01*
X141186785Y-96630500D01*
X141186785Y-96630499D01*
X141356692Y-96615635D01*
X141576496Y-96556739D01*
X141782734Y-96460568D01*
X141969139Y-96330047D01*
X142130047Y-96169139D01*
X142260568Y-95982734D01*
X142356739Y-95776496D01*
X142415635Y-95556692D01*
X142435468Y-95330000D01*
X142415635Y-95103308D01*
X142356739Y-94883504D01*
X142260568Y-94677266D01*
X142130047Y-94490861D01*
X142130045Y-94490858D01*
X141969141Y-94329954D01*
X141782734Y-94199432D01*
X141782732Y-94199431D01*
X141576497Y-94103261D01*
X141576488Y-94103258D01*
X141356697Y-94044366D01*
X141356687Y-94044364D01*
X141186785Y-94029500D01*
X141186784Y-94029500D01*
X141073216Y-94029500D01*
X141073215Y-94029500D01*
X140903312Y-94044364D01*
X140903302Y-94044366D01*
X140683511Y-94103258D01*
X140683502Y-94103261D01*
X140477267Y-94199431D01*
X140477265Y-94199432D01*
X140290858Y-94329954D01*
X140129954Y-94490858D01*
X139999432Y-94677265D01*
X139999431Y-94677267D01*
X139903261Y-94883502D01*
X139903258Y-94883511D01*
X139844366Y-95103302D01*
X139844364Y-95103313D01*
X139824532Y-95329998D01*
X139824532Y-95330001D01*
X135880500Y-95330001D01*
X135880500Y-92837474D01*
X135900185Y-92770435D01*
X135952989Y-92724680D01*
X136018383Y-92714254D01*
X136143997Y-92728407D01*
X136144000Y-92728407D01*
X136144001Y-92728407D01*
X136153287Y-92727360D01*
X136251083Y-92716341D01*
X136319901Y-92728395D01*
X136352645Y-92751880D01*
X136955799Y-93355034D01*
X136966493Y-93367228D01*
X136985718Y-93392282D01*
X137052052Y-93443181D01*
X137063176Y-93451717D01*
X137063177Y-93451719D01*
X137077164Y-93462451D01*
X137111159Y-93488536D01*
X137111161Y-93488536D01*
X137111163Y-93488538D01*
X137184198Y-93518790D01*
X137257238Y-93549044D01*
X137335619Y-93559363D01*
X137413999Y-93569682D01*
X137414000Y-93569682D01*
X137445302Y-93565560D01*
X137461487Y-93564500D01*
X143226347Y-93564500D01*
X143292318Y-93583506D01*
X143371807Y-93633451D01*
X143425394Y-93667122D01*
X143590343Y-93724841D01*
X143590349Y-93724841D01*
X143590351Y-93724842D01*
X143763996Y-93744407D01*
X143764000Y-93744407D01*
X143764004Y-93744407D01*
X143937648Y-93724842D01*
X143937647Y-93724842D01*
X143937657Y-93724841D01*
X144102606Y-93667122D01*
X144250576Y-93574147D01*
X144374147Y-93450576D01*
X144467122Y-93302606D01*
X144524841Y-93137657D01*
X144526192Y-93125666D01*
X144544407Y-92964003D01*
X144544407Y-92963996D01*
X144524842Y-92790351D01*
X144524841Y-92790349D01*
X144524841Y-92790343D01*
X144467122Y-92625394D01*
X144374147Y-92477424D01*
X144250576Y-92353853D01*
X144102606Y-92260878D01*
X144102605Y-92260877D01*
X144102604Y-92260877D01*
X143937658Y-92203159D01*
X143937648Y-92203157D01*
X143764004Y-92183593D01*
X143763996Y-92183593D01*
X143590351Y-92203157D01*
X143590341Y-92203159D01*
X143425392Y-92260878D01*
X143292318Y-92344494D01*
X143226347Y-92363500D01*
X137714097Y-92363500D01*
X137647058Y-92343815D01*
X137626416Y-92327181D01*
X136871416Y-91572181D01*
X136837931Y-91510858D01*
X136842915Y-91441166D01*
X136884787Y-91385233D01*
X136950251Y-91360816D01*
X136959097Y-91360500D01*
X146187085Y-91360500D01*
X146254124Y-91380185D01*
X146299879Y-91432989D01*
X146304127Y-91443546D01*
X146334211Y-91529523D01*
X146430184Y-91682262D01*
X146557738Y-91809816D01*
X146710478Y-91905789D01*
X146880745Y-91965368D01*
X146880750Y-91965369D01*
X146978936Y-91976431D01*
X147043350Y-92003497D01*
X147052734Y-92011969D01*
X147427430Y-92386666D01*
X147779803Y-92739039D01*
X147790497Y-92751233D01*
X147790993Y-92751880D01*
X147809718Y-92776282D01*
X147828053Y-92790351D01*
X147837983Y-92797970D01*
X147838003Y-92797987D01*
X147935157Y-92872535D01*
X147935158Y-92872535D01*
X147935159Y-92872536D01*
X148081238Y-92933044D01*
X148135799Y-92940227D01*
X148237999Y-92953682D01*
X148238000Y-92953682D01*
X148269302Y-92949560D01*
X148285487Y-92948500D01*
X149749324Y-92948500D01*
X149816363Y-92968185D01*
X149837005Y-92984819D01*
X155040005Y-98187819D01*
X155073490Y-98249142D01*
X155068506Y-98318834D01*
X155026634Y-98374767D01*
X154961170Y-98399184D01*
X154952324Y-98399500D01*
X119304500Y-98399500D01*
X119237461Y-98379815D01*
X119191706Y-98327011D01*
X119180500Y-98275500D01*
X119180500Y-95440001D01*
X121834532Y-95440001D01*
X121854364Y-95666686D01*
X121854366Y-95666697D01*
X121913258Y-95886488D01*
X121913261Y-95886497D01*
X122009431Y-96092732D01*
X122009432Y-96092734D01*
X122139954Y-96279141D01*
X122300858Y-96440045D01*
X122300861Y-96440047D01*
X122487266Y-96570568D01*
X122693504Y-96666739D01*
X122693509Y-96666740D01*
X122693511Y-96666741D01*
X122726891Y-96675685D01*
X122913308Y-96725635D01*
X123083214Y-96740499D01*
X123083215Y-96740500D01*
X123083216Y-96740500D01*
X123196785Y-96740500D01*
X123196785Y-96740499D01*
X123366692Y-96725635D01*
X123586496Y-96666739D01*
X123792734Y-96570568D01*
X123979139Y-96440047D01*
X124140047Y-96279139D01*
X124270568Y-96092734D01*
X124366739Y-95886496D01*
X124425635Y-95666692D01*
X124445468Y-95440000D01*
X124425635Y-95213308D01*
X124366739Y-94993504D01*
X124270568Y-94787266D01*
X124140047Y-94600861D01*
X124140045Y-94600858D01*
X123979141Y-94439954D01*
X123792734Y-94309432D01*
X123792732Y-94309431D01*
X123586497Y-94213261D01*
X123586488Y-94213258D01*
X123366697Y-94154366D01*
X123366687Y-94154364D01*
X123196785Y-94139500D01*
X123196784Y-94139500D01*
X123083216Y-94139500D01*
X123083215Y-94139500D01*
X122913312Y-94154364D01*
X122913302Y-94154366D01*
X122693511Y-94213258D01*
X122693502Y-94213261D01*
X122487267Y-94309431D01*
X122487265Y-94309432D01*
X122300858Y-94439954D01*
X122139954Y-94600858D01*
X122009432Y-94787265D01*
X122009431Y-94787267D01*
X121913261Y-94993502D01*
X121913258Y-94993511D01*
X121854366Y-95213302D01*
X121854364Y-95213313D01*
X121834532Y-95439998D01*
X121834532Y-95440001D01*
X119180500Y-95440001D01*
X119180500Y-77634898D01*
X119198568Y-77570444D01*
X119357033Y-77310001D01*
X121804532Y-77310001D01*
X121824364Y-77536686D01*
X121824366Y-77536697D01*
X121883258Y-77756488D01*
X121883261Y-77756497D01*
X121979431Y-77962732D01*
X121979432Y-77962734D01*
X122109954Y-78149141D01*
X122270858Y-78310045D01*
X122317693Y-78342839D01*
X122457266Y-78440568D01*
X122663504Y-78536739D01*
X122663509Y-78536740D01*
X122663511Y-78536741D01*
X122716415Y-78550916D01*
X122883308Y-78595635D01*
X123053214Y-78610499D01*
X123053215Y-78610500D01*
X123053216Y-78610500D01*
X123166785Y-78610500D01*
X123166785Y-78610499D01*
X123336692Y-78595635D01*
X123556496Y-78536739D01*
X123762734Y-78440568D01*
X123949139Y-78310047D01*
X124110047Y-78149139D01*
X124240568Y-77962734D01*
X124336739Y-77756496D01*
X124395635Y-77536692D01*
X124415468Y-77310000D01*
X124395635Y-77083308D01*
X124336739Y-76863504D01*
X124240568Y-76657266D01*
X124110047Y-76470861D01*
X124110045Y-76470858D01*
X123949141Y-76309954D01*
X123762734Y-76179432D01*
X123762732Y-76179431D01*
X123556497Y-76083261D01*
X123556488Y-76083258D01*
X123336697Y-76024366D01*
X123336687Y-76024364D01*
X123166785Y-76009500D01*
X123166784Y-76009500D01*
X123053216Y-76009500D01*
X123053215Y-76009500D01*
X122883312Y-76024364D01*
X122883302Y-76024366D01*
X122663511Y-76083258D01*
X122663502Y-76083261D01*
X122457267Y-76179431D01*
X122457265Y-76179432D01*
X122270858Y-76309954D01*
X122109954Y-76470858D01*
X121979432Y-76657265D01*
X121979431Y-76657267D01*
X121883261Y-76863502D01*
X121883258Y-76863511D01*
X121824366Y-77083302D01*
X121824364Y-77083313D01*
X121804532Y-77309998D01*
X121804532Y-77310001D01*
X119357033Y-77310001D01*
X122314080Y-72449995D01*
X122365741Y-72402957D01*
X122419923Y-72390451D01*
X166555562Y-72360583D01*
X166622613Y-72380222D01*
G37*
%TD.AperFunction*%
%TA.AperFunction,Conductor*%
G36*
X132679729Y-94100184D02*
G01*
X132700371Y-94116818D01*
X133625872Y-95042319D01*
X133659357Y-95103642D01*
X133654373Y-95173334D01*
X133625872Y-95217681D01*
X133447681Y-95395872D01*
X133386358Y-95429357D01*
X133316666Y-95424373D01*
X133272319Y-95395872D01*
X132346818Y-94470371D01*
X132313333Y-94409048D01*
X132310499Y-94382690D01*
X132310499Y-94204499D01*
X132330184Y-94137460D01*
X132382988Y-94091705D01*
X132434499Y-94080499D01*
X132612690Y-94080499D01*
X132679729Y-94100184D01*
G37*
%TD.AperFunction*%
%TA.AperFunction,Conductor*%
G36*
X130703334Y-92135627D02*
G01*
X130747681Y-92164128D01*
X131673181Y-93089628D01*
X131706666Y-93150951D01*
X131709500Y-93177309D01*
X131709500Y-93355500D01*
X131689815Y-93422539D01*
X131637011Y-93468294D01*
X131585500Y-93479500D01*
X131407309Y-93479500D01*
X131340270Y-93459815D01*
X131319628Y-93443181D01*
X130394128Y-92517681D01*
X130360643Y-92456358D01*
X130365627Y-92386666D01*
X130394128Y-92342319D01*
X130572319Y-92164128D01*
X130633642Y-92130643D01*
X130703334Y-92135627D01*
G37*
%TD.AperFunction*%
%TA.AperFunction,Conductor*%
G36*
X142577257Y-75190185D02*
G01*
X142597899Y-75206819D01*
X143150114Y-75759034D01*
X143160808Y-75771228D01*
X143180032Y-75796281D01*
X143284916Y-75876761D01*
X143284917Y-75876762D01*
X143305474Y-75892536D01*
X143305478Y-75892538D01*
X143360914Y-75915500D01*
X143451553Y-75953044D01*
X143529934Y-75963363D01*
X143608314Y-75973682D01*
X143608315Y-75973682D01*
X143639617Y-75969560D01*
X143655802Y-75968500D01*
X151267903Y-75968500D01*
X151334942Y-75988185D01*
X151355584Y-76004819D01*
X164454584Y-89103819D01*
X164488069Y-89165142D01*
X164483085Y-89234834D01*
X164441213Y-89290767D01*
X164375749Y-89315184D01*
X164366903Y-89315500D01*
X158877998Y-89315500D01*
X158810959Y-89295815D01*
X158765204Y-89243011D01*
X158755260Y-89173853D01*
X158784285Y-89110297D01*
X158834665Y-89075318D01*
X158928828Y-89040197D01*
X158928827Y-89040197D01*
X158928831Y-89040196D01*
X159044046Y-88953946D01*
X159130296Y-88838731D01*
X159180591Y-88703883D01*
X159187000Y-88644273D01*
X159186999Y-87989728D01*
X159180591Y-87930117D01*
X159180307Y-87929356D01*
X159130297Y-87795271D01*
X159130293Y-87795264D01*
X159044047Y-87680055D01*
X159044044Y-87680052D01*
X158928835Y-87593806D01*
X158928828Y-87593802D01*
X158793982Y-87543508D01*
X158793983Y-87543508D01*
X158734383Y-87537101D01*
X158734381Y-87537100D01*
X158734373Y-87537100D01*
X158734364Y-87537100D01*
X157546429Y-87537100D01*
X157546423Y-87537101D01*
X157486816Y-87543508D01*
X157351971Y-87593802D01*
X157351969Y-87593804D01*
X157236750Y-87680056D01*
X157236626Y-87680181D01*
X157236471Y-87680265D01*
X157229654Y-87685369D01*
X157228920Y-87684388D01*
X157175303Y-87713666D01*
X157148945Y-87716500D01*
X154763055Y-87716500D01*
X154696016Y-87696815D01*
X154675374Y-87680181D01*
X154675249Y-87680056D01*
X154643592Y-87656358D01*
X154560031Y-87593804D01*
X154560029Y-87593803D01*
X154560028Y-87593802D01*
X154425182Y-87543508D01*
X154425183Y-87543508D01*
X154365583Y-87537101D01*
X154365581Y-87537100D01*
X154365573Y-87537100D01*
X154365564Y-87537100D01*
X153177629Y-87537100D01*
X153177623Y-87537101D01*
X153118016Y-87543508D01*
X152983171Y-87593802D01*
X152983164Y-87593806D01*
X152867955Y-87680052D01*
X152867952Y-87680055D01*
X152781706Y-87795264D01*
X152781702Y-87795271D01*
X152731408Y-87930117D01*
X152725001Y-87989716D01*
X152725001Y-87989723D01*
X152725000Y-87989735D01*
X152725000Y-88425500D01*
X152705315Y-88492539D01*
X152652511Y-88538294D01*
X152601000Y-88549500D01*
X142904000Y-88549500D01*
X142836961Y-88529815D01*
X142791206Y-88477011D01*
X142780000Y-88425500D01*
X142780000Y-86502172D01*
X142779999Y-86502155D01*
X142773598Y-86442627D01*
X142755479Y-86394048D01*
X142750495Y-86324356D01*
X142755476Y-86307391D01*
X142774091Y-86257483D01*
X142780500Y-86197873D01*
X142780499Y-85061800D01*
X152725500Y-85061800D01*
X152725500Y-85139044D01*
X152731901Y-85198572D01*
X152731903Y-85198579D01*
X152782145Y-85333286D01*
X152782149Y-85333293D01*
X152868309Y-85448387D01*
X152868312Y-85448390D01*
X152983406Y-85534550D01*
X152983413Y-85534554D01*
X153118120Y-85584796D01*
X153118127Y-85584798D01*
X153177655Y-85591199D01*
X153177672Y-85591200D01*
X153521600Y-85591200D01*
X153521600Y-85061800D01*
X154021600Y-85061800D01*
X154021600Y-85591200D01*
X154365528Y-85591200D01*
X154365544Y-85591199D01*
X154425072Y-85584798D01*
X154425079Y-85584796D01*
X154559786Y-85534554D01*
X154559793Y-85534550D01*
X154674887Y-85448390D01*
X154674890Y-85448387D01*
X154761050Y-85333293D01*
X154761054Y-85333286D01*
X154811296Y-85198579D01*
X154811298Y-85198572D01*
X154817699Y-85139044D01*
X154817700Y-85139027D01*
X154817700Y-85061800D01*
X157094300Y-85061800D01*
X157094300Y-85139044D01*
X157100701Y-85198572D01*
X157100703Y-85198579D01*
X157150945Y-85333286D01*
X157150949Y-85333293D01*
X157237109Y-85448387D01*
X157237112Y-85448390D01*
X157352206Y-85534550D01*
X157352213Y-85534554D01*
X157486920Y-85584796D01*
X157486927Y-85584798D01*
X157546455Y-85591199D01*
X157546472Y-85591200D01*
X157890400Y-85591200D01*
X157890400Y-85061800D01*
X158390400Y-85061800D01*
X158390400Y-85591200D01*
X158734328Y-85591200D01*
X158734344Y-85591199D01*
X158793872Y-85584798D01*
X158793879Y-85584796D01*
X158928586Y-85534554D01*
X158928593Y-85534550D01*
X159043687Y-85448390D01*
X159043690Y-85448387D01*
X159129850Y-85333293D01*
X159129854Y-85333286D01*
X159180096Y-85198579D01*
X159180098Y-85198572D01*
X159186499Y-85139044D01*
X159186500Y-85139027D01*
X159186500Y-85061800D01*
X158390400Y-85061800D01*
X157890400Y-85061800D01*
X157094300Y-85061800D01*
X154817700Y-85061800D01*
X154021600Y-85061800D01*
X153521600Y-85061800D01*
X152725500Y-85061800D01*
X142780499Y-85061800D01*
X142780499Y-84561800D01*
X152725500Y-84561800D01*
X153521600Y-84561800D01*
X153521600Y-84032400D01*
X154021600Y-84032400D01*
X154021600Y-84561800D01*
X154817700Y-84561800D01*
X157094300Y-84561800D01*
X157890400Y-84561800D01*
X157890400Y-84032400D01*
X158390400Y-84032400D01*
X158390400Y-84561800D01*
X159186500Y-84561800D01*
X159186500Y-84484572D01*
X159186499Y-84484555D01*
X159180098Y-84425027D01*
X159180096Y-84425020D01*
X159129854Y-84290313D01*
X159129850Y-84290306D01*
X159043690Y-84175212D01*
X159043687Y-84175209D01*
X158928593Y-84089049D01*
X158928586Y-84089045D01*
X158793879Y-84038803D01*
X158793872Y-84038801D01*
X158734344Y-84032400D01*
X158390400Y-84032400D01*
X157890400Y-84032400D01*
X157546455Y-84032400D01*
X157486927Y-84038801D01*
X157486920Y-84038803D01*
X157352213Y-84089045D01*
X157352206Y-84089049D01*
X157237112Y-84175209D01*
X157237109Y-84175212D01*
X157150949Y-84290306D01*
X157150945Y-84290313D01*
X157100703Y-84425020D01*
X157100701Y-84425027D01*
X157094300Y-84484555D01*
X157094300Y-84561800D01*
X154817700Y-84561800D01*
X154817700Y-84484572D01*
X154817699Y-84484555D01*
X154811298Y-84425027D01*
X154811296Y-84425020D01*
X154761054Y-84290313D01*
X154761050Y-84290306D01*
X154674890Y-84175212D01*
X154674887Y-84175209D01*
X154559793Y-84089049D01*
X154559786Y-84089045D01*
X154425079Y-84038803D01*
X154425072Y-84038801D01*
X154365544Y-84032400D01*
X154021600Y-84032400D01*
X153521600Y-84032400D01*
X153177655Y-84032400D01*
X153118127Y-84038801D01*
X153118120Y-84038803D01*
X152983413Y-84089045D01*
X152983406Y-84089049D01*
X152868312Y-84175209D01*
X152868309Y-84175212D01*
X152782149Y-84290306D01*
X152782145Y-84290313D01*
X152731903Y-84425020D01*
X152731901Y-84425027D01*
X152725500Y-84484555D01*
X152725500Y-84561800D01*
X142780499Y-84561800D01*
X142780499Y-83802128D01*
X142774091Y-83742517D01*
X142770216Y-83732128D01*
X142761901Y-83709833D01*
X142756917Y-83640141D01*
X142790402Y-83578818D01*
X142851726Y-83545334D01*
X142878083Y-83542500D01*
X143951067Y-83542500D01*
X144018106Y-83562185D01*
X144063861Y-83614989D01*
X144068108Y-83625545D01*
X144076876Y-83650602D01*
X144076877Y-83650604D01*
X144076878Y-83650606D01*
X144169853Y-83798576D01*
X144293424Y-83922147D01*
X144441394Y-84015122D01*
X144606343Y-84072841D01*
X144606349Y-84072841D01*
X144606351Y-84072842D01*
X144779996Y-84092407D01*
X144780000Y-84092407D01*
X144780004Y-84092407D01*
X144953648Y-84072842D01*
X144953647Y-84072842D01*
X144953657Y-84072841D01*
X145118606Y-84015122D01*
X145266576Y-83922147D01*
X145390147Y-83798576D01*
X145483122Y-83650606D01*
X145540841Y-83485657D01*
X145560407Y-83312000D01*
X145559564Y-83304520D01*
X145540842Y-83138351D01*
X145540841Y-83138344D01*
X145540841Y-83138343D01*
X145513935Y-83061453D01*
X145510373Y-82991677D01*
X145545102Y-82931049D01*
X145607095Y-82898822D01*
X145630977Y-82896500D01*
X148814347Y-82896500D01*
X148880318Y-82915506D01*
X148955072Y-82962476D01*
X149013394Y-82999122D01*
X149178343Y-83056841D01*
X149178349Y-83056841D01*
X149178351Y-83056842D01*
X149351996Y-83076407D01*
X149352000Y-83076407D01*
X149352004Y-83076407D01*
X149525648Y-83056842D01*
X149525647Y-83056842D01*
X149525657Y-83056841D01*
X149690606Y-82999122D01*
X149838576Y-82906147D01*
X149962147Y-82782576D01*
X150055122Y-82634606D01*
X150112841Y-82469657D01*
X150123985Y-82370750D01*
X150132407Y-82296003D01*
X150132407Y-82295996D01*
X150112842Y-82122351D01*
X150112841Y-82122349D01*
X150112841Y-82122343D01*
X150055122Y-81957394D01*
X149962147Y-81809424D01*
X149838576Y-81685853D01*
X149690606Y-81592878D01*
X149690605Y-81592877D01*
X149690604Y-81592877D01*
X149525658Y-81535159D01*
X149525648Y-81535157D01*
X149352004Y-81515593D01*
X149351996Y-81515593D01*
X149178351Y-81535157D01*
X149178341Y-81535159D01*
X149013392Y-81592878D01*
X148880318Y-81676494D01*
X148814347Y-81695500D01*
X143394966Y-81695500D01*
X143327927Y-81675815D01*
X143282172Y-81623011D01*
X143271746Y-81557615D01*
X143274407Y-81534000D01*
X143274407Y-81533996D01*
X143254842Y-81360351D01*
X143254841Y-81360349D01*
X143254841Y-81360343D01*
X143197122Y-81195394D01*
X143104147Y-81047424D01*
X142980576Y-80923853D01*
X142832606Y-80830878D01*
X142832605Y-80830877D01*
X142832604Y-80830877D01*
X142667654Y-80773158D01*
X142608806Y-80766527D01*
X142544393Y-80739460D01*
X142504838Y-80681865D01*
X142499472Y-80657198D01*
X142492841Y-80598343D01*
X142435122Y-80433394D01*
X142342147Y-80285424D01*
X142218576Y-80161853D01*
X142070606Y-80068878D01*
X142070605Y-80068877D01*
X142070604Y-80068877D01*
X141905658Y-80011159D01*
X141905648Y-80011157D01*
X141732004Y-79991593D01*
X141731996Y-79991593D01*
X141558351Y-80011157D01*
X141558341Y-80011159D01*
X141393395Y-80068877D01*
X141357426Y-80091478D01*
X141250067Y-80158936D01*
X141247587Y-80160494D01*
X141181615Y-80179500D01*
X138541910Y-80179500D01*
X138475938Y-80160494D01*
X138319523Y-80062211D01*
X138149254Y-80002631D01*
X138149249Y-80002630D01*
X137970004Y-79982435D01*
X137969996Y-79982435D01*
X137790750Y-80002630D01*
X137790745Y-80002631D01*
X137620476Y-80062211D01*
X137467737Y-80158184D01*
X137340184Y-80285737D01*
X137244211Y-80438476D01*
X137184631Y-80608745D01*
X137184630Y-80608750D01*
X137164435Y-80787996D01*
X137164435Y-80788003D01*
X137184630Y-80967249D01*
X137184631Y-80967254D01*
X137244211Y-81137523D01*
X137333563Y-81279725D01*
X137352563Y-81346962D01*
X137345613Y-81386643D01*
X137343453Y-81392817D01*
X137343451Y-81392825D01*
X137323255Y-81572075D01*
X137323255Y-81572082D01*
X137343450Y-81751328D01*
X137343452Y-81751338D01*
X137352273Y-81776544D01*
X137355836Y-81846323D01*
X137321107Y-81906951D01*
X137259114Y-81939178D01*
X137235232Y-81941500D01*
X131938422Y-81941500D01*
X131871383Y-81921815D01*
X131825628Y-81869011D01*
X131821381Y-81858455D01*
X131792719Y-81776544D01*
X131767122Y-81703394D01*
X131767121Y-81703392D01*
X131764100Y-81697118D01*
X131766227Y-81696093D01*
X131750244Y-81639543D01*
X131770608Y-81572706D01*
X131823873Y-81527489D01*
X131860983Y-81517511D01*
X131897372Y-81513598D01*
X131897375Y-81513597D01*
X131945949Y-81495480D01*
X132015640Y-81490494D01*
X132032610Y-81495477D01*
X132082517Y-81514091D01*
X132142127Y-81520500D01*
X134537872Y-81520499D01*
X134597483Y-81514091D01*
X134732331Y-81463796D01*
X134847546Y-81377546D01*
X134933796Y-81262331D01*
X134984091Y-81127483D01*
X134990500Y-81067873D01*
X134990499Y-79320095D01*
X135010184Y-79253057D01*
X135026813Y-79232420D01*
X135181043Y-79078190D01*
X135193223Y-79067509D01*
X135218282Y-79048282D01*
X135314536Y-78922841D01*
X135375044Y-78776762D01*
X135390500Y-78659361D01*
X135395682Y-78620000D01*
X135394431Y-78610500D01*
X135391561Y-78588697D01*
X135390500Y-78572512D01*
X135390500Y-77216001D01*
X139918532Y-77216001D01*
X139938364Y-77442686D01*
X139938366Y-77442697D01*
X139997258Y-77662488D01*
X139997261Y-77662497D01*
X140093431Y-77868732D01*
X140093432Y-77868734D01*
X140223954Y-78055141D01*
X140384858Y-78216045D01*
X140384861Y-78216047D01*
X140571266Y-78346568D01*
X140777504Y-78442739D01*
X140997308Y-78501635D01*
X141167214Y-78516499D01*
X141167215Y-78516500D01*
X141167216Y-78516500D01*
X141280785Y-78516500D01*
X141280785Y-78516499D01*
X141450692Y-78501635D01*
X141670496Y-78442739D01*
X141876734Y-78346568D01*
X142063139Y-78216047D01*
X142224047Y-78055139D01*
X142354568Y-77868734D01*
X142450739Y-77662496D01*
X142509635Y-77442692D01*
X142529468Y-77216000D01*
X142509635Y-76989308D01*
X142450739Y-76769504D01*
X142354568Y-76563266D01*
X142224047Y-76376861D01*
X142224045Y-76376858D01*
X142063141Y-76215954D01*
X141876734Y-76085432D01*
X141876732Y-76085431D01*
X141670497Y-75989261D01*
X141670488Y-75989258D01*
X141450697Y-75930366D01*
X141450687Y-75930364D01*
X141280785Y-75915500D01*
X141280784Y-75915500D01*
X141167216Y-75915500D01*
X141167215Y-75915500D01*
X140997312Y-75930364D01*
X140997302Y-75930366D01*
X140777511Y-75989258D01*
X140777502Y-75989261D01*
X140571267Y-76085431D01*
X140571265Y-76085432D01*
X140384858Y-76215954D01*
X140223954Y-76376858D01*
X140093432Y-76563265D01*
X140093431Y-76563267D01*
X139997261Y-76769502D01*
X139997258Y-76769511D01*
X139938366Y-76989302D01*
X139938364Y-76989313D01*
X139918532Y-77215998D01*
X139918532Y-77216001D01*
X135390500Y-77216001D01*
X135390500Y-75767487D01*
X135391561Y-75751301D01*
X135395682Y-75719999D01*
X135395682Y-75719998D01*
X135375044Y-75563239D01*
X135375044Y-75563238D01*
X135314536Y-75417159D01*
X135278338Y-75369985D01*
X135253145Y-75304817D01*
X135267183Y-75236373D01*
X135315997Y-75186383D01*
X135376715Y-75170500D01*
X142510218Y-75170500D01*
X142577257Y-75190185D01*
G37*
%TD.AperFunction*%
%TA.AperFunction,Conductor*%
G36*
X140449729Y-86670184D02*
G01*
X140470371Y-86686818D01*
X141395872Y-87612319D01*
X141429357Y-87673642D01*
X141424373Y-87743334D01*
X141395872Y-87787681D01*
X141217681Y-87965872D01*
X141156358Y-87999357D01*
X141086666Y-87994373D01*
X141042319Y-87965872D01*
X140116818Y-87040371D01*
X140083333Y-86979048D01*
X140080499Y-86952690D01*
X140080499Y-86774499D01*
X140100184Y-86707460D01*
X140152988Y-86661705D01*
X140204499Y-86650499D01*
X140382690Y-86650499D01*
X140449729Y-86670184D01*
G37*
%TD.AperFunction*%
%TA.AperFunction,Conductor*%
G36*
X124032539Y-86600184D02*
G01*
X124078294Y-86652988D01*
X124089500Y-86704499D01*
X124089500Y-86882690D01*
X124069815Y-86949729D01*
X124053181Y-86970371D01*
X123127680Y-87895871D01*
X123066357Y-87929356D01*
X122996665Y-87924372D01*
X122952318Y-87895871D01*
X122774128Y-87717681D01*
X122740643Y-87656358D01*
X122745627Y-87586666D01*
X122774128Y-87542319D01*
X123699629Y-86616818D01*
X123760952Y-86583333D01*
X123787310Y-86580499D01*
X123965500Y-86580499D01*
X124032539Y-86600184D01*
G37*
%TD.AperFunction*%
%TA.AperFunction,Conductor*%
G36*
X136322539Y-83562185D02*
G01*
X136368294Y-83614989D01*
X136379500Y-83666500D01*
X136379500Y-86402512D01*
X136378439Y-86418697D01*
X136375289Y-86442627D01*
X136374318Y-86450000D01*
X136381011Y-86500841D01*
X136391872Y-86583333D01*
X136394956Y-86606761D01*
X136394956Y-86606762D01*
X136436666Y-86707460D01*
X136455464Y-86752841D01*
X136551718Y-86878282D01*
X136551720Y-86878283D01*
X136551722Y-86878286D01*
X136557465Y-86884029D01*
X136556185Y-86885308D01*
X136591413Y-86933555D01*
X136595566Y-87003301D01*
X136561353Y-87064220D01*
X136499635Y-87096972D01*
X136474723Y-87099500D01*
X135380097Y-87099500D01*
X135313058Y-87079815D01*
X135292416Y-87063181D01*
X131983416Y-83754181D01*
X131949931Y-83692858D01*
X131954915Y-83623166D01*
X131996787Y-83567233D01*
X132062251Y-83542816D01*
X132071097Y-83542500D01*
X136255500Y-83542500D01*
X136322539Y-83562185D01*
G37*
%TD.AperFunction*%
%TA.AperFunction,Conductor*%
G36*
X138473334Y-84705627D02*
G01*
X138517681Y-84734128D01*
X139443181Y-85659628D01*
X139476666Y-85720951D01*
X139479500Y-85747309D01*
X139479500Y-85925500D01*
X139459815Y-85992539D01*
X139407011Y-86038294D01*
X139355500Y-86049500D01*
X139177309Y-86049500D01*
X139110270Y-86029815D01*
X139089628Y-86013181D01*
X138164128Y-85087681D01*
X138130643Y-85026358D01*
X138135627Y-84956666D01*
X138164128Y-84912319D01*
X138342319Y-84734128D01*
X138403642Y-84700643D01*
X138473334Y-84705627D01*
G37*
%TD.AperFunction*%
%TA.AperFunction,Conductor*%
G36*
X125783334Y-84635627D02*
G01*
X125827681Y-84664128D01*
X126005872Y-84842319D01*
X126039357Y-84903642D01*
X126034373Y-84973334D01*
X126005872Y-85017681D01*
X125080372Y-85943181D01*
X125019049Y-85976666D01*
X124992691Y-85979500D01*
X124814499Y-85979500D01*
X124747460Y-85959815D01*
X124701705Y-85907011D01*
X124690499Y-85855500D01*
X124690499Y-85677310D01*
X124710184Y-85610271D01*
X124726818Y-85589629D01*
X125652319Y-84664128D01*
X125713642Y-84630643D01*
X125783334Y-84635627D01*
G37*
%TD.AperFunction*%
%TA.AperFunction,Conductor*%
G36*
X128914986Y-78496760D02*
G01*
X128970920Y-78538632D01*
X128995337Y-78604096D01*
X128994942Y-78626197D01*
X128990001Y-78672153D01*
X128990000Y-78672172D01*
X128990000Y-81067844D01*
X128996401Y-81127373D01*
X129005276Y-81151170D01*
X130640000Y-79516447D01*
X131299628Y-78856818D01*
X131360951Y-78823333D01*
X131387307Y-78820499D01*
X131565500Y-78820499D01*
X131632539Y-78840184D01*
X131678294Y-78892988D01*
X131689500Y-78944499D01*
X131689500Y-79122690D01*
X131669815Y-79189729D01*
X131653181Y-79210371D01*
X130640000Y-80223553D01*
X129358829Y-81504722D01*
X129382623Y-81513597D01*
X129382627Y-81513598D01*
X129442155Y-81519999D01*
X129442172Y-81520000D01*
X129681915Y-81520000D01*
X129748954Y-81539685D01*
X129794709Y-81592489D01*
X129804653Y-81661647D01*
X129775628Y-81725203D01*
X129769596Y-81731681D01*
X129691853Y-81809423D01*
X129598877Y-81957395D01*
X129541159Y-82122341D01*
X129541157Y-82122351D01*
X129521593Y-82295996D01*
X129521593Y-82296003D01*
X129541157Y-82469648D01*
X129541159Y-82469658D01*
X129598878Y-82634607D01*
X129649099Y-82714534D01*
X129668099Y-82781771D01*
X129649099Y-82846477D01*
X129576211Y-82962476D01*
X129516631Y-83132745D01*
X129516630Y-83132750D01*
X129496435Y-83311996D01*
X129496435Y-83312003D01*
X129516630Y-83491249D01*
X129516632Y-83491257D01*
X129541577Y-83562546D01*
X129545138Y-83632325D01*
X129510409Y-83692952D01*
X129448415Y-83725179D01*
X129424535Y-83727500D01*
X128069487Y-83727500D01*
X128053302Y-83726439D01*
X128022000Y-83722318D01*
X128021997Y-83722318D01*
X127930684Y-83734339D01*
X127861649Y-83723573D01*
X127809394Y-83677193D01*
X127790500Y-83611400D01*
X127790500Y-83549487D01*
X127791561Y-83533301D01*
X127795682Y-83501999D01*
X127795682Y-83501998D01*
X127775044Y-83345240D01*
X127775044Y-83345238D01*
X127752797Y-83291530D01*
X127745329Y-83222066D01*
X127776603Y-83159586D01*
X127779678Y-83156400D01*
X127806436Y-83129642D01*
X127883816Y-83052262D01*
X127979789Y-82899522D01*
X128039368Y-82729255D01*
X128041027Y-82714534D01*
X128059565Y-82550003D01*
X128059565Y-82549996D01*
X128039369Y-82370750D01*
X128039368Y-82370745D01*
X128013215Y-82296003D01*
X127979789Y-82200478D01*
X127883816Y-82047738D01*
X127883814Y-82047736D01*
X127883813Y-82047734D01*
X127881550Y-82044896D01*
X127880659Y-82042715D01*
X127880111Y-82041842D01*
X127880264Y-82041745D01*
X127855144Y-81980209D01*
X127854500Y-81967587D01*
X127854500Y-79506096D01*
X127874185Y-79439057D01*
X127890814Y-79418419D01*
X128783974Y-78525259D01*
X128845295Y-78491776D01*
X128914986Y-78496760D01*
G37*
%TD.AperFunction*%
%TA.AperFunction,Conductor*%
G36*
X124111139Y-82059186D02*
G01*
X124167073Y-82101057D01*
X124191026Y-82161484D01*
X124199157Y-82233649D01*
X124199159Y-82233658D01*
X124254214Y-82390994D01*
X124256878Y-82398606D01*
X124349853Y-82546576D01*
X124473424Y-82670147D01*
X124621394Y-82763122D01*
X124786343Y-82820841D01*
X124786349Y-82820841D01*
X124786351Y-82820842D01*
X124959996Y-82840407D01*
X124960000Y-82840407D01*
X124960004Y-82840407D01*
X125133648Y-82820842D01*
X125133647Y-82820842D01*
X125133657Y-82820841D01*
X125298606Y-82763122D01*
X125401129Y-82698702D01*
X125468365Y-82679703D01*
X125535200Y-82700071D01*
X125554781Y-82716016D01*
X125907084Y-83068319D01*
X125940569Y-83129642D01*
X125935585Y-83199334D01*
X125893713Y-83255267D01*
X125828249Y-83279684D01*
X125819403Y-83280000D01*
X124542155Y-83280000D01*
X124482627Y-83286401D01*
X124482623Y-83286402D01*
X124434046Y-83304520D01*
X124364354Y-83309503D01*
X124347382Y-83304519D01*
X124297485Y-83285909D01*
X124297483Y-83285908D01*
X124237883Y-83279501D01*
X124237881Y-83279500D01*
X124237873Y-83279500D01*
X124237865Y-83279500D01*
X123764500Y-83279500D01*
X123697461Y-83259815D01*
X123651706Y-83207011D01*
X123640500Y-83155500D01*
X123640500Y-82478675D01*
X123660185Y-82411636D01*
X123676815Y-82390998D01*
X123980128Y-82087685D01*
X124041448Y-82054202D01*
X124111139Y-82059186D01*
G37*
%TD.AperFunction*%
%TA.AperFunction,Conductor*%
G36*
X128908834Y-76252914D02*
G01*
X128964767Y-76294786D01*
X128989184Y-76360250D01*
X128989500Y-76369096D01*
X128989500Y-76582517D01*
X128969815Y-76649556D01*
X128940986Y-76680893D01*
X128861718Y-76741716D01*
X128842489Y-76766775D01*
X128831798Y-76778965D01*
X126862965Y-78747798D01*
X126850775Y-78758489D01*
X126825716Y-78777718D01*
X126729464Y-78903157D01*
X126668956Y-79049237D01*
X126668955Y-79049239D01*
X126650460Y-79189729D01*
X126648318Y-79206000D01*
X126651796Y-79232415D01*
X126652439Y-79237301D01*
X126653500Y-79253487D01*
X126653500Y-81816903D01*
X126633815Y-81883942D01*
X126581011Y-81929697D01*
X126511853Y-81939641D01*
X126448297Y-81910616D01*
X126441819Y-81904584D01*
X126206199Y-81668964D01*
X126195504Y-81656769D01*
X126176283Y-81631719D01*
X126176282Y-81631718D01*
X126050841Y-81535464D01*
X126014712Y-81520499D01*
X125904762Y-81474956D01*
X125904760Y-81474955D01*
X125787361Y-81459500D01*
X125748000Y-81454318D01*
X125716697Y-81458439D01*
X125700513Y-81459500D01*
X125497653Y-81459500D01*
X125431682Y-81440494D01*
X125292710Y-81353173D01*
X125293534Y-81351861D01*
X125247786Y-81310552D01*
X125229477Y-81243124D01*
X125248456Y-81179690D01*
X125293122Y-81108606D01*
X125350841Y-80943657D01*
X125368379Y-80788000D01*
X125370407Y-80770003D01*
X125370407Y-80769996D01*
X125350842Y-80596351D01*
X125350841Y-80596349D01*
X125350841Y-80596343D01*
X125293122Y-80431394D01*
X125200147Y-80283424D01*
X125076576Y-80159853D01*
X125075659Y-80158936D01*
X125042174Y-80097613D01*
X125047158Y-80027921D01*
X125075657Y-79983576D01*
X128777819Y-76281415D01*
X128839142Y-76247930D01*
X128908834Y-76252914D01*
G37*
%TD.AperFunction*%
%TA.AperFunction,Conductor*%
G36*
X133383334Y-76875627D02*
G01*
X133427681Y-76904128D01*
X133605872Y-77082319D01*
X133639357Y-77143642D01*
X133634373Y-77213334D01*
X133605872Y-77257681D01*
X132680372Y-78183181D01*
X132619049Y-78216666D01*
X132592691Y-78219500D01*
X132414499Y-78219500D01*
X132347460Y-78199815D01*
X132301705Y-78147011D01*
X132290499Y-78095500D01*
X132290499Y-77917310D01*
X132310184Y-77850271D01*
X132326818Y-77829629D01*
X133252319Y-76904128D01*
X133313642Y-76870643D01*
X133383334Y-76875627D01*
G37*
%TD.AperFunction*%
%TD*%
M02*
